<?xml version="1.0" encoding="UTF-8" standalone="no"?>
<!-- Created with Inkscape (http://www.inkscape.org/) -->

<svg
   xmlns:dc="http://purl.org/dc/elements/1.1/"
   xmlns:cc="http://creativecommons.org/ns#"
   xmlns:rdf="http://www.w3.org/1999/02/22-rdf-syntax-ns#"
   xmlns:svg="http://www.w3.org/2000/svg"
   xmlns="http://www.w3.org/2000/svg"
   xmlns:sodipodi="http://sodipodi.sourceforge.net/DTD/sodipodi-0.dtd"
   xmlns:inkscape="http://www.inkscape.org/namespaces/inkscape"
   version="1.1"
   id="svg4485"
   xml:space="preserve"
   width="1008.3362"
   height="580.34662"
   viewBox="0 0 1008.3362 580.34662"
   sodipodi:docname="pol_streu_hori.svg"
   inkscape:version="0.92.1 r"><metadata
     id="metadata4491"><rdf:RDF><cc:Work
         rdf:about=""><dc:format>image/svg+xml</dc:format><dc:type
           rdf:resource="http://purl.org/dc/dcmitype/StillImage" /><dc:title></dc:title></cc:Work></rdf:RDF></metadata><defs
     id="defs4489" /><sodipodi:namedview
     pagecolor="#ffffff"
     bordercolor="#666666"
     borderopacity="1"
     objecttolerance="10"
     gridtolerance="10"
     guidetolerance="10"
     inkscape:pageopacity="0"
     inkscape:pageshadow="2"
     inkscape:window-width="3840"
     inkscape:window-height="2047"
     id="namedview4487"
     showgrid="false"
     inkscape:zoom="1.5499358"
     inkscape:cx="469.39034"
     inkscape:cy="420.28802"
     inkscape:window-x="0"
     inkscape:window-y="0"
     inkscape:window-maximized="1"
     inkscape:current-layer="g4493" /><g
     id="g4493"
     inkscape:groupmode="layer"
     inkscape:label="pol_streu_hori"
     transform="matrix(1.3333333,0,0,-1.3333333,0,580.3466)"><g
       id="g4495"><g
         id="g4497"
         transform="matrix(1,0,0,-1,0,435.25995)"><path
           d="m 377.414,298.828 c -140.098,58.027 139.832,-96.457 -0.266,-38.433 -140.097,58.027 139.836,-96.457 -0.261,-38.43 -140.098,58.023 139.832,-96.461 -0.266,-38.434 C 236.523,241.559 516.453,87.074 376.355,145.098 236.258,203.125 516.188,48.641 376.09,106.668 235.992,164.691 515.926,10.207 375.828,68.234 235.73,126.262 515.66,-28.223 375.562,29.805"
           style="fill:none;stroke:#d7b900;stroke-width:0.84755898;stroke-linecap:butt;stroke-linejoin:miter;stroke-miterlimit:4;stroke-dasharray:none;stroke-opacity:1"
           id="path4499"
           inkscape:connector-curvature="0" /></g><g
         id="g4501"
         transform="matrix(1,0,0,-1,0,435.25995)"><path
           d="m 463.691,171.582 c 0,12.574 -40.296,22.766 -90,22.766 -49.707,0 -90,-10.192 -90,-22.766 0,-12.574 40.293,-22.77 90,-22.77 49.704,0 90,10.196 90,22.77 z"
           style="fill:none;stroke:#000000;stroke-width:0.75;stroke-linecap:butt;stroke-linejoin:miter;stroke-miterlimit:4;stroke-dasharray:none;stroke-opacity:1"
           id="path4503"
           inkscape:connector-curvature="0" /></g><g
         id="g4505"
         transform="matrix(1,0,0,-1,0,435.25995)"><path
           d="m 463.559,412.117 c 0,12.574 -40.297,22.77 -90,22.77 -49.707,0 -90,-10.196 -90,-22.77 0,-12.574 40.293,-22.769 90,-22.769 49.703,0 90,10.195 90,22.769 z"
           style="fill:none;stroke:#000000;stroke-width:0.75;stroke-linecap:butt;stroke-linejoin:miter;stroke-miterlimit:4;stroke-dasharray:none;stroke-opacity:1"
           id="path4507"
           inkscape:connector-curvature="0" /></g><g
         id="g4509"
         transform="matrix(1,0,0,-1,0,435.25995)"><path
           d="M 283.805,170.953 V 414.527"
           style="fill:none;stroke:#000000;stroke-width:0.75;stroke-linecap:butt;stroke-linejoin:miter;stroke-miterlimit:4;stroke-dasharray:none;stroke-opacity:1"
           id="path4511"
           inkscape:connector-curvature="0" /></g><g
         id="g4513"
         transform="matrix(1,0,0,-1,0,435.25995)"><path
           d="M 463.559,171 V 412.492"
           style="fill:none;stroke:#000000;stroke-width:0.746786;stroke-linecap:butt;stroke-linejoin:miter;stroke-miterlimit:4;stroke-dasharray:none;stroke-opacity:1"
           id="path4515"
           inkscape:connector-curvature="0" /></g><g
         id="g4517"
         transform="matrix(1,0,0,-1,0,435.25995)"><path
           d="m 380.434,301.617 c 0,2.09 -1.422,3.785 -3.176,3.785 -1.75,0 -3.172,-1.695 -3.172,-3.785 0,-2.094 1.422,-3.789 3.172,-3.789 1.754,0 3.176,1.695 3.176,3.789 z"
           style="fill:#000000;fill-opacity:1;fill-rule:nonzero;stroke:#0000b5;stroke-width:7.83779478;stroke-linecap:butt;stroke-linejoin:miter;stroke-miterlimit:4;stroke-dasharray:none;stroke-opacity:1"
           id="path4519"
           inkscape:connector-curvature="0" /></g><g
         id="g4521"
         transform="matrix(1,0,0,-1,0,435.25995)"><path
           d="m 36.145,296.562 c 235.793,-95.39 -187.04,95.711 48.753,0.325 235.793,-95.391 -187.039,95.711 48.754,0.324 235.793,-95.391 -187.043,95.711 48.75,0.32 235.793,-95.386 -187.039,95.715 48.754,0.324 235.793,-95.39 -187.039,95.715 48.754,0.325 235.793,-95.391 -187.043,95.715 48.75,0.324 235.797,-95.391 -187.039,95.715 48.754,0.324"
           style="fill:none;stroke:#000000;stroke-width:0.83055103;stroke-linecap:butt;stroke-linejoin:miter;stroke-miterlimit:4;stroke-dasharray:none;stroke-opacity:1"
           id="path4523"
           inkscape:connector-curvature="0" /></g><g
         id="g4525"
         transform="matrix(1,0,0,-1,0,435.25995)"><path
           d="m 753.91,282.254 -70.922,39.652"
           style="fill:none;stroke:#000000;stroke-width:1.567559;stroke-linecap:butt;stroke-linejoin:miter;stroke-miterlimit:4;stroke-dasharray:none;stroke-opacity:1"
           id="path4527"
           inkscape:connector-curvature="0" /></g><g
         id="g4529"
         transform="matrix(-1,-0.55909,-0.55909,1,0,435.25995)"><path
           d="m -439.519,-530.09 -16.446,-6.05 16.446,-6.044 c -2.629,3.57 -2.613,8.454 0,12.094 z"
           style="fill:#000000;fill-opacity:1;fill-rule:evenodd;stroke:#000000;stroke-width:0.94066203;stroke-linecap:butt;stroke-linejoin:round;stroke-miterlimit:4;stroke-dasharray:none;stroke-opacity:1"
           id="path4531"
           inkscape:connector-curvature="0" /></g><g
         id="g4533"
         transform="matrix(1,0.55909,0.55909,-1,0,435.25995)"><path
           d="m 397.852,542.232 -16.445,-6.046 16.444,-6.048 c -2.625,3.571 -2.611,8.458 10e-4,12.094 z"
           style="fill:#000000;fill-opacity:1;fill-rule:evenodd;stroke:#000000;stroke-width:0.94066203;stroke-linecap:butt;stroke-linejoin:round;stroke-miterlimit:4;stroke-dasharray:none;stroke-opacity:1"
           id="path4535"
           inkscape:connector-curvature="0" /></g><g
         id="g4537"
         transform="matrix(1,0,0,-1,0,435.25995)"><path
           d="M 422.359,1.918 340.023,50.887"
           style="fill:none;stroke:#d6b900;stroke-width:1.84726906;stroke-linecap:butt;stroke-linejoin:miter;stroke-miterlimit:4;stroke-dasharray:none;stroke-opacity:1"
           id="path4539"
           inkscape:connector-curvature="0" /></g><g
         id="g4541"
         transform="matrix(-1,-0.594772,-0.594772,1,0,435.25995)"><path
           d="m -294.175,-179.936 -19.08,-7.016 19.079,-7.016 c -3.049,4.14 -3.031,9.811 10e-4,14.032 z"
           style="fill:#d6b900;fill-opacity:1;fill-rule:evenodd;stroke:#d6b900;stroke-width:1.09152305;stroke-linecap:butt;stroke-linejoin:round;stroke-miterlimit:4;stroke-dasharray:none;stroke-opacity:1"
           id="path4543"
           inkscape:connector-curvature="0" /></g><g
         id="g4545"
         transform="matrix(1,0.594772,0.594772,-1,0,435.25995)"><path
           d="m 245.783,194.025 -19.081,-7.017 19.084,-7.017 c -3.05,4.143 -3.031,9.811 -0.003,14.034 z"
           style="fill:#d6b900;fill-opacity:1;fill-rule:evenodd;stroke:#d6b900;stroke-width:1.09152305;stroke-linecap:butt;stroke-linejoin:round;stroke-miterlimit:4;stroke-dasharray:none;stroke-opacity:1"
           id="path4547"
           inkscape:connector-curvature="0" /></g><g
         id="g4549"
         transform="matrix(1,0,0,-1,0,435.25995)"><path
           d="m 377.414,298.828 c 235.793,-95.39 -187.039,95.715 48.754,0.324 235.793,-95.39 -187.039,95.711 48.754,0.325 235.793,-95.391 -187.043,95.711 48.75,0.32 235.793,-95.387 -187.039,95.715 48.754,0.324 235.793,-95.387 -187.039,95.715 48.754,0.324 235.793,-95.39 -187.043,95.715 48.75,0.325 235.793,-95.391 -187.039,95.714 48.754,0.324"
           style="fill:none;stroke:#000000;stroke-width:0.83055103;stroke-linecap:butt;stroke-linejoin:miter;stroke-miterlimit:4;stroke-dasharray:none;stroke-opacity:1"
           id="path4551"
           inkscape:connector-curvature="0" /></g><g
         id="g4553"
         transform="matrix(1,0,0,-1,0,435.25995)"><path
           d="M 73.266,275.629 2.344,315.281"
           style="fill:none;stroke:#000000;stroke-width:1.567559;stroke-linecap:butt;stroke-linejoin:miter;stroke-miterlimit:4;stroke-dasharray:none;stroke-opacity:1"
           id="path4555"
           inkscape:connector-curvature="0" /></g><g
         id="g4557"
         transform="matrix(-1,-0.55909,-0.55909,1,0,435.25995)"><path
           d="m 76.213,-235.124 -16.445,-6.05 16.445,-6.044 c -2.628,3.569 -2.613,8.453 0,12.094 z"
           style="fill:#000000;fill-opacity:1;fill-rule:evenodd;stroke:#000000;stroke-width:0.94066203;stroke-linecap:butt;stroke-linejoin:round;stroke-miterlimit:4;stroke-dasharray:none;stroke-opacity:1"
           id="path4559"
           inkscape:connector-curvature="0" /></g><g
         id="g4561"
         transform="matrix(1,0.55909,0.55909,-1,0,435.25995)"><path
           d="m -117.881,247.266 -16.444,-6.045 16.444,-6.049 c -2.625,3.571 -2.611,8.458 0,12.094 z"
           style="fill:#000000;fill-opacity:1;fill-rule:evenodd;stroke:#000000;stroke-width:0.94066203;stroke-linecap:butt;stroke-linejoin:round;stroke-miterlimit:4;stroke-dasharray:none;stroke-opacity:1"
           id="path4563"
           inkscape:connector-curvature="0" /></g><g
         id="g4565"
         transform="matrix(1,0,0,-1,0,435.25995)"><path
           d="m 410.23,282.594 -70.925,39.652"
           style="fill:none;stroke:#0000d0;stroke-width:1.567559;stroke-linecap:butt;stroke-linejoin:miter;stroke-miterlimit:4;stroke-dasharray:none;stroke-opacity:1"
           id="path4567"
           inkscape:connector-curvature="0" /></g><g
         id="g4569"
         transform="matrix(-1,-0.55909,-0.55909,1,0,435.25995)"><path
           d="m -177.539,-383.96 -16.445,-6.045 16.445,-6.048 c -2.629,3.569 -2.613,8.453 0,12.093 z"
           style="fill:#0000d0;fill-opacity:1;fill-rule:evenodd;stroke:#0000d0;stroke-width:0.94066203;stroke-linecap:butt;stroke-linejoin:round;stroke-miterlimit:4;stroke-dasharray:none;stroke-opacity:1"
           id="path4571"
           inkscape:connector-curvature="0" /></g><g
         id="g4573"
         transform="matrix(1,0.55909,0.55909,-1,0,435.25995)"><path
           d="m 135.872,396.101 -16.444,-6.045 16.444,-6.049 c -2.629,3.57 -2.613,8.454 0,12.094 z"
           style="fill:#0000d0;fill-opacity:1;fill-rule:evenodd;stroke:#0000d0;stroke-width:0.94066203;stroke-linecap:butt;stroke-linejoin:round;stroke-miterlimit:4;stroke-dasharray:none;stroke-opacity:1"
           id="path4575"
           inkscape:connector-curvature="0" /></g></g></g></svg>