<?xml version="1.0" encoding="UTF-8" standalone="no"?>
<!-- Created with Inkscape (http://www.inkscape.org/) -->

<svg
   xmlns:dc="http://purl.org/dc/elements/1.1/"
   xmlns:cc="http://creativecommons.org/ns#"
   xmlns:rdf="http://www.w3.org/1999/02/22-rdf-syntax-ns#"
   xmlns:svg="http://www.w3.org/2000/svg"
   xmlns="http://www.w3.org/2000/svg"
   xmlns:sodipodi="http://sodipodi.sourceforge.net/DTD/sodipodi-0.dtd"
   xmlns:inkscape="http://www.inkscape.org/namespaces/inkscape"
   version="1.1"
   id="svg4596"
   xml:space="preserve"
   width="920.69891"
   height="646.02106"
   viewBox="0 0 920.69891 646.02106"
   sodipodi:docname="pol_streu_vert.svg"
   inkscape:version="0.92.1 r"><metadata
     id="metadata4602"><rdf:RDF><cc:Work
         rdf:about=""><dc:format>image/svg+xml</dc:format><dc:type
           rdf:resource="http://purl.org/dc/dcmitype/StillImage" /><dc:title></dc:title></cc:Work></rdf:RDF></metadata><defs
     id="defs4600" /><sodipodi:namedview
     pagecolor="#ffffff"
     bordercolor="#666666"
     borderopacity="1"
     objecttolerance="10"
     gridtolerance="10"
     guidetolerance="10"
     inkscape:pageopacity="0"
     inkscape:pageshadow="2"
     inkscape:window-width="731"
     inkscape:window-height="484"
     id="namedview4598"
     showgrid="false"
     inkscape:zoom="0.36531317"
     inkscape:cx="460.34946"
     inkscape:cy="323.01053"
     inkscape:window-x="0"
     inkscape:window-y="0"
     inkscape:window-maximized="0"
     inkscape:current-layer="g4604" /><g
     id="g4604"
     inkscape:groupmode="layer"
     inkscape:label="pol_streu_vert"
     transform="matrix(1.3333333,0,0,-1.3333333,0,646.02108)"><g
       id="g4606"><g
         id="g4608"
         transform="matrix(1,0,0,-1,0,484.51581)"><path
           d="m 7.824,151.715 c 15.785,-166.227 31.571,166.223 47.356,0 15.785,-166.227 31.57,166.223 47.355,0 15.785,-166.227 31.57,166.223 47.352,0 15.785,-166.227 31.57,166.223 47.355,0 15.785,-166.227 31.57,166.223 47.356,0 15.785,-166.227 31.57,166.223 47.355,0 15.785,-166.227 31.567,166.223 47.352,0"
           style="fill:none;stroke:#000000;stroke-width:0.33923799;stroke-linecap:butt;stroke-linejoin:miter;stroke-miterlimit:4;stroke-dasharray:none;stroke-opacity:1"
           id="path4610"
           inkscape:connector-curvature="0" /></g><g
         id="g4612"
         transform="matrix(1,0,0,-1,0,484.51581)"><path
           d="m 427.496,23.145 c 0,12.574 -40.297,22.765 -90,22.765 -49.707,0 -90,-10.191 -90,-22.765 0,-12.575 40.293,-22.77 90,-22.77 49.703,0 90,10.195 90,22.77 z"
           style="fill:none;stroke:#000000;stroke-width:0.75;stroke-linecap:butt;stroke-linejoin:miter;stroke-miterlimit:4;stroke-dasharray:none;stroke-opacity:1"
           id="path4614"
           inkscape:connector-curvature="0" /></g><g
         id="g4616"
         transform="matrix(1,0,0,-1,0,484.51581)"><path
           d="m 427.359,263.68 c 0,12.574 -40.293,22.765 -90,22.765 -49.703,0 -90,-10.191 -90,-22.765 0,-12.575 40.297,-22.77 90,-22.77 49.707,0 90,10.195 90,22.77 z"
           style="fill:none;stroke:#000000;stroke-width:0.75;stroke-linecap:butt;stroke-linejoin:miter;stroke-miterlimit:4;stroke-dasharray:none;stroke-opacity:1"
           id="path4618"
           inkscape:connector-curvature="0" /></g><g
         id="g4620"
         transform="matrix(1,0,0,-1,0,484.51581)"><path
           d="M 247.605,22.512 V 266.09"
           style="fill:none;stroke:#000000;stroke-width:0.75;stroke-linecap:butt;stroke-linejoin:miter;stroke-miterlimit:4;stroke-dasharray:none;stroke-opacity:1"
           id="path4622"
           inkscape:connector-curvature="0" /></g><g
         id="g4624"
         transform="matrix(1,0,0,-1,0,484.51581)"><path
           d="M 427.359,22.559 V 264.055"
           style="fill:none;stroke:#000000;stroke-width:0.746786;stroke-linecap:butt;stroke-linejoin:miter;stroke-miterlimit:4;stroke-dasharray:none;stroke-opacity:1"
           id="path4626"
           inkscape:connector-curvature="0" /></g><g
         id="g4628"
         transform="matrix(1,0,0,-1,0,484.51581)"><path
           d="m 344.234,153.176 c 0,2.094 -1.418,3.789 -3.172,3.789 -1.75,0 -3.171,-1.695 -3.171,-3.789 0,-2.09 1.421,-3.785 3.171,-3.785 1.754,0 3.172,1.695 3.172,3.785 z"
           style="fill:#000000;fill-opacity:1;fill-rule:nonzero;stroke:#0000b5;stroke-width:7.83779478;stroke-linecap:butt;stroke-linejoin:miter;stroke-miterlimit:4;stroke-dasharray:none;stroke-opacity:1"
           id="path4630"
           inkscape:connector-curvature="0" /></g><g
         id="g4632"
         transform="matrix(1,0,0,-1,0,484.51581)"><path
           d="m 340.977,111.355 v 81.254"
           style="fill:none;stroke:#0000d0;stroke-width:1.567559;stroke-linecap:butt;stroke-linejoin:miter;stroke-miterlimit:4;stroke-dasharray:none;stroke-opacity:1"
           id="path4634"
           inkscape:connector-curvature="0" /></g><g
         id="g4636"
         transform="matrix(0,-1,-1,0,0,484.51581)"><path
           d="m 128.113,-334.02 -18.84,-6.929 18.84,-6.926 c -3.011,4.09 -2.992,9.684 0,13.855 z"
           style="fill:#0000d0;fill-opacity:1;fill-rule:evenodd;stroke:#0000d0;stroke-width:1.07769704;stroke-linecap:butt;stroke-linejoin:round;stroke-miterlimit:4;stroke-dasharray:none;stroke-opacity:1"
           id="path4638"
           inkscape:connector-curvature="0" /></g><g
         id="g4640"
         transform="matrix(0,1,1,0,0,484.51581)"><path
           d="m -175.852,347.934 -18.839,-6.93 18.839,-6.93 c -3.011,4.094 -2.992,9.688 0,13.86 z"
           style="fill:#0000d0;fill-opacity:1;fill-rule:evenodd;stroke:#0000d0;stroke-width:1.07769704;stroke-linecap:butt;stroke-linejoin:round;stroke-miterlimit:4;stroke-dasharray:none;stroke-opacity:1"
           id="path4642"
           inkscape:connector-curvature="0" /></g><g
         id="g4644"
         transform="matrix(1,0,0,-1,0,484.51581)"><path
           d="m 339.223,151.715 c 16.343,-166.215 32.691,166.215 49.035,0 16.347,-166.215 32.691,166.215 49.039,0 16.344,-166.215 32.691,166.215 49.035,0 16.348,-166.215 32.691,166.215 49.039,0 16.344,-166.215 32.691,166.215 49.035,0 16.348,-166.215 32.692,166.215 49.039,0 16.344,-166.215 32.692,166.215 49.035,0"
           style="fill:none;stroke:#000000;stroke-width:0.34520301;stroke-linecap:butt;stroke-linejoin:miter;stroke-miterlimit:4;stroke-dasharray:none;stroke-opacity:1"
           id="path4646"
           inkscape:connector-curvature="0" /></g><g
         id="g4648"
         transform="matrix(1,0,0,-1,0,484.51581)"><path
           d="m 683.031,114.035 v 81.254"
           style="fill:none;stroke:#000000;stroke-width:1.567559;stroke-linecap:butt;stroke-linejoin:miter;stroke-miterlimit:4;stroke-dasharray:none;stroke-opacity:1"
           id="path4650"
           inkscape:connector-curvature="0" /></g><g
         id="g4652"
         transform="matrix(0,-1,-1,0,0,484.51581)"><path
           d="m 130.793,-676.074 -18.84,-6.93 18.84,-6.926 c -3.012,4.09 -2.992,9.688 0,13.856 z"
           style="fill:#000000;fill-opacity:1;fill-rule:evenodd;stroke:#000000;stroke-width:1.07769704;stroke-linecap:butt;stroke-linejoin:round;stroke-miterlimit:4;stroke-dasharray:none;stroke-opacity:1"
           id="path4654"
           inkscape:connector-curvature="0" /></g><g
         id="g4656"
         transform="matrix(0,1,1,0,0,484.51581)"><path
           d="m -178.531,689.984 -18.84,-6.925 18.84,-6.93 c -3.008,4.09 -2.992,9.687 0,13.855 z"
           style="fill:#000000;fill-opacity:1;fill-rule:evenodd;stroke:#000000;stroke-width:1.07769704;stroke-linecap:butt;stroke-linejoin:round;stroke-miterlimit:4;stroke-dasharray:none;stroke-opacity:1"
           id="path4658"
           inkscape:connector-curvature="0" /></g><g
         id="g4660"
         transform="matrix(1,0,0,-1,0,484.51581)"><path
           d="m 7.496,110.285 v 81.254"
           style="fill:none;stroke:#000000;stroke-width:1.567559;stroke-linecap:butt;stroke-linejoin:miter;stroke-miterlimit:4;stroke-dasharray:none;stroke-opacity:1"
           id="path4662"
           inkscape:connector-curvature="0" /></g><g
         id="g4664"
         transform="matrix(0,-1,-1,0,0,484.51581)"><path
           d="m 127.043,-0.539 -18.84,-6.926 18.84,-6.93 c -3.012,4.09 -2.992,9.688 0,13.856 z"
           style="fill:#000000;fill-opacity:1;fill-rule:evenodd;stroke:#000000;stroke-width:1.07769704;stroke-linecap:butt;stroke-linejoin:round;stroke-miterlimit:4;stroke-dasharray:none;stroke-opacity:1"
           id="path4666"
           inkscape:connector-curvature="0" /></g><g
         id="g4668"
         transform="matrix(0,1,1,0,0,484.51581)"><path
           d="m -174.781,14.449 -18.84,-6.926 18.84,-6.929 c -3.008,4.09 -2.992,9.687 0,13.855 z"
           style="fill:#000000;fill-opacity:1;fill-rule:evenodd;stroke:#000000;stroke-width:1.07769704;stroke-linecap:butt;stroke-linejoin:round;stroke-miterlimit:4;stroke-dasharray:none;stroke-opacity:1"
           id="path4670"
           inkscape:connector-curvature="0" /></g><g
         id="g4672"
         transform="matrix(1,0,0,-1,0,484.51581)"><path
           d="m 149.898,444.094 c 15.68,-182.938 11.375,141.168 27.051,-41.77 15.68,-182.937 11.375,141.168 27.055,-41.769 15.676,-182.934 11.371,141.168 27.051,-41.766 15.679,-182.937 11.375,141.164 27.05,-41.769 15.68,-182.938 11.375,141.168 27.055,-41.77 15.676,-182.934 11.371,141.168 27.051,-41.766 15.676,-182.937 11.371,141.164 27.051,-41.769"
           style="fill:none;stroke:#d7b800;stroke-width:1.38330698;stroke-linecap:butt;stroke-linejoin:miter;stroke-miterlimit:4;stroke-dasharray:none;stroke-opacity:1"
           id="path4674"
           inkscape:connector-curvature="0" /></g><g
         id="g4676"
         transform="matrix(1,0,0,-1,0,484.51581)"><path
           d="m 149.996,400.641 v 81.254"
           style="fill:none;stroke:#d6b900;stroke-width:1.567559;stroke-linecap:butt;stroke-linejoin:miter;stroke-miterlimit:4;stroke-dasharray:none;stroke-opacity:1"
           id="path4678"
           inkscape:connector-curvature="0" /></g><g
         id="g4680"
         transform="matrix(0,-1,-1,0,0,484.51581)"><path
           d="m 417.398,-143.039 -18.839,-6.926 18.839,-6.93 c -3.011,4.09 -2.992,9.688 0,13.856 z"
           style="fill:#d6b900;fill-opacity:1;fill-rule:evenodd;stroke:#d6b900;stroke-width:1.07769704;stroke-linecap:butt;stroke-linejoin:round;stroke-miterlimit:4;stroke-dasharray:none;stroke-opacity:1"
           id="path4682"
           inkscape:connector-curvature="0" /></g><g
         id="g4684"
         transform="matrix(0,1,1,0,0,484.51581)"><path
           d="m -465.137,156.949 -18.84,-6.926 18.84,-6.929 c -3.011,4.09 -2.992,9.687 0,13.855 z"
           style="fill:#d6b900;fill-opacity:1;fill-rule:evenodd;stroke:#d6b900;stroke-width:1.07769704;stroke-linecap:butt;stroke-linejoin:round;stroke-miterlimit:4;stroke-dasharray:none;stroke-opacity:1"
           id="path4686"
           inkscape:connector-curvature="0" /></g></g></g></svg>