<?xml version="1.0" encoding="UTF-8" standalone="no"?>
<!-- Created with Inkscape (http://www.inkscape.org/) -->

<svg
   xmlns:dc="http://purl.org/dc/elements/1.1/"
   xmlns:cc="http://creativecommons.org/ns#"
   xmlns:rdf="http://www.w3.org/1999/02/22-rdf-syntax-ns#"
   xmlns:svg="http://www.w3.org/2000/svg"
   xmlns="http://www.w3.org/2000/svg"
   xmlns:sodipodi="http://sodipodi.sourceforge.net/DTD/sodipodi-0.dtd"
   xmlns:inkscape="http://www.inkscape.org/namespaces/inkscape"
   version="1.0"
   width="353.65308"
   height="151.83128"
   id="svg4827"
   sodipodi:docname="newtons-rings.svg"
   inkscape:version="0.92.1 r">
  <sodipodi:namedview
     pagecolor="#ffffff"
     bordercolor="#666666"
     borderopacity="1"
     objecttolerance="10"
     gridtolerance="10"
     guidetolerance="10"
     inkscape:pageopacity="0"
     inkscape:pageshadow="2"
     inkscape:window-width="1920"
     inkscape:window-height="1033"
     id="namedview9"
     showgrid="false"
     inkscape:object-paths="true"
     inkscape:zoom="2.0000001"
     inkscape:cx="289.08515"
     inkscape:cy="20.670617"
     inkscape:window-x="0"
     inkscape:window-y="0"
     inkscape:window-maximized="1"
     inkscape:current-layer="svg4827"
     inkscape:snap-object-midpoints="false"
     inkscape:snap-intersection-paths="true"
     fit-margin-top="0"
     fit-margin-left="60"
     fit-margin-right="0"
     fit-margin-bottom="0" />
  <metadata
     id="metadata11">
    <rdf:RDF>
      <cc:Work
         rdf:about="">
        <dc:format>image/svg+xml</dc:format>
        <dc:type
           rdf:resource="http://purl.org/dc/dcmitype/StillImage" />
        <dc:title></dc:title>
      </cc:Work>
    </rdf:RDF>
  </metadata>
  <defs
     id="defs4829">
    <marker
       inkscape:stockid="TriangleInM"
       orient="auto"
       refY="0"
       refX="0"
       id="marker5129"
       style="overflow:visible"
       inkscape:isstock="true">
      <path
         id="path5127"
         d="M 5.77,0 -2.88,5 V -5 Z"
         style="fill:#000000;fill-opacity:1;fill-rule:evenodd;stroke:#000000;stroke-width:1.00000003pt;stroke-opacity:1"
         transform="scale(-0.4)"
         inkscape:connector-curvature="0" />
    </marker>
    <marker
       inkscape:stockid="TriangleOutM"
       orient="auto"
       refY="0"
       refX="0"
       id="marker4999"
       style="overflow:visible"
       inkscape:isstock="true">
      <path
         id="path4997"
         d="M 5.77,0 -2.88,5 V -5 Z"
         style="fill:#000000;fill-opacity:1;fill-rule:evenodd;stroke:#000000;stroke-width:1.00000003pt;stroke-opacity:1"
         transform="scale(0.4)"
         inkscape:connector-curvature="0" />
    </marker>
    <marker
       inkscape:stockid="Arrow1Lstart"
       orient="auto"
       refY="0"
       refX="0"
       id="Arrow1Lstart"
       style="overflow:visible"
       inkscape:isstock="true">
      <path
         id="path4587"
         d="M 0,0 5,-5 -12.5,0 5,5 Z"
         style="fill:#000000;fill-opacity:1;fill-rule:evenodd;stroke:#000000;stroke-width:1.00000003pt;stroke-opacity:1"
         transform="matrix(0.8,0,0,0.8,10,0)"
         inkscape:connector-curvature="0" />
    </marker>
    <marker
       inkscape:stockid="Arrow1Mstart"
       orient="auto"
       refY="0"
       refX="0"
       id="Arrow1Mstart"
       style="overflow:visible"
       inkscape:isstock="true">
      <path
         id="path4593"
         d="M 0,0 5,-5 -12.5,0 5,5 Z"
         style="fill:#000000;fill-opacity:1;fill-rule:evenodd;stroke:#000000;stroke-width:1.00000003pt;stroke-opacity:1"
         transform="matrix(0.4,0,0,0.4,4,0)"
         inkscape:connector-curvature="0" />
    </marker>
    <marker
       inkscape:isstock="true"
       style="overflow:visible"
       id="TriangleOutM"
       refX="0"
       refY="0"
       orient="auto"
       inkscape:stockid="TriangleOutM"
       inkscape:collect="always">
      <path
         inkscape:connector-curvature="0"
         transform="scale(0.4)"
         style="fill:#000000;fill-opacity:1;fill-rule:evenodd;stroke:#000000;stroke-width:1.00000003pt;stroke-opacity:1"
         d="M 5.77,0 -2.88,5 V -5 Z"
         id="path4789" />
    </marker>
    <marker
       inkscape:isstock="true"
       style="overflow:visible"
       id="TriangleInM"
       refX="0"
       refY="0"
       orient="auto"
       inkscape:stockid="TriangleInM"
       inkscape:collect="always">
      <path
         inkscape:connector-curvature="0"
         transform="scale(-0.4)"
         style="fill:#000000;fill-opacity:1;fill-rule:evenodd;stroke:#000000;stroke-width:1.00000003pt;stroke-opacity:1"
         d="M 5.77,0 -2.88,5 V -5 Z"
         id="path4780" />
    </marker>
    <marker
       inkscape:isstock="true"
       style="overflow:visible"
       id="TriangleInS"
       refX="0"
       refY="0"
       orient="auto"
       inkscape:stockid="TriangleInS">
      <path
         inkscape:connector-curvature="0"
         transform="scale(-0.2)"
         style="fill:#000000;fill-opacity:1;fill-rule:evenodd;stroke:#000000;stroke-width:1.00000003pt;stroke-opacity:1"
         d="M 5.77,0 -2.88,5 V -5 Z"
         id="path4783" />
    </marker>
    <marker
       inkscape:isstock="true"
       style="overflow:visible"
       id="Arrow2Lstart"
       refX="0"
       refY="0"
       orient="auto"
       inkscape:stockid="Arrow2Lstart">
      <path
         inkscape:connector-curvature="0"
         transform="matrix(1.1,0,0,1.1,1.1,0)"
         d="M 8.7185878,4.0337352 -2.2072895,0.01601326 8.7185884,-4.0017078 c -1.7454984,2.3720609 -1.7354408,5.6174519 -6e-7,8.035443 z"
         style="fill:#000000;fill-opacity:1;fill-rule:evenodd;stroke:#000000;stroke-width:0.625;stroke-linejoin:round;stroke-opacity:1"
         id="path4662" />
    </marker>
    <marker
       inkscape:isstock="true"
       style="overflow:visible"
       id="TriangleInL"
       refX="0"
       refY="0"
       orient="auto"
       inkscape:stockid="TriangleInL">
      <path
         inkscape:connector-curvature="0"
         transform="scale(-0.8)"
         style="fill:#000000;fill-opacity:1;fill-rule:evenodd;stroke:#000000;stroke-width:1.00000003pt;stroke-opacity:1"
         d="M 5.77,0 -2.88,5 V -5 Z"
         id="path4777" />
    </marker>
    <marker
       inkscape:stockid="TriangleInM"
       orient="auto"
       refY="0"
       refX="0"
       id="marker5129-3"
       style="overflow:visible"
       inkscape:isstock="true">
      <path
         id="path5127-6"
         d="M 5.77,0 -2.88,5 V -5 Z"
         style="fill:#000000;fill-opacity:1;fill-rule:evenodd;stroke:#000000;stroke-width:1.00000003pt;stroke-opacity:1"
         transform="scale(-0.4)"
         inkscape:connector-curvature="0" />
    </marker>
    <marker
       inkscape:stockid="TriangleInM"
       orient="auto"
       refY="0"
       refX="0"
       id="marker5129-5"
       style="overflow:visible"
       inkscape:isstock="true">
      <path
         id="path5127-3"
         d="M 5.77,0 -2.88,5 V -5 Z"
         style="fill:#000000;fill-opacity:1;fill-rule:evenodd;stroke:#000000;stroke-width:1.00000003pt;stroke-opacity:1"
         transform="scale(-0.4)"
         inkscape:connector-curvature="0" />
    </marker>
  </defs>
  <path
     inkscape:connector-curvature="0"
     style="opacity:1;fill:#999999;fill-opacity:1;stroke:#000000;stroke-width:1;stroke-linecap:round;stroke-linejoin:miter;stroke-miterlimit:4;stroke-dasharray:none;stroke-dashoffset:0;stroke-opacity:1"
     d="m 60.5,103.33128 v 48.00001 h 24 v -12 h -12 v -24.00001 h 12 v -12 z"
     id="path4494" />
  <path
     inkscape:connector-curvature="0"
     style="opacity:1;fill:#999999;fill-opacity:1;stroke:#000000;stroke-width:1;stroke-linecap:round;stroke-linejoin:miter;stroke-miterlimit:4;stroke-dasharray:none;stroke-dashoffset:0;stroke-opacity:1"
     d="m 264.5,103.33128 v 12 h 12 v 24.00001 h -12 v 12 h 24 v -48.00001 z"
     id="rect4845" />
  <rect
     id="rect4849"
     style="opacity:1;fill:none;fill-opacity:0.75294118;stroke:#000000;stroke-width:1;stroke-linecap:round;stroke-linejoin:miter;stroke-miterlimit:4;stroke-dasharray:none;stroke-dashoffset:0;stroke-opacity:1"
     y="115.33128"
     x="72.5"
     height="24"
     width="204" />
  <rect
     id="rect4855"
     style="opacity:1;fill:none;fill-opacity:0.75294118;stroke:#000000;stroke-width:1;stroke-linecap:round;stroke-linejoin:miter;stroke-miterlimit:4;stroke-dasharray:none;stroke-dashoffset:0;stroke-opacity:1"
     y="127.33128"
     x="78.500008"
     height="12"
     width="193" />
  <path
     inkscape:connector-curvature="0"
     id="path4857"
     style="fill:none;fill-rule:evenodd;stroke:#000000;stroke-width:1px;stroke-linecap:butt;stroke-linejoin:miter;stroke-opacity:1"
     d="m 77.93689,115.26094 c 0,5.0502 32.63079,12.01598 96.56311,12.01598 64.10638,0 96.56311,-6.95378 96.56311,-12.01598" />
  <g
     transform="translate(68,140.58129)"
     id="g4601">
    <path
       sodipodi:nodetypes="cc"
       inkscape:connector-curvature="0"
       id="path4541"
       d="m 211.23972,-120.81705 v 56.978674"
       style="fill:#ccff00;stroke:#dbff2b;stroke-width:15.05375481;stroke-linecap:butt;stroke-linejoin:miter;stroke-miterlimit:4;stroke-dasharray:none;stroke-opacity:0.82564105" />
  </g>
  <path
     sodipodi:nodetypes="ccccccccsccccccccccccccccccccccccccccsccccccsccccccsccccccccccsccc"
     inkscape:connector-curvature="0"
     style="fill:none;fill-opacity:1;stroke:#000000;stroke-width:1.39999998;stroke-linecap:butt;stroke-miterlimit:4;stroke-dasharray:none;stroke-opacity:0.82564105"
     d="m 274.55578,76.742914 c 6e-5,-0.608988 0.11059,-0.577351 0.42831,-0.866027 0.31773,-0.288676 0.93636,-0.577351 1.73709,-0.866027 0.80072,-0.288676 1.78028,-0.577351 2.75214,-0.866027 0.97187,-0.288676 1.93085,-0.577352 2.69536,-0.866026 0.7645,-0.28868 1.32942,-0.57735 1.58882,-0.86603 0.2594,-0.28867 0.21025,-0.57735 -0.13648,-0.86603 -0.34673,-0.28867 -0.99081,-0.57735 -1.80863,-0.86602 -0.81783,-0.28868 -1.80599,-0.57735 -2.7764,-0.86603 -0.97041,-0.28868 -1.91781,-0.57735 -2.66287,-0.86603 -0.74506,-0.28867 -1.28272,-0.57735 -1.51226,-0.86602 -0.22954,-0.28868 -0.14806,-0.57736 0.22732,-0.86603 0.37537,-0.28868 1.04426,-0.57735 1.87836,-0.86603 0.8341,-0.28867 1.82988,-0.57735 2.79785,-0.86603 0.96798,-0.28867 1.90284,-0.57735 2.62771,-0.86602 0.72486,-0.28868 1.23472,-0.57736 1.43416,-0.86603 0.19945,-0.28868 0.0857,-0.57735 -0.31792,-0.86603 -0.40365,-0.28867 -1.09665,-0.57735 -1.94619,-0.86603 -0.84953,-0.28867 -1.85193,-0.57735 -2.8165,-0.86602 -0.96456,-0.28868 -1.88596,-0.57735 -2.58989,-0.86603 -0.70394,-0.28868 -1.18548,-0.57735 -1.35463,-0.86603 -0.16915,-0.28867 -0.0233,-0.57735 0.4082,-0.86602 0.43152,-0.28868 1.14795,-0.57736 2.01207,-0.86603 0.86411,-0.28868 1.87212,-0.57735 2.8323,-0.86603 0.96018,-0.28867 1.86718,-0.57735 2.54948,-0.86603 0.68229,-0.28867 1.13504,-0.57735 1.27373,-0.86602 0.13868,-0.28868 -0.0391,-0.57735 -0.49808,-0.86603 -0.45894,-0.28868 -1.19809,-0.57735 -2.07591,-0.86603 -0.87783,-0.28867 -1.89042,-0.57735 -2.84526,-0.86602 -0.95483,-0.28868 -1.84652,-0.57736 -2.50649,-0.86603 -0.65997,-0.28868 -1.08347,-0.57735 -1.19155,-0.86603 -0.10808,-0.28867 0.10155,-0.57735 0.58746,-0.86603 0.4859,-0.28867 1.24701,-0.57735 2.13766,-0.86602 0.89065,-0.28868 1.90682,-0.57735 2.85535,-0.86603 0.94852,-0.28868 1.82399,-0.57735 2.46098,-0.86603 0.63698,-0.28867 1.0308,-0.57735 1.10816,-0.86603 0.0774,-0.28867 -0.16385,-0.57735 -0.67623,-0.86602 -0.51238,-0.28868 -1.29469,-0.57735 -2.19727,-0.86603 -0.90258,-0.28868 -1.9213,-0.57735 -2.86256,-0.86603 -0.94126,-0.28867 -1.79964,-0.57735 -2.41299,-0.86602 -0.61336,-0.28868 -0.9771,-0.57736 -1.02367,-0.86603 -0.0466,-0.28868 0.22599,-0.57735 0.76433,-0.86603 0.53835,-0.28867 1.34106,-0.57735 2.25467,-0.866027 0.9136,-0.28867 1.93384,-0.57735 2.86688,-0.86602 0.93305,-0.28868 1.77347,-0.57735 2.36258,-0.86603 0.58911,-0.28868 0.92241,-0.57735 0.93814,-0.86603 0.0157,-0.28867 -0.2879,-0.57735 -0.85166,-0.86602 -0.56377,-0.28868 -1.38608,-0.57736 -2.30979,-0.86603 -0.9237,-0.28868 -1.94443,-0.57735 -2.86833,-0.86603 -0.9239,-0.28867 -1.74551,-0.57735 -2.30978,-0.86603 -0.56427,-0.28867 -0.86679,-0.57735 -0.85167,-0.86602 0.0151,-0.28868 0.34952,-0.57735 0.93814,-0.86603 0.58862,-0.28868 1.4297,-0.57735 2.36258,-0.86603 0.93287,-0.28867 1.95307,-0.57735 2.86689,-0.86602 0.91381,-0.28868 1.7158,-0.57736 2.25466,-0.86603 0.53886,-0.28868 0.81029,-0.57735 0.76433,-0.86603 -0.046,-0.28867 -0.41079,-0.57735 -1.02366,-0.86603 -0.61288,-0.28867 -1.47189,-0.57735 -2.413,-0.86602 -0.9411,-0.28868 -1.95974,-0.57736 -2.86256,-0.86603 -0.90281,-0.28868 -1.68436,-0.57735 -2.19727,-0.86603 -0.51291,-0.28867 -0.75298,-0.57735 -0.67623,-0.86603 0.0767,-0.28867 0.47165,-0.57735 1.10816,-0.86602 0.63652,-0.28868 1.5126,-0.57735 2.46099,-0.86603 0.94839,-0.28868 1.96444,-0.57735 2.85534,-0.86603 0.8909,-0.28867 1.65123,-0.57735 2.13767,-0.86602 0.48644,-0.28868 0.69492,-0.57736 0.58745,-0.86603"
     title="sin(x)"
     id="path4564" />
  <path
     sodipodi:nodetypes="cc"
     style="fill:#ccff00;stroke:#dbff2b;stroke-width:15.05375481;stroke-linecap:butt;stroke-linejoin:miter;stroke-miterlimit:4;stroke-dasharray:none;stroke-opacity:0.82564105"
     d="M 295.53267,20.03393 V 76.742914"
     id="path4546"
     inkscape:connector-curvature="0" />
  <path
     sodipodi:nodetypes="ccccccccsccccccccccccccccccccccccccccsccccccsccccccsccccccccccsccc"
     inkscape:connector-curvature="0"
     style="fill:none;fill-opacity:1;stroke:#000000;stroke-width:1.39999998;stroke-linecap:butt;stroke-miterlimit:4;stroke-dasharray:none;stroke-opacity:0.82564105"
     d="m 300.21661,76.742914 c -6e-5,-0.608988 -0.11059,-0.577351 -0.42831,-0.866027 -0.31773,-0.288676 -0.93636,-0.577351 -1.73709,-0.866027 -0.80072,-0.288676 -1.78028,-0.577351 -2.75214,-0.866027 -0.97187,-0.288676 -1.93085,-0.577352 -2.69536,-0.866026 -0.7645,-0.28868 -1.32942,-0.57735 -1.58882,-0.86603 -0.2594,-0.28867 -0.21025,-0.57735 0.13648,-0.86603 0.34673,-0.28867 0.99081,-0.57735 1.80863,-0.86602 0.81783,-0.28868 1.80599,-0.57735 2.7764,-0.86603 0.97041,-0.28868 1.91781,-0.57735 2.66287,-0.86603 0.74506,-0.28867 1.28272,-0.57735 1.51226,-0.86602 0.22954,-0.28868 0.14806,-0.57736 -0.22732,-0.86603 -0.37537,-0.28868 -1.04426,-0.57735 -1.87836,-0.86603 -0.8341,-0.28867 -1.82988,-0.57735 -2.79785,-0.86603 -0.96798,-0.28867 -1.90284,-0.57735 -2.62771,-0.86602 -0.72486,-0.28868 -1.23472,-0.57736 -1.43416,-0.86603 -0.19945,-0.28868 -0.0857,-0.57735 0.31792,-0.86603 0.40365,-0.28867 1.09665,-0.57735 1.94619,-0.86603 0.84953,-0.28867 1.85193,-0.57735 2.8165,-0.86602 0.96456,-0.28868 1.88596,-0.57735 2.58989,-0.86603 0.70394,-0.28868 1.18548,-0.57735 1.35463,-0.86603 0.16915,-0.28867 0.0233,-0.57735 -0.4082,-0.86602 -0.43152,-0.28868 -1.14795,-0.57736 -2.01207,-0.86603 -0.86411,-0.28868 -1.87212,-0.57735 -2.8323,-0.86603 -0.96018,-0.28867 -1.86718,-0.57735 -2.54948,-0.86603 -0.68229,-0.28867 -1.13504,-0.57735 -1.27373,-0.86602 -0.13868,-0.28868 0.0391,-0.57735 0.49808,-0.86603 0.45894,-0.28868 1.19809,-0.57735 2.07591,-0.86603 0.87783,-0.28867 1.89042,-0.57735 2.84526,-0.86602 0.95483,-0.28868 1.84652,-0.57736 2.50649,-0.86603 0.65997,-0.28868 1.08347,-0.57735 1.19155,-0.86603 0.10808,-0.28867 -0.10155,-0.57735 -0.58746,-0.86603 -0.4859,-0.28867 -1.24701,-0.57735 -2.13766,-0.86602 -0.89065,-0.28868 -1.90682,-0.57735 -2.85535,-0.86603 -0.94852,-0.28868 -1.82399,-0.57735 -2.46098,-0.86603 -0.63698,-0.28867 -1.0308,-0.57735 -1.10816,-0.86603 -0.0774,-0.28867 0.16385,-0.57735 0.67623,-0.86602 0.51238,-0.28868 1.29469,-0.57735 2.19727,-0.86603 0.90258,-0.28868 1.9213,-0.57735 2.86256,-0.86603 0.94126,-0.28867 1.79964,-0.57735 2.41299,-0.86602 0.61336,-0.28868 0.9771,-0.57736 1.02367,-0.86603 0.0466,-0.28868 -0.22599,-0.57735 -0.76433,-0.86603 -0.53835,-0.28867 -1.34106,-0.57735 -2.25467,-0.866027 -0.9136,-0.28867 -1.93384,-0.57735 -2.86688,-0.86602 -0.93305,-0.28868 -1.77347,-0.57735 -2.36258,-0.86603 -0.58911,-0.28868 -0.92241,-0.57735 -0.93814,-0.86603 -0.0157,-0.28867 0.2879,-0.57735 0.85166,-0.86602 0.56377,-0.28868 1.38608,-0.57736 2.30979,-0.86603 0.9237,-0.28868 1.94443,-0.57735 2.86833,-0.86603 0.9239,-0.28867 1.74551,-0.57735 2.30978,-0.86603 0.56427,-0.28867 0.86679,-0.57735 0.85167,-0.86602 -0.0151,-0.28868 -0.34952,-0.57735 -0.93814,-0.86603 -0.58862,-0.28868 -1.4297,-0.57735 -2.36258,-0.86603 -0.93287,-0.28867 -1.95307,-0.57735 -2.86689,-0.86602 -0.91381,-0.28868 -1.7158,-0.57736 -2.25466,-0.86603 -0.53886,-0.28868 -0.81029,-0.57735 -0.76433,-0.86603 0.046,-0.28867 0.41079,-0.57735 1.02366,-0.86603 0.61288,-0.28867 1.47189,-0.57735 2.413,-0.86602 0.9411,-0.28868 1.95974,-0.57736 2.86256,-0.86603 0.90281,-0.28868 1.68436,-0.57735 2.19727,-0.86603 0.51291,-0.28867 0.75298,-0.57735 0.67623,-0.86603 -0.0767,-0.28867 -0.47165,-0.57735 -1.10816,-0.86602 -0.63652,-0.28868 -1.5126,-0.57735 -2.46099,-0.86603 -0.94839,-0.28868 -1.96444,-0.57735 -2.85534,-0.86603 -0.8909,-0.28867 -1.65123,-0.57735 -2.13767,-0.86602 -0.48644,-0.28868 -0.69492,-0.57736 -0.58745,-0.86603"
     title="sin(x)"
     id="path4564-3" />
  <path
     sodipodi:nodetypes="cc"
     style="fill:#ccff00;stroke:#dbff2b;stroke-width:15.45829105;stroke-linecap:butt;stroke-linejoin:miter;stroke-miterlimit:4;stroke-dasharray:none;stroke-opacity:0.82564105"
     d="M 312.03656,20.0061 V 41.138078"
     id="path4548"
     inkscape:connector-curvature="0" />
  <path
     sodipodi:nodetypes="ccccccccscccccccccccccccc"
     inkscape:connector-curvature="0"
     style="fill:none;fill-opacity:1;stroke:#000000;stroke-width:1.39999998;stroke-linecap:butt;stroke-miterlimit:4;stroke-dasharray:none;stroke-opacity:0.82564105"
     d="m 316.7205,40.827402 c -6e-5,-0.608992 -0.11059,-0.577352 -0.42831,-0.866032 -0.31773,-0.28867 -0.93636,-0.57735 -1.73709,-0.86602 -0.80072,-0.28868 -1.78028,-0.57736 -2.75214,-0.86603 -0.97187,-0.28868 -1.93085,-0.57735 -2.69536,-0.86603 -0.7645,-0.28868 -1.32942,-0.57735 -1.58882,-0.86603 -0.2594,-0.28867 -0.21025,-0.57735 0.13648,-0.86603 0.34673,-0.28867 0.99081,-0.57735 1.80863,-0.86602 0.81783,-0.28868 1.80599,-0.57735 2.7764,-0.86603 0.97041,-0.28868 1.91781,-0.57735 2.66287,-0.86603 0.74506,-0.28867 1.28272,-0.57735 1.51226,-0.86602 0.22954,-0.28868 0.14806,-0.57736 -0.22732,-0.86603 -0.37537,-0.28868 -1.04426,-0.57735 -1.87836,-0.86603 -0.8341,-0.28867 -1.82988,-0.57735 -2.79785,-0.86603 -0.96798,-0.28867 -1.90284,-0.57735 -2.62771,-0.86602 -0.72486,-0.28868 -1.23472,-0.57736 -1.43416,-0.86603 -0.19945,-0.28868 -0.0857,-0.57735 0.31792,-0.86603 0.40365,-0.28867 1.09665,-0.57735 1.94619,-0.86603 0.84953,-0.28867 1.85193,-0.57735 2.8165,-0.86602 0.96456,-0.28868 1.88596,-0.57735 2.58989,-0.86603 0.70394,-0.28868 1.18548,-0.57735 1.35463,-0.86603 0.16915,-0.28867 0.0233,-0.57735 -0.4082,-0.86602 -0.43152,-0.28868 -1.14795,-0.57736 -2.01207,-0.86603 -0.86411,-0.28868 -1.87212,-0.57735 -2.8323,-0.86603 -0.96018,-0.28867 -1.86718,-0.57735 -2.54948,-0.86603"
     title="sin(x)"
     id="path4564-5" />
  <path
     sodipodi:nodetypes="ccccccccc"
     inkscape:connector-curvature="0"
     id="path4528"
     d="M 249.7168,27.25121 V 45.075431 C 290.31632,42.92229 324.41316,40.41271 352,37.72582 V 27.25121 M 249.70703,76.743399 V 91.55004 H 352 V 76.743399 Z"
     style="fill:none;stroke:#505050;stroke-width:1.65614951;stroke-linecap:butt;stroke-linejoin:miter;stroke-miterlimit:4;stroke-dasharray:none;stroke-opacity:0.71794876" />
  <g
     transform="matrix(1,0,0,0.95865569,12.489516,139.07851)"
     id="g6838">
    <path
       style="fill:none;stroke:#000000;stroke-width:1.00550163px;stroke-linecap:butt;stroke-linejoin:miter;stroke-opacity:1;marker-start:url(#TriangleInM);marker-end:url(#TriangleOutM)"
       d="m 318.5145,-98.12371 v 28.77508"
       id="path4642"
       inkscape:connector-curvature="0" />
    <path
       style="fill:none;stroke:#000000;stroke-width:0.94408917px;stroke-linecap:butt;stroke-linejoin:miter;stroke-opacity:1"
       d="m 314.89058,-101.40143 c 7.24785,0 7.24785,0 7.24785,0"
       id="path5306"
       inkscape:connector-curvature="0" />
    <path
       style="fill:none;stroke:#000000;stroke-width:0.94408917px;stroke-linecap:butt;stroke-linejoin:miter;stroke-opacity:1"
       d="m 314.89058,-66.0019 c 7.24785,0 7.24785,0 7.24785,0"
       id="path5306-6"
       inkscape:connector-curvature="0" />
  </g>
  <path
     inkscape:connector-curvature="0"
     d="M 231.18535,133.83129 352,91.550026 M 211.09435,120.8141 249.33397,1.4274975 M 211.09435,120.8141 h 20.09099 v 13.01719 h -20.09099 z"
     style="fill:none;stroke:#6f6f6f;stroke-width:1px;stroke-linecap:butt;stroke-linejoin:miter;stroke-opacity:1"
     id="path4626"
     sodipodi:nodetypes="ccccccccc" />
  <g
     id="g5709"
     transform="matrix(1.3829292,0,0,1.3829292,55.818453,-212.30675)">
    <g
       word-spacing="normal"
       letter-spacing="normal"
       font-size-adjust="none"
       font-stretch="normal"
       font-weight="normal"
       font-variant="normal"
       font-style="normal"
       stroke-miterlimit="10.433"
       xml:space="preserve"
       transform="matrix(0.19048783,0,0,-0.19048783,-33.33537,265.125)"
       id="g5707"
       style="font-style:normal;font-variant:normal;font-weight:normal;font-stretch:normal;letter-spacing:normal;word-spacing:normal;text-anchor:start;fill:none;fill-opacity:1;fill-rule:evenodd;stroke:#000000;stroke-linecap:butt;stroke-linejoin:miter;stroke-miterlimit:10.43299961;stroke-dasharray:none;stroke-dashoffset:0;stroke-opacity:1"><path
         id="path5705"
         d="m 1252.8,380.47 v 0.01 0 0.01 0.01 0.01 0.01 0.02 0.02 0.02 0.02 0.02 0.02 0.03 0.02 0.02 0.03 l -0.1,0.02 v 0.03 0.02 0.03 0.02 0.01 l -0.1,0.01 v 0.01 0.01 0.01 0.01 0.01 l -0.1,0.01 v 0.01 0.01 0.01 0 0.01 l -0.1,0.01 v 0 0.01 0 l -0.1,0.01 v 0 0 0.01 h -0.1 v 0 0 c -0.8,0 -5.5,-0.45 -6.3,-0.55 -0.5,-0.04 -0.7,-0.29 -0.7,-0.95 0,-0.59 0.4,-0.59 1.2,-0.59 2.4,0 2.4,-0.35 2.4,-0.85 l -0.1,-1 -3,-11.81 c -0.9,1.84 -2.3,3.19 -4.6,3.19 l 0.1,-1.1 c 3.2,0 3.9,-4.07 3.9,-4.37 0,-0.31 -0.1,-0.61 -0.1,-0.86 l -2.5,-9.77 c -0.3,-0.89 -0.3,-0.98 -1,-1.84 -2.2,-2.73 -4.3,-3.53 -5.7,-3.53 -2.4,0 -3.1,2.73 -3.1,4.69 0,2.48 1.5,8.61 2.7,10.9 1.5,2.94 3.8,4.78 5.8,4.78 l -0.1,1.1 c -5.8,0 -12,-7.32 -12,-14.6 0,-4.68 2.8,-7.97 6.7,-7.97 0.9,0 3.4,0.21 6.4,3.74 0.4,-2.09 2.2,-3.74 4.6,-3.74 1.7,0 2.8,1.15 3.6,2.74 0.9,1.8 1.5,4.84 1.5,4.94 0,0.5 -0.4,0.5 -0.6,0.5 -0.5,0 -0.5,-0.21 -0.7,-0.91 -0.8,-3.23 -1.7,-6.17 -3.7,-6.17 -1.4,0 -1.5,1.3 -1.5,2.3 0,1.18 0,1.54 0.3,2.39 z"
         inkscape:connector-curvature="0"
         style="fill:#000000;stroke-width:0" /></g>  </g>
  <path
     style="fill:none;stroke:#000000;stroke-width:0.99405968px;stroke-linecap:butt;stroke-linejoin:miter;stroke-opacity:1;marker-start:url(#marker5129)"
     d="m 279.22509,10.020814 c 0,7.330133 0,7.330133 0,7.330133"
     id="path4543"
     inkscape:connector-curvature="0" />
  <path
     style="fill:none;stroke:#000000;stroke-width:0.99405968px;stroke-linecap:butt;stroke-linejoin:miter;stroke-opacity:1;marker-start:url(#marker5129-3)"
     d="m 312.05286,10.020814 c 0,7.330134 0,7.330134 0,7.330134"
     id="path4543-7"
     inkscape:connector-curvature="0" />
  <path
     style="fill:none;stroke:#000000;stroke-width:0.99405968px;stroke-linecap:butt;stroke-linejoin:miter;stroke-opacity:1;marker-start:url(#marker5129-5)"
     d="m 295.53258,14.546241 c 0,-7.3301335 0,-7.3301335 0,-7.3301335"
     id="path4543-5"
     inkscape:connector-curvature="0" />
  <rect
     y="1.4274974"
     x="249.33397"
     height="90.348122"
     width="102.89161"
     id="rect4583"
     style="fill:none;fill-opacity:1;stroke:#000000;stroke-width:2.85499477;stroke-linecap:square;stroke-miterlimit:4;stroke-dasharray:none;stroke-opacity:0.98974358" />
</svg>
