<?xml version="1.0" encoding="UTF-8" standalone="no"?>
<!-- Created with Inkscape (http://www.inkscape.org/) -->

<svg
   xmlns:dc="http://purl.org/dc/elements/1.1/"
   xmlns:cc="http://creativecommons.org/ns#"
   xmlns:rdf="http://www.w3.org/1999/02/22-rdf-syntax-ns#"
   xmlns:svg="http://www.w3.org/2000/svg"
   xmlns="http://www.w3.org/2000/svg"
   xmlns:sodipodi="http://sodipodi.sourceforge.net/DTD/sodipodi-0.dtd"
   xmlns:inkscape="http://www.inkscape.org/namespaces/inkscape"
   version="1.1"
   id="svg2"
   xml:space="preserve"
   width="287.48459"
   height="173.59781"
   viewBox="0 0 287.48459 173.59781"
   sodipodi:docname="schem-int.svg"
   inkscape:version="0.92.1 r"><metadata
     id="metadata8"><rdf:RDF><cc:Work
         rdf:about=""><dc:format>image/svg+xml</dc:format><dc:type
           rdf:resource="http://purl.org/dc/dcmitype/StillImage" /><dc:title></dc:title></cc:Work></rdf:RDF></metadata><defs
     id="defs6"><clipPath
       clipPathUnits="userSpaceOnUse"
       id="clipPath116"><path
         d="M 15.8736,735.672 H 210.23 v 98.607 H 15.8736 Z"
         id="path114"
         inkscape:connector-curvature="0" /></clipPath><clipPath
       id="clipPath1396"
       clipPathUnits="userSpaceOnUse"><path
         inkscape:connector-curvature="0"
         id="path1394"
         d="M 15.6826,714.325 H 212.295 v 118.61 H 15.6826 Z" /></clipPath><clipPath
       id="clipPath4978"
       clipPathUnits="userSpaceOnUse"><path
         inkscape:connector-curvature="0"
         id="path4976"
         d="M 196.837,362.129 H 391.814 V 480.811 H 196.837 Z" /></clipPath><clipPath
       id="clipPath5692"
       clipPathUnits="userSpaceOnUse"><path
         inkscape:connector-curvature="0"
         id="path5690"
         d="M 0,0 H 1592 V 894 H 0 Z" /></clipPath></defs><sodipodi:namedview
     pagecolor="#ffffff"
     bordercolor="#666666"
     borderopacity="1"
     objecttolerance="10"
     gridtolerance="10"
     guidetolerance="10"
     inkscape:pageopacity="0"
     inkscape:pageshadow="2"
     inkscape:window-width="1920"
     inkscape:window-height="1033"
     id="namedview4"
     showgrid="false"
     fit-margin-top="0"
     fit-margin-left="0"
     fit-margin-right="0"
     fit-margin-bottom="0"
     inkscape:zoom="0.84096496"
     inkscape:cx="349.48393"
     inkscape:cy="-128.53003"
     inkscape:window-x="0"
     inkscape:window-y="0"
     inkscape:window-maximized="1"
     inkscape:current-layer="g106" /><g
     id="g10"
     inkscape:groupmode="layer"
     inkscape:label="Operationsverstaerker-Vorbereitungshilfe"
     transform="matrix(1.3333333,0,0,-1.3333333,478.04603,398.74322)"><text
       transform="matrix(1,0,0,-1,241.603,600.707)"
       style="font-variant:normal;font-weight:normal;font-size:11.9552002px;font-family:CMMI12;-inkscape-font-specification:CMMI12;writing-mode:lr-tb;fill:#000000;fill-opacity:1;fill-rule:nonzero;stroke:none"
       id="text94"><tspan
         x="0"
         y="0"
         id="tspan92">푣</tspan></text>
<g
       transform="matrix(1.16682,0,0,1.16682,182.551,477.251)"
       id="g106"><g
         clip-path="url(#clipPath4978)"
         id="g4974"
         transform="matrix(0.99680328,0,0,0.99680328,-662.79223,-629.08145)"><g
           transform="translate(306.60001,423.38)"
           id="g4980"><path
             inkscape:connector-curvature="0"
             id="path4982"
             style="fill:#000000;fill-opacity:1;fill-rule:nonzero;stroke:none"
             d="m 0,0 h -7.14 c -0.12,0 -0.24,0.12 -0.24,0.24 0,0.12 0.12,0.24 0.24,0.24 H 0 C 0.12,0.48 0.24,0.36 0.24,0.24 0.24,0.12 0.12,0 0,0" /></g><g
           transform="translate(306.36,423.62)"
           id="g4984"><path
             inkscape:connector-curvature="0"
             id="path4986"
             style="fill:#000000;fill-opacity:1;fill-rule:nonzero;stroke:none"
             d="m 0,0 v 21.54 c 0,0.12 0.12,0.24 0.24,0.24 0.12,0 0.24,-0.12 0.24,-0.24 V 0 C 0.48,-0.12 0.36,-0.24 0.24,-0.24 0.12,-0.24 0,-0.12 0,0" /></g><g
           transform="translate(306.60001,445.39999)"
           id="g4988"><path
             inkscape:connector-curvature="0"
             id="path4990"
             style="fill:#000000;fill-opacity:1;fill-rule:nonzero;stroke:none"
             d="m 0,0 h 14.4 c 0.12,0 0.24,-0.12 0.24,-0.24 0,-0.12 -0.12,-0.24 -0.24,-0.24 H 0 c -0.12,0 -0.24,0.12 -0.24,0.24 C -0.24,-0.12 -0.12,0 0,0" /></g><g
           transform="translate(308.03999,445.16)"
           id="g4992"><path
             inkscape:connector-curvature="0"
             id="path4994"
             style="fill:#000000;fill-opacity:1;fill-rule:evenodd;stroke:none"
             d="m 0,0 c 0,-0.78 -0.66,-1.44 -1.44,-1.44 -0.78,0 -1.44,0.66 -1.44,1.44 0,0.78 0.66,1.44 1.44,1.44 C -0.66,1.44 0,0.78 0,0" /></g><g
           transform="translate(308.03999,445.16)"
           id="g4996"><path
             inkscape:connector-curvature="0"
             id="path4998"
             style="fill:none;stroke:#000000;stroke-width:0.06;stroke-linecap:round;stroke-linejoin:round;stroke-miterlimit:10;stroke-dasharray:none;stroke-opacity:1"
             d="m 0,0 c 0,-0.78 -0.66,-1.44 -1.44,-1.44 -0.78,0 -1.44,0.66 -1.44,1.44 0,0.78 0.66,1.44 1.44,1.44 C -0.66,1.44 0,0.78 0,0 Z" /></g><g
           transform="translate(306.84,466.75999)"
           id="g5000"><path
             inkscape:connector-curvature="0"
             id="path5002"
             style="fill:#000000;fill-opacity:1;fill-rule:nonzero;stroke:none"
             d="m 0,0 v -21.6 c 0,-0.12 -0.12,-0.24 -0.24,-0.24 -0.12,0 -0.24,0.12 -0.24,0.24 V 0 c 0,0.12 0.12,0.24 0.24,0.24 C -0.12,0.24 0,0.12 0,0" /></g><g
           transform="translate(292.25999,467)"
           id="g5004"><path
             inkscape:connector-curvature="0"
             id="path5006"
             style="fill:#000000;fill-opacity:1;fill-rule:nonzero;stroke:none"
             d="m 0,0 h 14.34 c 0.12,0 0.24,-0.12 0.24,-0.24 0,-0.12 -0.12,-0.24 -0.24,-0.24 H 0 c -0.12,0 -0.24,0.12 -0.24,0.24 C -0.24,-0.12 -0.12,0 0,0" /></g><g
           transform="translate(306.60001,444.92)"
           id="g5008"><path
             inkscape:connector-curvature="0"
             id="path5010"
             style="fill:#000000;fill-opacity:1;fill-rule:nonzero;stroke:none"
             d="m 0,0 h -14.34 c -0.12,0 -0.24,0.12 -0.24,0.24 0,0.12 0.12,0.24 0.24,0.24 H 0 C 0.12,0.48 0.24,0.36 0.24,0.24 0.24,0.12 0.12,0 0,0" /></g><g
           transform="translate(220.32001,387.86)"
           id="g5012"><path
             inkscape:connector-curvature="0"
             id="path5014"
             style="fill:#000000;fill-opacity:1;fill-rule:nonzero;stroke:none"
             d="m 0,0 h 86.28 c 0.12,0 0.24,-0.12 0.24,-0.24 0,-0.12 -0.12,-0.24 -0.24,-0.24 H 0 c -0.12,0 -0.24,0.12 -0.24,0.24 C -0.24,-0.12 -0.12,0 0,0" /></g><g
           transform="translate(306.60001,387.86)"
           id="g5016"><path
             inkscape:connector-curvature="0"
             id="path5018"
             style="fill:#000000;fill-opacity:1;fill-rule:nonzero;stroke:none"
             d="m 0,0 h 64.8 c 0.12,0 0.24,-0.12 0.24,-0.24 0,-0.12 -0.12,-0.24 -0.24,-0.24 H 0 c -0.12,0 -0.24,0.12 -0.24,0.24 C -0.24,-0.12 -0.12,0 0,0" /></g><g
           transform="translate(371.64,387.62)"
           id="g5020"><path
             inkscape:connector-curvature="0"
             id="path5022"
             style="fill:#000000;fill-opacity:1;fill-rule:nonzero;stroke:none"
             d="m 0,0 v -7.2 c 0,-0.12 -0.12,-0.24 -0.24,-0.24 -0.12,0 -0.24,0.12 -0.24,0.24 V 0 c 0,0.12 0.12,0.24 0.24,0.24 C -0.12,0.24 0,0.12 0,0" /></g><g
           transform="translate(221.75999,387.62)"
           id="g5024"><path
             inkscape:connector-curvature="0"
             id="path5026"
             style="fill:#000000;fill-opacity:1;fill-rule:evenodd;stroke:none"
             d="m 0,0 c 0,-0.78 -0.66,-1.44 -1.44,-1.44 -0.78,0 -1.44,0.66 -1.44,1.44 0,0.78 0.66,1.44 1.44,1.44 C -0.66,1.44 0,0.78 0,0" /></g><g
           transform="translate(221.75999,387.62)"
           id="g5028"><path
             inkscape:connector-curvature="0"
             id="path5030"
             style="fill:none;stroke:#000000;stroke-width:0.06;stroke-linecap:round;stroke-linejoin:round;stroke-miterlimit:10;stroke-dasharray:none;stroke-opacity:1"
             d="m 0,0 c 0,-0.78 -0.66,-1.44 -1.44,-1.44 -0.78,0 -1.44,0.66 -1.44,1.44 0,0.78 0.66,1.44 1.44,1.44 C -0.66,1.44 0,0.78 0,0 Z" /></g><g
           transform="translate(299.46001,409.46001)"
           id="g5032"><path
             inkscape:connector-curvature="0"
             id="path5034"
             style="fill:#000000;fill-opacity:1;fill-rule:nonzero;stroke:none"
             d="m 0,0 h 7.14 c 0.12,0 0.24,-0.12 0.24,-0.24 0,-0.12 -0.12,-0.24 -0.24,-0.24 H 0 c -0.12,0 -0.24,0.12 -0.24,0.24 C -0.24,-0.12 -0.12,0 0,0" /></g><g
           transform="translate(306.84,409.22)"
           id="g5036"><path
             inkscape:connector-curvature="0"
             id="path5038"
             style="fill:#000000;fill-opacity:1;fill-rule:nonzero;stroke:none"
             d="m 0,0 v -21.6 c 0,-0.12 -0.12,-0.24 -0.24,-0.24 -0.12,0 -0.24,0.12 -0.24,0.24 V 0 c 0,0.12 0.12,0.24 0.24,0.24 C -0.12,0.24 0,0.12 0,0" /></g><g
           transform="translate(308.03999,387.62)"
           id="g5040"><path
             inkscape:connector-curvature="0"
             id="path5042"
             style="fill:#000000;fill-opacity:1;fill-rule:evenodd;stroke:none"
             d="m 0,0 c 0,-0.78 -0.66,-1.44 -1.44,-1.44 -0.78,0 -1.44,0.66 -1.44,1.44 0,0.78 0.66,1.44 1.44,1.44 C -0.66,1.44 0,0.78 0,0" /></g><g
           transform="translate(308.03999,387.62)"
           id="g5044"><path
             inkscape:connector-curvature="0"
             id="path5046"
             style="fill:none;stroke:#000000;stroke-width:0.06;stroke-linecap:round;stroke-linejoin:round;stroke-miterlimit:10;stroke-dasharray:none;stroke-opacity:1"
             d="m 0,0 c 0,-0.78 -0.66,-1.44 -1.44,-1.44 -0.78,0 -1.44,0.66 -1.44,1.44 0,0.78 0.66,1.44 1.44,1.44 C -0.66,1.44 0,0.78 0,0 Z" /></g><g
           transform="translate(372.84,387.62)"
           id="g5048"><path
             inkscape:connector-curvature="0"
             id="path5050"
             style="fill:#000000;fill-opacity:1;fill-rule:evenodd;stroke:none"
             d="m 0,0 c 0,-0.78 -0.66,-1.44 -1.44,-1.44 -0.78,0 -1.44,0.66 -1.44,1.44 0,0.78 0.66,1.44 1.44,1.44 C -0.66,1.44 0,0.78 0,0" /></g><g
           transform="translate(372.84,387.62)"
           id="g5052"><path
             inkscape:connector-curvature="0"
             id="path5054"
             style="fill:none;stroke:#000000;stroke-width:0.06;stroke-linecap:round;stroke-linejoin:round;stroke-miterlimit:10;stroke-dasharray:none;stroke-opacity:1"
             d="m 0,0 c 0,-0.78 -0.66,-1.44 -1.44,-1.44 -0.78,0 -1.44,0.66 -1.44,1.44 0,0.78 0.66,1.44 1.44,1.44 C -0.66,1.44 0,0.78 0,0 Z" /></g><g
           transform="translate(256.25999,416.17999)"
           id="g5056"><path
             inkscape:connector-curvature="0"
             id="path5058"
             style="fill:#000000;fill-opacity:1;fill-rule:nonzero;stroke:none"
             d="m 0,0 h -7.2 c -0.12,0 -0.24,0.12 -0.24,0.24 0,0.12 0.12,0.24 0.24,0.24 H 0 C 0.12,0.48 0.24,0.36 0.24,0.24 0.24,0.12 0.12,0 0,0" /></g><g
           transform="translate(249.06,416.17999)"
           id="g5060"><path
             inkscape:connector-curvature="0"
             id="path5062"
             style="fill:#000000;fill-opacity:1;fill-rule:nonzero;stroke:none"
             d="m 0,0 h -28.74 c -0.12,0 -0.24,0.12 -0.24,0.24 0,0.12 0.12,0.24 0.24,0.24 H 0 C 0.12,0.48 0.24,0.36 0.24,0.24 0.24,0.12 0.12,0 0,0" /></g><g
           transform="translate(221.75999,416.42)"
           id="g5064"><path
             inkscape:connector-curvature="0"
             id="path5066"
             style="fill:#000000;fill-opacity:1;fill-rule:evenodd;stroke:none"
             d="m 0,0 c 0,-0.78 -0.66,-1.44 -1.44,-1.44 -0.78,0 -1.44,0.66 -1.44,1.44 0,0.78 0.66,1.44 1.44,1.44 C -0.66,1.44 0,0.78 0,0" /></g><g
           transform="translate(221.75999,416.42)"
           id="g5068"><path
             inkscape:connector-curvature="0"
             id="path5070"
             style="fill:none;stroke:#000000;stroke-width:0.06;stroke-linecap:round;stroke-linejoin:round;stroke-miterlimit:10;stroke-dasharray:none;stroke-opacity:1"
             d="m 0,0 c 0,-0.78 -0.66,-1.44 -1.44,-1.44 -0.78,0 -1.44,0.66 -1.44,1.44 0,0.78 0.66,1.44 1.44,1.44 C -0.66,1.44 0,0.78 0,0 Z" /></g><g
           transform="translate(270.66,444.92)"
           id="g5072"><path
             inkscape:connector-curvature="0"
             id="path5074"
             style="fill:#000000;fill-opacity:1;fill-rule:nonzero;stroke:none"
             d="m 0,0 h -21.6 c -0.12,0 -0.24,0.12 -0.24,0.24 0,0.12 0.12,0.24 0.24,0.24 H 0 C 0.12,0.48 0.24,0.36 0.24,0.24 0.24,0.12 0.12,0 0,0" /></g><g
           transform="translate(249.3,445.16)"
           id="g5076"><path
             inkscape:connector-curvature="0"
             id="path5078"
             style="fill:#000000;fill-opacity:1;fill-rule:nonzero;stroke:none"
             d="m 0,0 v -28.74 c 0,-0.12 -0.12,-0.24 -0.24,-0.24 -0.12,0 -0.24,0.12 -0.24,0.24 V 0 c 0,0.12 0.12,0.24 0.24,0.24 C -0.12,0.24 0,0.12 0,0" /></g><g
           transform="translate(250.5,416.42)"
           id="g5080"><path
             inkscape:connector-curvature="0"
             id="path5082"
             style="fill:#000000;fill-opacity:1;fill-rule:evenodd;stroke:none"
             d="m 0,0 c 0,-0.78 -0.66,-1.44 -1.44,-1.44 -0.78,0 -1.44,0.66 -1.44,1.44 0,0.78 0.66,1.44 1.44,1.44 C -0.66,1.44 0,0.78 0,0" /></g><g
           transform="translate(250.5,416.42)"
           id="g5084"><path
             inkscape:connector-curvature="0"
             id="path5086"
             style="fill:none;stroke:#000000;stroke-width:0.06;stroke-linecap:round;stroke-linejoin:round;stroke-miterlimit:10;stroke-dasharray:none;stroke-opacity:1"
             d="m 0,0 c 0,-0.78 -0.66,-1.44 -1.44,-1.44 -0.78,0 -1.44,0.66 -1.44,1.44 0,0.78 0.66,1.44 1.44,1.44 C -0.66,1.44 0,0.78 0,0 Z" /></g><g
           transform="translate(263.46001,466.52)"
           id="g5088"><path
             inkscape:connector-curvature="0"
             id="path5090"
             style="fill:#000000;fill-opacity:1;fill-rule:nonzero;stroke:none"
             d="m 0,0 h -14.4 c -0.12,0 -0.24,0.12 -0.24,0.24 0,0.12 0.12,0.24 0.24,0.24 H 0 C 0.12,0.48 0.24,0.36 0.24,0.24 0.24,0.12 0.12,0 0,0" /></g><g
           transform="translate(249.3,466.75999)"
           id="g5092"><path
             inkscape:connector-curvature="0"
             id="path5094"
             style="fill:#000000;fill-opacity:1;fill-rule:nonzero;stroke:none"
             d="m 0,0 v -21.6 c 0,-0.12 -0.12,-0.24 -0.24,-0.24 -0.12,0 -0.24,0.12 -0.24,0.24 V 0 c 0,0.12 0.12,0.24 0.24,0.24 C -0.12,0.24 0,0.12 0,0" /></g><g
           transform="translate(250.5,445.16)"
           id="g5096"><path
             inkscape:connector-curvature="0"
             id="path5098"
             style="fill:#000000;fill-opacity:1;fill-rule:evenodd;stroke:none"
             d="m 0,0 c 0,-0.78 -0.66,-1.44 -1.44,-1.44 -0.78,0 -1.44,0.66 -1.44,1.44 0,0.78 0.66,1.44 1.44,1.44 C -0.66,1.44 0,0.78 0,0" /></g><g
           transform="translate(250.5,445.16)"
           id="g5100"><path
             inkscape:connector-curvature="0"
             id="path5102"
             style="fill:none;stroke:#000000;stroke-width:0.06;stroke-linecap:round;stroke-linejoin:round;stroke-miterlimit:10;stroke-dasharray:none;stroke-opacity:1"
             d="m 0,0 c 0,-0.78 -0.66,-1.44 -1.44,-1.44 -0.78,0 -1.44,0.66 -1.44,1.44 0,0.78 0.66,1.44 1.44,1.44 C -0.66,1.44 0,0.78 0,0 Z" /></g><g
           transform="translate(349.8,445.39999)"
           id="g5104"><path
             inkscape:connector-curvature="0"
             id="path5106"
             style="fill:#000000;fill-opacity:1;fill-rule:nonzero;stroke:none"
             d="m 0,0 h 21.6 c 0.12,0 0.24,-0.12 0.24,-0.24 0,-0.12 -0.12,-0.24 -0.24,-0.24 H 0 c -0.12,0 -0.24,0.12 -0.24,0.24 C -0.24,-0.12 -0.12,0 0,0" /></g><g
           transform="translate(372.84,445.16)"
           id="g5108"><path
             inkscape:connector-curvature="0"
             id="path5110"
             style="fill:#000000;fill-opacity:1;fill-rule:evenodd;stroke:none"
             d="m 0,0 c 0,-0.78 -0.66,-1.44 -1.44,-1.44 -0.78,0 -1.44,0.66 -1.44,1.44 0,0.78 0.66,1.44 1.44,1.44 C -0.66,1.44 0,0.78 0,0" /></g><g
           transform="translate(372.84,445.16)"
           id="g5112"><path
             inkscape:connector-curvature="0"
             id="path5114"
             style="fill:none;stroke:#000000;stroke-width:0.06;stroke-linecap:round;stroke-linejoin:round;stroke-miterlimit:10;stroke-dasharray:none;stroke-opacity:1"
             d="m 0,0 c 0,-0.78 -0.66,-1.44 -1.44,-1.44 -0.78,0 -1.44,0.66 -1.44,1.44 0,0.78 0.66,1.44 1.44,1.44 C -0.66,1.44 0,0.78 0,0 Z" /></g><g
           transform="translate(299.46001,423.38)"
           id="g5116"><path
             inkscape:connector-curvature="0"
             id="path5118"
             style="fill:#000000;fill-opacity:1;fill-rule:nonzero;stroke:none"
             d="m 0,0 h -7.2 c -0.12,0 -0.24,0.12 -0.24,0.24 0,0.12 0.12,0.24 0.24,0.24 H 0 C 0.12,0.48 0.24,0.36 0.24,0.24 0.24,0.12 0.12,0 0,0" /></g><g
           transform="translate(299.46001,408.98)"
           id="g5120"><path
             inkscape:connector-curvature="0"
             id="path5122"
             style="fill:#000000;fill-opacity:1;fill-rule:nonzero;stroke:none"
             d="m 0,0 h -7.2 c -0.12,0 -0.24,0.12 -0.24,0.24 0,0.12 0.12,0.24 0.24,0.24 H 0 C 0.12,0.48 0.24,0.36 0.24,0.24 0.24,0.12 0.12,0 0,0" /></g><g
           transform="translate(256.25999,416.66)"
           id="g5124"><path
             inkscape:connector-curvature="0"
             id="path5126"
             style="fill:#000000;fill-opacity:1;fill-rule:nonzero;stroke:none"
             d="M 0,0 H 7.2 C 7.32,0 7.44,-0.12 7.44,-0.24 7.44,-0.36 7.32,-0.48 7.2,-0.48 H 0 c -0.12,0 -0.24,0.12 -0.24,0.24 C -0.24,-0.12 -0.12,0 0,0" /></g><g
           transform="translate(291.66,402.02)"
           id="g5128"><path
             inkscape:connector-curvature="0"
             id="path5130"
             style="fill:#000000;fill-opacity:1;fill-rule:nonzero;stroke:none"
             d="m 0,0 v 28.8 c 0,0.36 0.24,0.6 0.6,0.6 0.36,0 0.6,-0.24 0.6,-0.6 V 0 C 1.2,-0.36 0.96,-0.6 0.6,-0.6 0.24,-0.6 0,-0.36 0,0" /></g><g
           transform="translate(292.5,430.28)"
           id="g5132"><path
             inkscape:connector-curvature="0"
             id="path5134"
             style="fill:#000000;fill-opacity:1;fill-rule:nonzero;stroke:none"
             d="m 0,0 -28.8,-14.4 c -0.24,-0.12 -0.6,0 -0.78,0.3 -0.12,0.24 0,0.6 0.3,0.78 l 28.8,14.4 c 0.24,0.12 0.6,0 0.78,-0.3 C 0.42,0.54 0.3,0.18 0,0" /></g><g
           transform="translate(263.7,416.96001)"
           id="g5136"><path
             inkscape:connector-curvature="0"
             id="path5138"
             style="fill:#000000;fill-opacity:1;fill-rule:nonzero;stroke:none"
             d="m 0,0 28.8,-14.4 c 0.3,-0.18 0.42,-0.54 0.3,-0.78 -0.18,-0.3 -0.54,-0.42 -0.78,-0.3 l -28.8,14.4 C -0.78,-0.9 -0.9,-0.54 -0.78,-0.3 -0.6,0 -0.24,0.12 0,0" /></g><g
           transform="translate(288.42,407.42)"
           id="g5140"><path
             inkscape:connector-curvature="0"
             id="path5142"
             style="fill:#000000;fill-opacity:1;fill-rule:nonzero;stroke:none"
             d="M 0,0 V 3.6 C 0,3.72 0.12,3.84 0.24,3.84 0.36,3.84 0.48,3.72 0.48,3.6 V 0 C 0.48,-0.12 0.36,-0.24 0.24,-0.24 0.12,-0.24 0,-0.12 0,0" /></g><g
           transform="translate(290.46001,408.98)"
           id="g5144"><path
             inkscape:connector-curvature="0"
             id="path5146"
             style="fill:#000000;fill-opacity:1;fill-rule:nonzero;stroke:none"
             d="m 0,0 h -3.6 c -0.12,0 -0.24,0.12 -0.24,0.24 0,0.12 0.12,0.24 0.24,0.24 H 0 C 0.12,0.48 0.24,0.36 0.24,0.24 0.24,0.12 0.12,0 0,0" /></g><g
           transform="translate(290.46001,423.38)"
           id="g5148"><path
             inkscape:connector-curvature="0"
             id="path5150"
             style="fill:#000000;fill-opacity:1;fill-rule:nonzero;stroke:none"
             d="m 0,0 h -3.6 c -0.12,0 -0.24,0.12 -0.24,0.24 0,0.12 0.12,0.24 0.24,0.24 H 0 C 0.12,0.48 0.24,0.36 0.24,0.24 0.24,0.12 0.12,0 0,0" /></g><g
           transform="translate(328.2,443)"
           id="g5152"><path
             inkscape:connector-curvature="0"
             id="path5154"
             style="fill:#000000;fill-opacity:1;fill-rule:nonzero;stroke:none"
             d="m 0,0 h 14.4 c 0.18,0 0.36,-0.18 0.36,-0.36 0,-0.18 -0.18,-0.36 -0.36,-0.36 H 0 c -0.18,0 -0.36,0.18 -0.36,0.36 C -0.36,-0.18 -0.18,0 0,0" /></g><g
           transform="translate(342.60001,447.32001)"
           id="g5156"><path
             inkscape:connector-curvature="0"
             id="path5158"
             style="fill:#000000;fill-opacity:1;fill-rule:nonzero;stroke:none"
             d="m 0,0 h -14.4 c -0.18,0 -0.36,0.18 -0.36,0.36 0,0.18 0.18,0.36 0.36,0.36 H 0 C 0.18,0.72 0.36,0.54 0.36,0.36 0.36,0.18 0.18,0 0,0" /></g><g
           transform="translate(349.8,444.92)"
           id="g5160"><path
             inkscape:connector-curvature="0"
             id="path5162"
             style="fill:#000000;fill-opacity:1;fill-rule:nonzero;stroke:none"
             d="m 0,0 h -7.2 c -0.12,0 -0.24,0.12 -0.24,0.24 0,0.12 0.12,0.24 0.24,0.24 H 0 C 0.12,0.48 0.24,0.36 0.24,0.24 0.24,0.12 0.12,0 0,0" /></g><g
           transform="translate(342.24001,442.64)"
           id="g5164"><path
             inkscape:connector-curvature="0"
             id="path5166"
             style="fill:#000000;fill-opacity:1;fill-rule:nonzero;stroke:none"
             d="M 0,0 V 5.04 C 0,5.22 0.18,5.4 0.36,5.4 0.54,5.4 0.72,5.22 0.72,5.04 V 0 C 0.72,-0.18 0.54,-0.36 0.36,-0.36 0.18,-0.36 0,-0.18 0,0" /></g><g
           transform="translate(327.84,442.64)"
           id="g5168"><path
             inkscape:connector-curvature="0"
             id="path5170"
             style="fill:#000000;fill-opacity:1;fill-rule:nonzero;stroke:none"
             d="M 0,0 V 5.04 C 0,5.22 0.18,5.4 0.36,5.4 0.54,5.4 0.72,5.22 0.72,5.04 V 0 C 0.72,-0.18 0.54,-0.36 0.36,-0.36 0.18,-0.36 0,-0.18 0,0" /></g><g
           transform="translate(321,445.39999)"
           id="g5172"><path
             inkscape:connector-curvature="0"
             id="path5174"
             style="fill:#000000;fill-opacity:1;fill-rule:nonzero;stroke:none"
             d="M 0,0 H 7.2 C 7.32,0 7.44,-0.12 7.44,-0.24 7.44,-0.36 7.32,-0.48 7.2,-0.48 H 0 c -0.12,0 -0.24,0.12 -0.24,0.24 C -0.24,-0.12 -0.12,0 0,0" /></g><g
           transform="translate(371.64,380.42)"
           id="g5176"><path
             inkscape:connector-curvature="0"
             id="path5178"
             style="fill:#000000;fill-opacity:1;fill-rule:nonzero;stroke:none"
             d="m 0,0 v -7.2 c 0,-0.12 -0.12,-0.24 -0.24,-0.24 -0.12,0 -0.24,0.12 -0.24,0.24 V 0 c 0,0.12 0.12,0.24 0.24,0.24 C -0.12,0.24 0,0.12 0,0" /></g><g
           transform="translate(366,373.58)"
           id="g5180"><path
             inkscape:connector-curvature="0"
             id="path5182"
             style="fill:#000000;fill-opacity:1;fill-rule:nonzero;stroke:none"
             d="m 0,0 h 10.8 c 0.18,0 0.36,-0.18 0.36,-0.36 0,-0.18 -0.18,-0.36 -0.36,-0.36 H 0 c -0.18,0 -0.36,0.18 -0.36,0.36 C -0.36,-0.18 -0.18,0 0,0" /></g><g
           transform="translate(270.66,464.60001)"
           id="g5184"><path
             inkscape:connector-curvature="0"
             id="path5186"
             style="fill:#000000;fill-opacity:1;fill-rule:nonzero;stroke:none"
             d="m 0,0 h 14.4 c 0.18,0 0.36,-0.18 0.36,-0.36 0,-0.18 -0.18,-0.36 -0.36,-0.36 H 0 c -0.18,0 -0.36,0.18 -0.36,0.36 C -0.36,-0.18 -0.18,0 0,0" /></g><g
           transform="translate(285.06,468.92)"
           id="g5188"><path
             inkscape:connector-curvature="0"
             id="path5190"
             style="fill:#000000;fill-opacity:1;fill-rule:nonzero;stroke:none"
             d="m 0,0 h -14.4 c -0.18,0 -0.36,0.18 -0.36,0.36 0,0.18 0.18,0.36 0.36,0.36 H 0 C 0.18,0.72 0.36,0.54 0.36,0.36 0.36,0.18 0.18,0 0,0" /></g><g
           transform="translate(292.25999,466.52)"
           id="g5192"><path
             inkscape:connector-curvature="0"
             id="path5194"
             style="fill:#000000;fill-opacity:1;fill-rule:nonzero;stroke:none"
             d="m 0,0 h -7.2 c -0.12,0 -0.24,0.12 -0.24,0.24 0,0.12 0.12,0.24 0.24,0.24 H 0 C 0.12,0.48 0.24,0.36 0.24,0.24 0.24,0.12 0.12,0 0,0" /></g><g
           transform="translate(284.7,464.24001)"
           id="g5196"><path
             inkscape:connector-curvature="0"
             id="path5198"
             style="fill:#000000;fill-opacity:1;fill-rule:nonzero;stroke:none"
             d="M 0,0 V 5.04 C 0,5.22 0.18,5.4 0.36,5.4 0.54,5.4 0.72,5.22 0.72,5.04 V 0 C 0.72,-0.18 0.54,-0.36 0.36,-0.36 0.18,-0.36 0,-0.18 0,0" /></g><g
           transform="translate(270.3,464.24001)"
           id="g5200"><path
             inkscape:connector-curvature="0"
             id="path5202"
             style="fill:#000000;fill-opacity:1;fill-rule:nonzero;stroke:none"
             d="M 0,0 V 5.04 C 0,5.22 0.18,5.4 0.36,5.4 0.54,5.4 0.72,5.22 0.72,5.04 V 0 C 0.72,-0.18 0.54,-0.36 0.36,-0.36 0.18,-0.36 0,-0.18 0,0" /></g><g
           transform="translate(263.46001,467)"
           id="g5204"><path
             inkscape:connector-curvature="0"
             id="path5206"
             style="fill:#000000;fill-opacity:1;fill-rule:nonzero;stroke:none"
             d="M 0,0 H 7.2 C 7.32,0 7.44,-0.12 7.44,-0.24 7.44,-0.36 7.32,-0.48 7.2,-0.48 H 0 c -0.12,0 -0.24,0.12 -0.24,0.24 C -0.24,-0.12 -0.12,0 0,0" /></g><g
           transform="translate(270.66,445.39999)"
           id="g5208"><path
             inkscape:connector-curvature="0"
             id="path5210"
             style="fill:#000000;fill-opacity:1;fill-rule:nonzero;stroke:none"
             d="M 0,0 H 7.2 C 7.32,0 7.44,-0.12 7.44,-0.24 7.44,-0.36 7.32,-0.48 7.2,-0.48 H 0 c -0.12,0 -0.24,0.12 -0.24,0.24 C -0.24,-0.12 -0.12,0 0,0" /></g><g
           transform="translate(292.25999,444.92)"
           id="g5212"><path
             inkscape:connector-curvature="0"
             id="path5214"
             style="fill:#000000;fill-opacity:1;fill-rule:nonzero;stroke:none"
             d="m 0,0 h -7.2 c -0.12,0 -0.24,0.12 -0.24,0.24 0,0.12 0.12,0.24 0.24,0.24 H 0 C 0.12,0.48 0.24,0.36 0.24,0.24 0.24,0.12 0.12,0 0,0" /></g><path
           inkscape:connector-curvature="0"
           id="path5216"
           style="fill:#000000;fill-opacity:1;fill-rule:nonzero;stroke:none"
           d="m 282.18,439.4 h 1.44 v 11.52 h -1.44 z" /><path
           inkscape:connector-curvature="0"
           id="path5218"
           style="fill:none;stroke:#000000;stroke-width:0.06;stroke-linecap:round;stroke-linejoin:round;stroke-miterlimit:10;stroke-dasharray:none;stroke-opacity:1"
           d="m 282.18,450.92 h 1.44 V 439.4 h -1.44 z" /><path
           inkscape:connector-curvature="0"
           id="path5220"
           style="fill:#000000;fill-opacity:1;fill-rule:nonzero;stroke:none"
           d="m 279.3,439.4 h 1.44 v 11.52 h -1.44 z" /><path
           inkscape:connector-curvature="0"
           id="path5222"
           style="fill:none;stroke:#000000;stroke-width:0.06;stroke-linecap:round;stroke-linejoin:round;stroke-miterlimit:10;stroke-dasharray:none;stroke-opacity:1"
           d="m 279.3,450.92 h 1.44 V 439.4 h -1.44 z" /><g
           transform="translate(277.86,445.39999)"
           id="g5224"><path
             inkscape:connector-curvature="0"
             id="path5226"
             style="fill:#000000;fill-opacity:1;fill-rule:nonzero;stroke:none"
             d="m 0,0 h 1.44 c 0.12,0 0.24,-0.12 0.24,-0.24 0,-0.12 -0.12,-0.24 -0.24,-0.24 H 0 c -0.12,0 -0.24,0.12 -0.24,0.24 C -0.24,-0.12 -0.12,0 0,0" /></g><g
           transform="translate(285.06,444.92)"
           id="g5228"><path
             inkscape:connector-curvature="0"
             id="path5230"
             style="fill:#000000;fill-opacity:1;fill-rule:nonzero;stroke:none"
             d="m 0,0 h -1.44 c -0.12,0 -0.24,0.12 -0.24,0.24 0,0.12 0.12,0.24 0.24,0.24 H 0 C 0.12,0.48 0.24,0.36 0.24,0.24 0.24,0.12 0.12,0 0,0" /></g><text
           id="text5234"
           style="font-variant:normal;font-weight:normal;font-stretch:normal;font-size:7.07999992px;font-family:Arial;-inkscape-font-specification:ArialMT;writing-mode:lr-tb;fill:#000000;fill-opacity:1;fill-rule:nonzero;stroke:none"
           transform="matrix(1,0,0,-1,324.6003,451.4205)"><tspan
             id="tspan5232"
             y="0"
             x="0">R</tspan></text>
<text
           id="text5238"
           style="font-variant:normal;font-weight:normal;font-stretch:normal;font-size:5.75290012px;font-family:Arial;-inkscape-font-specification:ArialMT;writing-mode:lr-tb;fill:#000000;fill-opacity:1;fill-rule:nonzero;stroke:none"
           transform="matrix(1,0,0,-1,329.8168,448.9892)"><tspan
             id="tspan5236"
             y="0"
             x="0">1</tspan></text>
<text
           id="text5242"
           style="font-variant:normal;font-weight:normal;font-stretch:normal;font-size:7.07999992px;font-family:Arial;-inkscape-font-specification:ArialMT;writing-mode:lr-tb;fill:#000000;fill-opacity:1;fill-rule:nonzero;stroke:none"
           transform="matrix(1,0,0,-1,267.0604,473.0209)"><tspan
             id="tspan5240"
             y="0"
             x="0">R</tspan></text>
<text
           id="text5246"
           style="font-variant:normal;font-weight:normal;font-stretch:normal;font-size:5.78389978px;font-family:Arial;-inkscape-font-specification:ArialMT;writing-mode:lr-tb;fill:#000000;fill-opacity:1;fill-rule:nonzero;stroke:none"
           transform="matrix(1,0,0,-1,272.2976,470.5997)"><tspan
             id="tspan5244"
             y="0"
             x="0">S</tspan></text>
<text
           id="text5252"
           style="font-variant:normal;font-weight:normal;font-stretch:normal;font-size:7.07999992px;font-family:Arial;-inkscape-font-specification:ArialMT;writing-mode:lr-tb;fill:#000000;fill-opacity:1;fill-rule:nonzero;stroke:none"
           transform="matrix(1,0,0,-1,199.3479,387.6203)"><tspan
             id="tspan5248"
             sodipodi:role="line"
             y="0"
             x="0 5.5082402 10.62">GND</tspan><tspan
             id="tspan5250"
             y="-27.80316"
             x="5.9967599">U</tspan></text>
<text
           id="text5256"
           style="font-variant:normal;font-weight:normal;font-stretch:normal;font-size:5.65390015px;font-family:Arial;-inkscape-font-specification:ArialMT;writing-mode:lr-tb;fill:#000000;fill-opacity:1;fill-rule:nonzero;stroke:none"
           transform="matrix(1,0,0,-1,209.8884,412.9568)"><tspan
             id="tspan5254"
             y="0"
             x="0">A</tspan></text>
<text
           id="text5260"
           style="font-variant:normal;font-weight:normal;font-stretch:normal;font-size:7.07999992px;font-family:Arial;-inkscape-font-specification:ArialMT;writing-mode:lr-tb;fill:#000000;fill-opacity:1;fill-rule:nonzero;stroke:none"
           transform="matrix(1,0,0,-1,376.6001,444.1602)"><tspan
             id="tspan5258"
             y="0"
             x="0">U</tspan></text>
<text
           id="text5264"
           style="font-variant:normal;font-weight:normal;font-stretch:normal;font-size:5.48379993px;font-family:Arial;-inkscape-font-specification:ArialMT;writing-mode:lr-tb;fill:#000000;fill-opacity:1;fill-rule:nonzero;stroke:none"
           transform="matrix(1,0,0,-1,381.6618,441.6414)"><tspan
             id="tspan5262"
             y="0"
             x="0">E</tspan></text>
<text
           id="text5274"
           style="font-variant:normal;font-weight:normal;font-stretch:normal;font-size:7.07999992px;font-family:Arial;-inkscape-font-specification:ArialMT;writing-mode:lr-tb;fill:#000000;fill-opacity:1;fill-rule:nonzero;stroke:none"
           transform="matrix(1,0,0,-1,324.6003,435.7997)"><tspan
             id="tspan5266"
             sodipodi:role="line"
             y="0"
             x="0 3.959136 7.918272">10k</tspan><tspan
             id="tspan5268"
             sodipodi:role="line"
             y="69.780479"
             x="39.598438 45.106682 50.218441">GND</tspan><tspan
             id="tspan5270"
             sodipodi:role="line"
             y="-21.60108"
             x="-57.539162 -53.580025">1M</tspan><tspan
             id="tspan5272"
             sodipodi:role="line"
             y="0.56639999"
             x="-61.355282 -57.39827 -55.409496 -51.452484">6,8µ</tspan></text>
</g></g></g></svg>