<?xml version="1.0" encoding="UTF-8" standalone="no"?>
<!-- Created with Inkscape (http://www.inkscape.org/) -->

<svg
   xmlns:dc="http://purl.org/dc/elements/1.1/"
   xmlns:cc="http://creativecommons.org/ns#"
   xmlns:rdf="http://www.w3.org/1999/02/22-rdf-syntax-ns#"
   xmlns:svg="http://www.w3.org/2000/svg"
   xmlns="http://www.w3.org/2000/svg"
   xmlns:sodipodi="http://sodipodi.sourceforge.net/DTD/sodipodi-0.dtd"
   xmlns:inkscape="http://www.inkscape.org/namespaces/inkscape"
   version="1.1"
   id="svg2"
   xml:space="preserve"
   width="221.63297"
   height="214.38763"
   viewBox="0 0 221.63296 214.38763"
   sodipodi:docname="schem-noninv.svg"
   inkscape:version="0.92.1 r"><metadata
     id="metadata8"><rdf:RDF><cc:Work
         rdf:about=""><dc:format>image/svg+xml</dc:format><dc:type
           rdf:resource="http://purl.org/dc/dcmitype/StillImage" /><dc:title></dc:title></cc:Work></rdf:RDF></metadata><defs
     id="defs6"><clipPath
       clipPathUnits="userSpaceOnUse"
       id="clipPath22"><path
         d="M 16.0406,702.445 H 151.095 V 832.7 H 16.0406 Z"
         id="path20"
         inkscape:connector-curvature="0" /></clipPath><clipPath
       clipPathUnits="userSpaceOnUse"
       id="clipPath246"><path
         d="M 16.8466,712.446 H 123.374 V 831.245 H 16.8466 Z"
         id="path244"
         inkscape:connector-curvature="0" /></clipPath></defs><sodipodi:namedview
     pagecolor="#ffffff"
     bordercolor="#666666"
     borderopacity="1"
     objecttolerance="10"
     gridtolerance="10"
     guidetolerance="10"
     inkscape:pageopacity="0"
     inkscape:pageshadow="2"
     inkscape:window-width="3840"
     inkscape:window-height="2047"
     id="namedview4"
     showgrid="false"
     fit-margin-top="0"
     fit-margin-left="0"
     fit-margin-right="0"
     fit-margin-bottom="0"
     inkscape:zoom="1.6819299"
     inkscape:cx="444.73201"
     inkscape:cy="-213.91001"
     inkscape:window-x="0"
     inkscape:window-y="0"
     inkscape:window-maximized="1"
     inkscape:current-layer="g10" /><g
     id="g10"
     inkscape:groupmode="layer"
     inkscape:label="Operationsverstaerker-Vorbereitungshilfe"
     transform="matrix(1.3333333,0,0,-1.3333333,-7.1614489,220.67487)"><g
       id="g12"
       transform="scale(1.30582)"><g
         id="g14"
         transform="translate(-16.041,-702.445)"><g
           id="g16"><g
             id="g18"
             clip-path="url(#clipPath22)"><g
               id="g24"
               transform="translate(105.42,727.7)"><path
                 d="M 0,0 -0.12,-0.12 H -65.04 L -65.16,0 v 0.18 l 0.12,0.12 H -0.12 L 0,0.18 Z"
                 style="fill:#000000;fill-opacity:1;fill-rule:evenodd;stroke:#000000;stroke-width:0.06;stroke-linecap:round;stroke-linejoin:round;stroke-miterlimit:10;stroke-dasharray:none;stroke-opacity:1"
                 id="path26"
                 inkscape:connector-curvature="0" /></g><g
               id="g28"
               transform="translate(134.22,727.7)"><path
                 d="M 0,0 -0.12,-0.12 H -29.1 L -29.22,0 V 0.18 L -29.1,0.3 H -0.12 L 0,0.18 Z"
                 style="fill:#000000;fill-opacity:1;fill-rule:evenodd;stroke:#000000;stroke-width:0.06;stroke-linecap:round;stroke-linejoin:round;stroke-miterlimit:10;stroke-dasharray:none;stroke-opacity:1"
                 id="path30"
                 inkscape:connector-curvature="0" /></g><g
               id="g32"
               transform="translate(134.22,720.5)"><path
                 d="M 0,0 -0.12,-0.12 H -0.3 L -0.42,0 V 7.38 L -0.3,7.5 h 0.18 L 0,7.38 Z"
                 style="fill:#000000;fill-opacity:1;fill-rule:evenodd;stroke:#000000;stroke-width:0.06;stroke-linecap:round;stroke-linejoin:round;stroke-miterlimit:10;stroke-dasharray:none;stroke-opacity:1"
                 id="path34"
                 inkscape:connector-curvature="0" /></g><g
               id="g36"
               transform="translate(41.880005,727.82001)"><path
                 d="M 0,0 V -0.18 L -0.06,-0.3 V -0.48 L -0.12,-0.54 -0.18,-0.6 V -0.72 L -0.24,-0.78 -0.3,-0.84 -0.36,-0.9 -0.42,-1.02 -0.6,-1.2 H -0.66 L -0.78,-1.26 -0.84,-1.32 H -0.9 L -1.02,-1.38 H -1.08 L -1.2,-1.44 h -0.54 l -0.06,0.06 h -0.18 l -0.06,0.06 -0.12,0.06 -0.06,0.06 h -0.06 l -0.12,0.06 -0.06,0.06 -0.12,0.12 -0.06,0.12 v 0.06 l -0.06,0.06 -0.06,0.06 -0.06,0.12 v 0.18 l -0.06,0.06 v 0.66 l 0.06,0.06 v 0.12 l 0.06,0.06 0.06,0.06 v 0.12 l 0.06,0.06 0.06,0.06 0.06,0.06 0.06,0.06 0.06,0.06 0.12,0.06 0.06,0.06 0.06,0.06 h 0.06 l 0.12,0.06 0.06,0.06 h 0.18 l 0.12,0.06 h 0.36 L -1.2,1.38 h 0.18 L -0.9,1.32 h 0.06 L -0.78,1.26 -0.66,1.2 -0.6,1.14 -0.54,1.08 C -0.319,0.855 -0.155,0.756 -0.12,0.42 L -0.06,0.36 V 0.18 L 0,0.06 Z"
                 style="fill:#000000;fill-opacity:1;fill-rule:evenodd;stroke:#000000;stroke-width:0.06;stroke-linecap:round;stroke-linejoin:round;stroke-miterlimit:10;stroke-dasharray:none;stroke-opacity:1"
                 id="path38"
                 inkscape:connector-curvature="0" /></g><g
               id="g40"
               transform="translate(105.42,727.7)"><path
                 d="M 0,0 -0.12,-0.12 H -0.3 L -0.42,0 V 7.38 L -0.3,7.5 h 0.18 L 0,7.38 Z"
                 style="fill:#000000;fill-opacity:1;fill-rule:evenodd;stroke:#000000;stroke-width:0.06;stroke-linecap:round;stroke-linejoin:round;stroke-miterlimit:10;stroke-dasharray:none;stroke-opacity:1"
                 id="path42"
                 inkscape:connector-curvature="0" /></g><g
               id="g44"
               transform="translate(106.62,727.82001)"><path
                 d="M 0,0 V -0.36 L -0.06,-0.48 V -0.54 L -0.12,-0.6 V -0.72 L -0.18,-0.78 -0.24,-0.84 -0.3,-0.9 -0.36,-1.02 -0.54,-1.2 H -0.66 L -0.78,-1.32 H -0.9 l -0.06,-0.06 h -0.06 l -0.12,-0.06 h -0.54 l -0.06,0.06 h -0.18 l -0.12,0.06 -0.12,0.12 h -0.12 l -0.18,0.18 c -0.103,0.098 -0.372,0.582 -0.36,0.72 v 0.18 L -2.88,0 -2.82,0.06 v 0.18 c 0.022,0.18 0.132,0.538 0.3,0.66 l 0.06,0.06 0.06,0.06 0.06,0.06 0.06,0.06 0.12,0.06 0.06,0.06 h 0.06 l 0.12,0.06 0.06,0.06 h 0.18 l 0.06,0.06 h 0.36 l 0.12,-0.06 h 0.18 L -0.9,1.32 h 0.12 L -0.72,1.26 -0.66,1.2 -0.54,1.14 -0.48,1.08 -0.42,1.02 -0.36,0.96 -0.3,0.9 -0.24,0.84 -0.18,0.78 V 0.66 L -0.12,0.6 -0.06,0.54 V 0.42 L 0,0.36 v -0.3 z"
                 style="fill:#000000;fill-opacity:1;fill-rule:evenodd;stroke:#000000;stroke-width:0.06;stroke-linecap:round;stroke-linejoin:round;stroke-miterlimit:10;stroke-dasharray:none;stroke-opacity:1"
                 id="path46"
                 inkscape:connector-curvature="0" /></g><g
               id="g48"
               transform="translate(105.42,806.89999)"><path
                 d="M 0,0 -0.12,-0.12 H -0.3 L -0.42,0 V 7.38 L -0.3,7.5 h 0.18 L 0,7.38 Z"
                 style="fill:#000000;fill-opacity:1;fill-rule:evenodd;stroke:#000000;stroke-width:0.06;stroke-linecap:round;stroke-linejoin:round;stroke-miterlimit:10;stroke-dasharray:none;stroke-opacity:1"
                 id="path50"
                 inkscape:connector-curvature="0" /></g><g
               id="g52"
               transform="translate(134.22,814.10001)"><path
                 d="M 0,0 -0.12,-0.12 H -29.1 L -29.22,0 V 0.18 L -29.1,0.3 H -0.12 L 0,0.18 Z"
                 style="fill:#000000;fill-opacity:1;fill-rule:evenodd;stroke:#000000;stroke-width:0.06;stroke-linecap:round;stroke-linejoin:round;stroke-miterlimit:10;stroke-dasharray:none;stroke-opacity:1"
                 id="path54"
                 inkscape:connector-curvature="0" /></g><g
               id="g56"
               transform="translate(135.42,814.22)"><path
                 d="M 0,0 V -0.36 C -0.071,-0.559 -0.218,-0.865 -0.36,-1.02 L -0.48,-1.14 -0.54,-1.2 -0.66,-1.26 H -0.72 L -0.78,-1.32 -0.9,-1.38 H -0.96 L -1.02,-1.44 H -1.8 l -0.06,0.06 h -0.06 l -0.12,0.06 -0.06,0.06 h -0.06 l -0.12,0.06 -0.06,0.06 -0.24,0.24 -0.06,0.12 -0.06,0.06 v 0.06 l -0.06,0.12 v 0.06 l -0.06,0.06 v 0.18 l -0.06,0.12 v 0.18 l 0.06,0.12 c 0.01,0.24 0.121,0.459 0.24,0.66 l 0.24,0.24 0.06,0.06 0.06,0.06 0.12,0.06 h 0.06 l 0.06,0.06 h 0.12 l 0.06,0.06 h 0.3 l 0.06,0.06 h 0.12 l 0.06,-0.06 h 0.18 l 0.12,-0.06 h 0.06 l 0.12,-0.06 h 0.06 L -0.66,1.2 -0.6,1.14 -0.48,1.08 -0.18,0.78 V 0.66 L -0.06,0.54 V 0.42 L 0,0.36 v -0.3 z"
                 style="fill:#000000;fill-opacity:1;fill-rule:evenodd;stroke:#000000;stroke-width:0.06;stroke-linecap:round;stroke-linejoin:round;stroke-miterlimit:10;stroke-dasharray:none;stroke-opacity:1"
                 id="path58"
                 inkscape:connector-curvature="0" /></g><g
               id="g60"
               transform="translate(106.62,814.22)"><path
                 d="M 0,0 V -0.36 L -0.06,-0.48 V -0.54 L -0.12,-0.66 V -0.72 L -0.24,-0.84 -0.3,-0.96 -0.48,-1.14 -0.54,-1.2 -0.66,-1.26 H -0.72 L -0.78,-1.32 -0.9,-1.38 h -0.06 l -0.06,-0.06 h -0.72 l -0.12,0.06 h -0.06 l -0.12,0.06 -0.06,0.06 h -0.06 l -0.12,0.06 -0.06,0.06 -0.24,0.24 -0.06,0.12 v 0.06 l -0.06,0.06 -0.06,0.12 v 0.06 l -0.06,0.06 v 0.3 L -2.88,0 -2.82,0.06 V 0.3 l 0.06,0.12 V 0.48 L -2.7,0.6 v 0.06 l 0.06,0.06 0.06,0.12 0.24,0.24 0.06,0.06 0.12,0.06 0.06,0.06 h 0.06 l 0.12,0.06 h 0.06 l 0.06,0.06 h 0.3 l 0.06,0.06 h 0.12 l 0.06,-0.06 h 0.18 l 0.12,-0.06 h 0.06 l 0.12,-0.06 h 0.06 l 0.06,-0.06 0.12,-0.06 0.06,-0.06 0.3,-0.3 V 0.66 L -0.06,0.54 V 0.42 L 0,0.36 v -0.3 z"
                 style="fill:#000000;fill-opacity:1;fill-rule:evenodd;stroke:#000000;stroke-width:0.06;stroke-linecap:round;stroke-linejoin:round;stroke-miterlimit:10;stroke-dasharray:none;stroke-opacity:1"
                 id="path62"
                 inkscape:connector-curvature="0" /></g><g
               id="g64"
               transform="translate(62.279999,821.3)"><path
                 d="M 0,0 -0.12,-0.12 H -21.9 L -22.02,0 V 0.18 L -21.9,0.3 H -0.12 L 0,0.18 Z"
                 style="fill:#000000;fill-opacity:1;fill-rule:evenodd;stroke:#000000;stroke-width:0.06;stroke-linecap:round;stroke-linejoin:round;stroke-miterlimit:10;stroke-dasharray:none;stroke-opacity:1"
                 id="path66"
                 inkscape:connector-curvature="0" /></g><g
               id="g68"
               transform="translate(41.880005,821.42)"><path
                 d="M 0,0 V -0.18 L -0.06,-0.3 V -0.48 L -0.12,-0.54 -0.18,-0.66 V -0.72 L -0.24,-0.78 -0.3,-0.9 -0.36,-0.96 -0.42,-1.02 -0.48,-1.08 -0.54,-1.14 -0.6,-1.2 -0.66,-1.26 H -0.78 L -0.84,-1.32 -0.9,-1.38 h -0.12 l -0.06,-0.06 c -0.16,0 -0.32,0 -0.48,0 H -1.8 l -0.12,0.06 h -0.06 l -0.06,0.06 h -0.12 l -0.06,0.06 -0.06,0.06 -0.12,0.06 -0.06,0.06 -0.06,0.06 -0.06,0.06 -0.06,0.06 v 0.12 l -0.12,0.12 -0.06,0.12 v 0.12 l -0.06,0.12 c 0,0.18 0,0.36 0,0.54 V 0.3 l 0.06,0.12 v 0.06 l 0.06,0.12 c 0.133,0.129 -0.023,0.144 0.3,0.42 l 0.06,0.06 0.12,0.06 0.12,0.12 h 0.06 l 0.12,0.06 h 0.06 l 0.12,0.06 h 0.24 l 0.12,0.06 0.06,-0.06 c 0.647,0.058 1.306,-0.567 1.32,-1.2 L 0,0.06 Z"
                 style="fill:#000000;fill-opacity:1;fill-rule:evenodd;stroke:#000000;stroke-width:0.06;stroke-linecap:round;stroke-linejoin:round;stroke-miterlimit:10;stroke-dasharray:none;stroke-opacity:1"
                 id="path70"
                 inkscape:connector-curvature="0" /></g><g
               id="g72"
               transform="translate(105.42,770.89999)"><path
                 d="M 0,0 -0.12,-0.12 H -0.3 L -0.42,0 V 7.38 L -0.3,7.5 h 0.18 L 0,7.38 Z"
                 style="fill:#000000;fill-opacity:1;fill-rule:evenodd;stroke:#000000;stroke-width:0.06;stroke-linecap:round;stroke-linejoin:round;stroke-miterlimit:10;stroke-dasharray:none;stroke-opacity:1"
                 id="path74"
                 inkscape:connector-curvature="0" /></g><g
               id="g76"
               transform="translate(105.42,763.7)"><path
                 d="M 0,0 -0.12,-0.12 H -0.3 L -0.42,0 V 7.38 L -0.3,7.5 h 0.18 L 0,7.38 Z"
                 style="fill:#000000;fill-opacity:1;fill-rule:evenodd;stroke:#000000;stroke-width:0.06;stroke-linecap:round;stroke-linejoin:round;stroke-miterlimit:10;stroke-dasharray:none;stroke-opacity:1"
                 id="path78"
                 inkscape:connector-curvature="0" /></g><g
               id="g80"
               transform="translate(62.279999,806.89999)"><path
                 d="M 0,0 -0.12,-0.12 H -7.5 L -7.62,0 V 0.18 L -7.5,0.3 h 7.38 L 0,0.18 Z"
                 style="fill:#000000;fill-opacity:1;fill-rule:evenodd;stroke:#000000;stroke-width:0.06;stroke-linecap:round;stroke-linejoin:round;stroke-miterlimit:10;stroke-dasharray:none;stroke-opacity:1"
                 id="path82"
                 inkscape:connector-curvature="0" /></g><g
               id="g84"
               transform="translate(55.080002,770.89999)"><path
                 d="M 0,0 -0.12,-0.12 H -0.3 L -0.42,0 v 36.18 l 0.12,0.12 h 0.18 L 0,36.18 Z"
                 style="fill:#000000;fill-opacity:1;fill-rule:evenodd;stroke:#000000;stroke-width:0.06;stroke-linecap:round;stroke-linejoin:round;stroke-miterlimit:10;stroke-dasharray:none;stroke-opacity:1"
                 id="path86"
                 inkscape:connector-curvature="0" /></g><g
               id="g88"
               transform="translate(105.42,770.89999)"><path
                 d="M 0,0 -0.12,-0.12 H -50.64 L -50.76,0 v 0.18 l 0.12,0.12 H -0.12 L 0,0.18 Z"
                 style="fill:#000000;fill-opacity:1;fill-rule:evenodd;stroke:#000000;stroke-width:0.06;stroke-linecap:round;stroke-linejoin:round;stroke-miterlimit:10;stroke-dasharray:none;stroke-opacity:1"
                 id="path90"
                 inkscape:connector-curvature="0" /></g><g
               id="g92"
               transform="translate(106.62,771.02)"><path
                 d="M 0,0 V -0.36 L -0.06,-0.48 V -0.54 L -0.12,-0.6 V -0.72 L -0.24,-0.84 -0.3,-0.96 -0.54,-1.2 -0.66,-1.26 H -0.72 L -0.78,-1.32 -0.9,-1.38 h -0.06 l -0.06,-0.06 h -0.72 l -0.12,0.06 h -0.06 l -0.12,0.06 -0.06,0.06 h -0.06 l -0.12,0.06 -0.3,0.3 -0.06,0.12 v 0.06 l -0.06,0.06 -0.06,0.12 v 0.06 l -0.06,0.12 v 0.24 L -2.88,0 -2.82,0.06 v 0.18 c -0.007,0.127 0.187,0.576 0.3,0.66 l 0.06,0.06 0.06,0.06 0.06,0.06 0.06,0.06 0.12,0.06 0.06,0.06 h 0.06 l 0.12,0.06 h 0.06 l 0.06,0.06 h 0.18 l 0.12,0.06 h 0.18 l 0.06,-0.06 h 0.3 L -0.9,1.32 -0.78,1.26 h 0.06 L -0.66,1.2 -0.54,1.14 -0.48,1.08 -0.42,1.02 -0.36,0.96 -0.3,0.9 -0.24,0.84 -0.18,0.78 V 0.66 L -0.06,0.54 V 0.42 L 0,0.36 v -0.3 z"
                 style="fill:#000000;fill-opacity:1;fill-rule:evenodd;stroke:#000000;stroke-width:0.06;stroke-linecap:round;stroke-linejoin:round;stroke-miterlimit:10;stroke-dasharray:none;stroke-opacity:1"
                 id="path94"
                 inkscape:connector-curvature="0" /></g><g
               id="g96"
               transform="translate(69.479996,806.89999)"><path
                 d="M 0,0 -0.12,-0.12 H -7.5 L -7.62,0 V 0.18 L -7.5,0.3 h 7.38 L 0,0.18 Z"
                 style="fill:#000000;fill-opacity:1;fill-rule:evenodd;stroke:#000000;stroke-width:0.06;stroke-linecap:round;stroke-linejoin:round;stroke-miterlimit:10;stroke-dasharray:none;stroke-opacity:1"
                 id="path98"
                 inkscape:connector-curvature="0" /></g><g
               id="g100"
               transform="translate(69.479996,821.3)"><path
                 d="M 0,0 -0.12,-0.12 H -7.5 L -7.62,0 V 0.18 L -7.5,0.3 h 7.38 L 0,0.18 Z"
                 style="fill:#000000;fill-opacity:1;fill-rule:evenodd;stroke:#000000;stroke-width:0.06;stroke-linecap:round;stroke-linejoin:round;stroke-miterlimit:10;stroke-dasharray:none;stroke-opacity:1"
                 id="path102"
                 inkscape:connector-curvature="0" /></g><g
               id="g104"
               transform="translate(105.42,814.10001)"><path
                 d="M 0,0 -0.12,-0.12 H -7.44 L -7.56,0 v 0.18 l 0.12,0.12 h 7.32 L 0,0.18 Z"
                 style="fill:#000000;fill-opacity:1;fill-rule:evenodd;stroke:#000000;stroke-width:0.06;stroke-linecap:round;stroke-linejoin:round;stroke-miterlimit:10;stroke-dasharray:none;stroke-opacity:1"
                 id="path106"
                 inkscape:connector-curvature="0" /></g><g
               id="g108"
               transform="translate(69.839996,799.58)"><path
                 d="M 0,0 -0.36,-0.36 H -0.78 L -1.14,0 v 29.22 l 0.36,0.36 h 0.42 L 0,29.22 Z"
                 style="fill:#000000;fill-opacity:1;fill-rule:evenodd;stroke:#000000;stroke-width:0.06;stroke-linecap:round;stroke-linejoin:round;stroke-miterlimit:10;stroke-dasharray:none;stroke-opacity:1"
                 id="path110"
                 inkscape:connector-curvature="0" /></g><g
               id="g112"
               transform="translate(98.639999,813.98)"><path
                 d="m 0,0 -0.24,-0.24 -28.98,-14.52 h -0.36 l -0.36,0.36 v 0.42 l 0.24,0.24 28.98,14.52 h 0.36 L 0,0.42 Z"
                 style="fill:#000000;fill-opacity:1;fill-rule:evenodd;stroke:#000000;stroke-width:0.06;stroke-linecap:round;stroke-linejoin:round;stroke-miterlimit:10;stroke-dasharray:none;stroke-opacity:1"
                 id="path114"
                 inkscape:connector-curvature="0" /></g><g
               id="g116"
               transform="translate(98.639999,813.98)"><path
                 d="m 0,0 -0.36,-0.36 h -0.36 l -28.98,14.52 -0.24,0.24 v 0.42 l 0.36,0.36 h 0.36 L -0.24,0.66 0,0.42 Z"
                 style="fill:#000000;fill-opacity:1;fill-rule:evenodd;stroke:#000000;stroke-width:0.06;stroke-linecap:round;stroke-linejoin:round;stroke-miterlimit:10;stroke-dasharray:none;stroke-opacity:1"
                 id="path118"
                 inkscape:connector-curvature="0" /></g><g
               id="g120"
               transform="translate(73.080002,819.5)"><path
                 d="M 0,0 -0.12,-0.12 H -0.3 L -0.42,0 V 3.78 L -0.3,3.9 h 0.18 L 0,3.78 Z"
                 style="fill:#000000;fill-opacity:1;fill-rule:evenodd;stroke:#000000;stroke-width:0.06;stroke-linecap:round;stroke-linejoin:round;stroke-miterlimit:10;stroke-dasharray:none;stroke-opacity:1"
                 id="path122"
                 inkscape:connector-curvature="0" /></g><g
               id="g124"
               transform="translate(74.880005,821.3)"><path
                 d="M 0,0 -0.12,-0.12 H -3.9 L -4.02,0 V 0.18 L -3.9,0.3 h 3.78 L 0,0.18 Z"
                 style="fill:#000000;fill-opacity:1;fill-rule:evenodd;stroke:#000000;stroke-width:0.06;stroke-linecap:round;stroke-linejoin:round;stroke-miterlimit:10;stroke-dasharray:none;stroke-opacity:1"
                 id="path126"
                 inkscape:connector-curvature="0" /></g><g
               id="g128"
               transform="translate(74.880005,806.89999)"><path
                 d="M 0,0 -0.12,-0.12 H -3.9 L -4.02,0 V 0.18 L -3.9,0.3 h 3.78 L 0,0.18 Z"
                 style="fill:#000000;fill-opacity:1;fill-rule:evenodd;stroke:#000000;stroke-width:0.06;stroke-linecap:round;stroke-linejoin:round;stroke-miterlimit:10;stroke-dasharray:none;stroke-opacity:1"
                 id="path130"
                 inkscape:connector-curvature="0" /></g><g
               id="g132"
               transform="translate(108.06,742.10001)"><path
                 d="M 0,0 -0.24,-0.24 H -0.48 L -0.72,0 v 14.64 l 0.24,0.24 h 0.24 L 0,14.64 Z"
                 style="fill:#000000;fill-opacity:1;fill-rule:evenodd;stroke:#000000;stroke-width:0.06;stroke-linecap:round;stroke-linejoin:round;stroke-miterlimit:10;stroke-dasharray:none;stroke-opacity:1"
                 id="path134"
                 inkscape:connector-curvature="0" /></g><g
               id="g136"
               transform="translate(103.02,742.10001)"><path
                 d="M 0,0 -0.24,-0.24 H -0.48 L -0.72,0 v 14.64 l 0.24,0.24 h 0.24 L 0,14.64 Z"
                 style="fill:#000000;fill-opacity:1;fill-rule:evenodd;stroke:#000000;stroke-width:0.06;stroke-linecap:round;stroke-linejoin:round;stroke-miterlimit:10;stroke-dasharray:none;stroke-opacity:1"
                 id="path138"
                 inkscape:connector-curvature="0" /></g><g
               id="g140"
               transform="translate(105.42,756.5)"><path
                 d="M 0,0 -0.12,-0.12 H -0.3 L -0.42,0 V 7.38 L -0.3,7.5 h 0.18 L 0,7.38 Z"
                 style="fill:#000000;fill-opacity:1;fill-rule:evenodd;stroke:#000000;stroke-width:0.06;stroke-linecap:round;stroke-linejoin:round;stroke-miterlimit:10;stroke-dasharray:none;stroke-opacity:1"
                 id="path142"
                 inkscape:connector-curvature="0" /></g><g
               id="g144"
               transform="translate(108.06,756.5)"><path
                 d="M 0,0 -0.24,-0.24 H -5.52 L -5.76,0 v 0.24 l 0.24,0.24 h 5.28 L 0,0.24 Z"
                 style="fill:#000000;fill-opacity:1;fill-rule:evenodd;stroke:#000000;stroke-width:0.06;stroke-linecap:round;stroke-linejoin:round;stroke-miterlimit:10;stroke-dasharray:none;stroke-opacity:1"
                 id="path146"
                 inkscape:connector-curvature="0" /></g><g
               id="g148"
               transform="translate(108.06,742.10001)"><path
                 d="M 0,0 -0.24,-0.24 H -5.52 L -5.76,0 v 0.24 l 0.24,0.24 h 5.28 L 0,0.24 Z"
                 style="fill:#000000;fill-opacity:1;fill-rule:evenodd;stroke:#000000;stroke-width:0.06;stroke-linecap:round;stroke-linejoin:round;stroke-miterlimit:10;stroke-dasharray:none;stroke-opacity:1"
                 id="path150"
                 inkscape:connector-curvature="0" /></g><g
               id="g152"
               transform="translate(105.42,734.89999)"><path
                 d="M 0,0 -0.12,-0.12 H -0.3 L -0.42,0 V 7.38 L -0.3,7.5 h 0.18 L 0,7.38 Z"
                 style="fill:#000000;fill-opacity:1;fill-rule:evenodd;stroke:#000000;stroke-width:0.06;stroke-linecap:round;stroke-linejoin:round;stroke-miterlimit:10;stroke-dasharray:none;stroke-opacity:1"
                 id="path154"
                 inkscape:connector-curvature="0" /></g><g
               id="g156"
               transform="translate(108.06,785.3)"><path
                 d="M 0,0 -0.24,-0.24 H -0.48 L -0.72,0 v 14.64 l 0.24,0.24 h 0.24 L 0,14.64 Z"
                 style="fill:#000000;fill-opacity:1;fill-rule:evenodd;stroke:#000000;stroke-width:0.06;stroke-linecap:round;stroke-linejoin:round;stroke-miterlimit:10;stroke-dasharray:none;stroke-opacity:1"
                 id="path158"
                 inkscape:connector-curvature="0" /></g><g
               id="g160"
               transform="translate(103.02,785.3)"><path
                 d="M 0,0 -0.24,-0.24 H -0.48 L -0.72,0 v 14.64 l 0.24,0.24 h 0.24 L 0,14.64 Z"
                 style="fill:#000000;fill-opacity:1;fill-rule:evenodd;stroke:#000000;stroke-width:0.06;stroke-linecap:round;stroke-linejoin:round;stroke-miterlimit:10;stroke-dasharray:none;stroke-opacity:1"
                 id="path162"
                 inkscape:connector-curvature="0" /></g><g
               id="g164"
               transform="translate(105.42,799.7)"><path
                 d="M 0,0 -0.12,-0.12 H -0.3 L -0.42,0 V 7.38 L -0.3,7.5 h 0.18 L 0,7.38 Z"
                 style="fill:#000000;fill-opacity:1;fill-rule:evenodd;stroke:#000000;stroke-width:0.06;stroke-linecap:round;stroke-linejoin:round;stroke-miterlimit:10;stroke-dasharray:none;stroke-opacity:1"
                 id="path166"
                 inkscape:connector-curvature="0" /></g><g
               id="g168"
               transform="translate(108.06,799.7)"><path
                 d="M 0,0 -0.24,-0.24 H -5.52 L -5.76,0 v 0.24 l 0.24,0.24 h 5.28 L 0,0.24 Z"
                 style="fill:#000000;fill-opacity:1;fill-rule:evenodd;stroke:#000000;stroke-width:0.06;stroke-linecap:round;stroke-linejoin:round;stroke-miterlimit:10;stroke-dasharray:none;stroke-opacity:1"
                 id="path170"
                 inkscape:connector-curvature="0" /></g><g
               id="g172"
               transform="translate(108.06,785.3)"><path
                 d="M 0,0 -0.24,-0.24 H -5.52 L -5.76,0 v 0.24 l 0.24,0.24 h 5.28 L 0,0.24 Z"
                 style="fill:#000000;fill-opacity:1;fill-rule:evenodd;stroke:#000000;stroke-width:0.06;stroke-linecap:round;stroke-linejoin:round;stroke-miterlimit:10;stroke-dasharray:none;stroke-opacity:1"
                 id="path174"
                 inkscape:connector-curvature="0" /></g><g
               id="g176"
               transform="translate(105.42,778.10001)"><path
                 d="M 0,0 -0.12,-0.12 H -0.3 L -0.42,0 V 7.38 L -0.3,7.5 h 0.18 L 0,7.38 Z"
                 style="fill:#000000;fill-opacity:1;fill-rule:evenodd;stroke:#000000;stroke-width:0.06;stroke-linecap:round;stroke-linejoin:round;stroke-miterlimit:10;stroke-dasharray:none;stroke-opacity:1"
                 id="path178"
                 inkscape:connector-curvature="0" /></g><g
               id="g180"
               transform="translate(134.22,713.3)"><path
                 d="M 0,0 -0.12,-0.12 H -0.3 L -0.42,0 V 7.38 L -0.3,7.5 h 0.18 L 0,7.38 Z"
                 style="fill:#000000;fill-opacity:1;fill-rule:evenodd;stroke:#000000;stroke-width:0.06;stroke-linecap:round;stroke-linejoin:round;stroke-miterlimit:10;stroke-dasharray:none;stroke-opacity:1"
                 id="path182"
                 inkscape:connector-curvature="0" /></g><g
               id="g184"
               transform="translate(139.74001,713.3)"><path
                 d="M 0,0 -0.24,-0.24 H -11.28 L -11.52,0 v 0.24 l 0.24,0.24 H -0.24 L 0,0.24 Z"
                 style="fill:#000000;fill-opacity:1;fill-rule:evenodd;stroke:#000000;stroke-width:0.06;stroke-linecap:round;stroke-linejoin:round;stroke-miterlimit:10;stroke-dasharray:none;stroke-opacity:1"
                 id="path186"
                 inkscape:connector-curvature="0" /></g><text
               transform="matrix(0,1,0.99990197,0,98.98,738.6203)"
               style="font-variant:normal;font-weight:normal;font-stretch:normal;font-size:7.14069986px;font-family:Arial;-inkscape-font-specification:ArialMT;writing-mode:lr-tb;fill:#000000;fill-opacity:1;fill-rule:nonzero;stroke:none"
               id="text190"><tspan
                 x="0"
                 y="0"
                 id="tspan188">R</tspan></text>
<text
               transform="matrix(0,1,0.99990113,0,101.3284,743.2846)"
               style="font-variant:normal;font-weight:normal;font-stretch:normal;font-size:6.06839991px;font-family:Arial;-inkscape-font-specification:ArialMT;writing-mode:lr-tb;fill:#000000;fill-opacity:1;fill-rule:nonzero;stroke:none"
               id="text194"><tspan
                 x="0"
                 y="0"
                 id="tspan192">1</tspan></text>
<text
               transform="matrix(0,1,0.99990197,0,98.98,781.8144)"
               style="font-variant:normal;font-weight:normal;font-stretch:normal;font-size:7.14069986px;font-family:Arial;-inkscape-font-specification:ArialMT;writing-mode:lr-tb;fill:#000000;fill-opacity:1;fill-rule:nonzero;stroke:none"
               id="text198"><tspan
                 x="0"
                 y="0"
                 id="tspan196">R</tspan></text>
<text
               transform="matrix(0,1,0.99990481,0,101.2522,786.6347)"
               style="font-variant:normal;font-weight:normal;font-stretch:normal;font-size:6.30299997px;font-family:Arial;-inkscape-font-specification:ArialMT;writing-mode:lr-tb;fill:#000000;fill-opacity:1;fill-rule:nonzero;stroke:none"
               id="text202"><tspan
                 x="0"
                 y="0"
                 id="tspan200">2</tspan></text>
<text
               transform="matrix(1,0,0,-0.99990197,19.84,725.8203)"
               style="font-variant:normal;font-weight:normal;font-stretch:normal;font-size:7.14069986px;font-family:Arial;-inkscape-font-specification:ArialMT;writing-mode:lr-tb;fill:#000000;fill-opacity:1;fill-rule:nonzero;stroke:none"
               id="text208"><tspan
                 x="0 5.569746 10.739613"
                 y="0"
                 sodipodi:role="line"
                 id="tspan204">GND</tspan><tspan
                 x="118.54276"
                 y="-86.409615"
                 id="tspan206">U</tspan></text>
<text
               transform="matrix(1,0,0,-0.99990135,143.4778,809.876)"
               style="font-variant:normal;font-weight:normal;font-stretch:normal;font-size:6.08220005px;font-family:Arial;-inkscape-font-specification:ArialMT;writing-mode:lr-tb;fill:#000000;fill-opacity:1;fill-rule:nonzero;stroke:none"
               id="text212"><tspan
                 x="0"
                 y="0"
                 id="tspan210">A</tspan></text>
<text
               transform="matrix(1,0,0,-0.99990197,27.5124,820.42)"
               style="font-variant:normal;font-weight:normal;font-stretch:normal;font-size:7.14069986px;font-family:Arial;-inkscape-font-specification:ArialMT;writing-mode:lr-tb;fill:#000000;fill-opacity:1;fill-rule:nonzero;stroke:none"
               id="text216"><tspan
                 x="0"
                 y="0"
                 id="tspan214">U</tspan></text>
<text
               transform="matrix(1,0,0,-0.99990283,32.6724,818.1061)"
               style="font-variant:normal;font-weight:normal;font-stretch:normal;font-size:6.17479992px;font-family:Arial;-inkscape-font-specification:ArialMT;writing-mode:lr-tb;fill:#000000;fill-opacity:1;fill-rule:nonzero;stroke:none"
               id="text220"><tspan
                 x="0"
                 y="0"
                 id="tspan218">E</tspan></text>
<text
               transform="matrix(0,1,0.99990197,0,114.54,738.6203)"
               style="font-variant:normal;font-weight:normal;font-stretch:normal;font-size:7.14069986px;font-family:Arial;-inkscape-font-specification:ArialMT;writing-mode:lr-tb;fill:#000000;fill-opacity:1;fill-rule:nonzero;stroke:none"
               id="text224"><tspan
                 x="0 3.9595182 43.201237 47.160751 51.12027"
                 y="0"
                 sodipodi:role="line"
                 id="tspan222">1k10k</tspan></text>
<text
               transform="matrix(1,0,0,-0.99990197,126.78,706.2203)"
               style="font-variant:normal;font-weight:normal;font-stretch:normal;font-size:7.14069986px;font-family:Arial;-inkscape-font-specification:ArialMT;writing-mode:lr-tb;fill:#000000;fill-opacity:1;fill-rule:nonzero;stroke:none"
               id="text228"><tspan
                 x="0 5.569746 10.739613"
                 y="0"
                 sodipodi:role="line"
                 id="tspan226">GND</tspan></text>
<g
               id="g230"
               transform="translate(135.51694,727.90009)"><path
                 d="M 0,0 V -0.36 L -0.06,-0.48 V -0.54 L -0.12,-0.6 V -0.72 L -0.18,-0.78 -0.24,-0.84 -0.3,-0.9 -0.36,-1.02 -0.54,-1.2 H -0.66 L -0.78,-1.32 H -0.9 l -0.06,-0.06 h -0.06 l -0.12,-0.06 h -0.54 l -0.06,0.06 h -0.18 l -0.12,0.06 -0.12,0.12 h -0.12 l -0.18,0.18 c -0.103,0.098 -0.372,0.582 -0.36,0.72 v 0.18 L -2.88,0 -2.82,0.06 v 0.18 c 0.022,0.18 0.132,0.538 0.3,0.66 l 0.06,0.06 0.06,0.06 0.06,0.06 0.06,0.06 0.12,0.06 0.06,0.06 h 0.06 l 0.12,0.06 0.06,0.06 h 0.18 l 0.06,0.06 h 0.36 l 0.12,-0.06 h 0.18 L -0.9,1.32 h 0.12 L -0.72,1.26 -0.66,1.2 -0.54,1.14 -0.48,1.08 -0.42,1.02 -0.36,0.96 -0.3,0.9 -0.24,0.84 -0.18,0.78 V 0.66 L -0.12,0.6 -0.06,0.54 V 0.42 L 0,0.36 v -0.3 z"
                 style="fill:#000000;fill-opacity:1;fill-rule:evenodd;stroke:#000000;stroke-width:0.06;stroke-linecap:round;stroke-linejoin:round;stroke-miterlimit:10;stroke-dasharray:none;stroke-opacity:1"
                 id="path232"
                 inkscape:connector-curvature="0" /></g></g></g></g></g></g></svg>