<?xml version="1.0" encoding="UTF-8" standalone="no"?>
<!-- Created with Inkscape (http://www.inkscape.org/) -->

<svg
   xmlns:dc="http://purl.org/dc/elements/1.1/"
   xmlns:cc="http://creativecommons.org/ns#"
   xmlns:rdf="http://www.w3.org/1999/02/22-rdf-syntax-ns#"
   xmlns:svg="http://www.w3.org/2000/svg"
   xmlns="http://www.w3.org/2000/svg"
   xmlns:sodipodi="http://sodipodi.sourceforge.net/DTD/sodipodi-0.dtd"
   xmlns:inkscape="http://www.inkscape.org/namespaces/inkscape"
   version="1.1"
   id="svg2"
   xml:space="preserve"
   width="269.81448"
   height="144.91418"
   viewBox="0 0 269.81448 144.91418"
   sodipodi:docname="schem-diff.svg"
   inkscape:version="0.92.1 r"><metadata
     id="metadata8"><rdf:RDF><cc:Work
         rdf:about=""><dc:format>image/svg+xml</dc:format><dc:type
           rdf:resource="http://purl.org/dc/dcmitype/StillImage" /><dc:title></dc:title></cc:Work></rdf:RDF></metadata><defs
     id="defs6"><clipPath
       clipPathUnits="userSpaceOnUse"
       id="clipPath22"><path
         d="M 196.837,362.129 H 391.814 V 480.811 H 196.837 Z"
         id="path20"
         inkscape:connector-curvature="0" /></clipPath><clipPath
       clipPathUnits="userSpaceOnUse"
       id="clipPath736"><path
         d="M 0,0 H 1592 V 894 H 0 Z"
         id="path734"
         inkscape:connector-curvature="0" /></clipPath></defs><sodipodi:namedview
     pagecolor="#ffffff"
     bordercolor="#666666"
     borderopacity="1"
     objecttolerance="10"
     gridtolerance="10"
     guidetolerance="10"
     inkscape:pageopacity="0"
     inkscape:pageshadow="2"
     inkscape:window-width="1920"
     inkscape:window-height="1033"
     id="namedview4"
     showgrid="false"
     fit-margin-top="0"
     fit-margin-left="0"
     fit-margin-right="0"
     fit-margin-bottom="0"
     inkscape:zoom="2"
     inkscape:cx="272.4595"
     inkscape:cy="34.927292"
     inkscape:window-x="0"
     inkscape:window-y="0"
     inkscape:window-maximized="1"
     inkscape:current-layer="g726" /><g
     id="g10"
     inkscape:groupmode="layer"
     inkscape:label="Operationsverstaerker-Vorbereitungshilfe"
     transform="matrix(1.3333333,0,0,-1.3333333,107.36187,-478.76787)"><g
       id="g726"
       transform="matrix(0.14244,0,0,0.14244,-113.51177,-406.83244)"><path
         style="fill:#000000"
         d="m 1256.272,-426.16895 c -0.9534,1.14884 -1.026,2.04143 -0.2642,3.25 0.9197,1.45917 3.8011,1.69962 23.192,1.93531 l 22.1418,0.26913 v 51.8821 51.88209 l -3.5001,2.06513 c -1.9251,1.13582 -4.2585,3.65527 -5.1852,5.59877 l -1.6851,3.53365 H 1123.8416 956.71199 l -1.6723,-3.50684 c -1.9716,-4.13449 -6.9848,-7.48568 -11.1982,-7.48568 -4.2133,0 -9.2265,3.35119 -11.1981,7.48568 l -1.6723,3.50684 h -287.6296 -287.6295 l -1.6723,-3.50684 c -4.3709,-9.16577 -16.4728,-9.83081 -21.7386,-1.19461 -3.66039,6.00316 -1.39,13.87617 4.9466,17.1529 6.0171,3.11158 13.4138,0.69797 16.571,-5.40723 l 1.5742,-3.04422 h 287.8755 287.8756 l 2.0284,3.43795 c 1.1157,1.89087 3.4101,4.15242 5.0988,5.02568 l 3.0703,1.58773 v 82.47432 82.47432 h -56.4855 -56.4856 l -0.2644,-30.62849 c -0.2594,-30.03766 -0.3057,-30.65587 -2.4033,-32.04815 -1.989,-1.32023 -10.5695,2.79319 -122.5,58.72579 -66.1986,33.079997 -121.2863,60.998007 -122.417,62.040017 -1.9618,1.80796 -4.7271,1.90635 -60.5,2.15269 l -58.4442,0.25814 c 0.71299,96.088161 -0.13402,127.395335 -0.5,288.302453 l -3.5001,2.06513 c -1.9251,1.13582 -4.2584,3.65527 -5.1852,5.59877 l -1.6851,3.53365 h -47.6296 -47.6295 l -1.6723,-3.50684 c -4.3709,-9.16577 -16.4728,-9.83081 -21.7386,-1.19461 -3.66039,6.00316 -1.39,13.87617 4.9466,17.1529 6.0171,3.11158 13.4138,0.69797 16.571,-5.40723 l 1.5742,-3.04422 h 47.9486 47.9487 l 1.5742,3.04422 c 1.9431,3.7576 6.9839,6.9483 10.9771,6.9483 3.9933,0 9.034,-3.1907 10.9772,-6.9483 l 1.5742,-3.04422 h 81.9743 81.9743 v 9.8 c 0,6.28889 0.43,10.22993 1.2,11 1.7336,1.7336 122.8664,1.7336 124.6,0 0.7701,-0.77007 1.2,-4.71111 1.2,-11 v -9.8 h 81.9744 81.9743 l 1.5742,3.04422 c 1.9431,3.7576 6.9839,6.9483 10.9771,6.9483 3.9933,0 9.034,-3.1907 10.9772,-6.9483 l 1.5742,-3.04422 h 59.47431 59.4744 v 23 23 h 6.5 6.5 v -48.5 -48.5 h -6.5 -6.5 v 23.5 23.5 l -59.2501,-0.003 -59.25001,-0.003 -2.0012,-3.74604 c -1.139,-2.13203 -3.6153,-4.60829 -5.7473,-5.7473 l -3.7461,-2.00066 v -114.25 -114.2500026 h -58.5 -58.5 V -64.752773 -122.75277 h 56.9182 c 31.3051,0 57.6301,-0.27314 58.5,-0.60699 1.425,-0.5468 1.5818,-8.90671 1.5818,-84.31479 v -83.7078 l 3.5337,-1.68507 c 1.9435,-0.9268 4.4629,-3.26014 5.5988,-5.18522 l 2.0651,-3.50013 h 167.37561 167.3755 l 1.5743,3.04422 c 1.9057,3.68535 6.9617,6.94695 10.7768,6.95204 6.3785,0.009 12.6928,-6.20798 12.6928,-12.49626 0,-4.21334 -3.3512,-9.22653 -7.4857,-11.19813 l -3.5068,-1.67229 v -51.79602 -51.79601 l 22.6418,-0.26878 c 19.8579,-0.23572 22.7709,-0.47363 23.692,-1.93495 0.7618,-1.20859 0.6892,-2.10115 -0.2642,-3.25 -1.1647,-1.40332 -6.5859,-1.58382 -47.5696,-1.58382 -40.9837,0 -46.4049,0.1805 -47.5696,1.58382 z M 818.34149,-65.253363 v 111.4994 L 706.84029,-9.5018726 595.33909,-65.249793 706.59029,-120.94612 c 61.1882,-30.63299 111.3637,-55.72116 111.5012,-55.75149 0.1375,-0.0303 0.25,50.11957 0.25,111.444247 z m -26.3333,-75.832737 c -0.3667,0.36666 -0.6667,3.74166 -0.6667,7.5 v 6.83333 h -6.8333 c -7.3394,0 -8.7875,0.54705 -7.0355,2.65799 0.7171,0.86412 3.3685,1.34201 7.4456,1.34201 h 6.3319 l 0.2956,6.73966 c 0.2406,5.483 0.622,6.80188 2.0457,7.07333 1.5332,0.29232 1.75,-0.54272 1.75,-6.73967 v -7.07332 h 5.9182 c 6.8247,0 9.0818,-0.64794 9.0818,-2.60699 0,-1.06686 -1.756,-1.39301 -7.5,-1.39301 h -7.5 v -7.5 c 0,-5.58333 -0.3407,-7.5 -1.3333,-7.5 -0.7333,0 -1.6333,0.3 -2,0.66667 z m -14.9913,134.9913174 c -0.3619,0.3619 -0.1568,1.2619 0.4558,2 0.8367,1.00816 4.6701,1.34201 15.4095,1.34201 15.0797,0 17.4593,-0.35531 17.4593,-2.60699 0,-1.13382 -3.039,-1.39301 -16.3333,-1.39301 -8.9833,0 -16.6294,0.2961 -16.9913,0.65799 z m -76.699,4.82209 c 101.545,50.7737596 123.3547,61.3330496 125.2404,60.6358096 l 2.2832,-0.84427 0.2645,-30.63581 0.2644,-30.6358096 h 56.4856 56.4855 V 109.64845 222.04968 l -3.5001,2.06513 c -1.9251,1.13582 -4.2584,3.65527 -5.1852,5.59877 l -1.6851,3.53365 h -81.8148 -81.8148 v -10.3 c 0,-6.67778 -0.422,-10.72201 -1.2,-11.5 -1.7336,-1.7336 -122.8664,-1.7336 -124.6,0 -0.778,0.77799 -1.2,4.82222 -1.2,11.5 v 10.3 l -81.75,-0.003 -81.75,-0.003 -2.0012,-3.74604 c -1.139,-2.13203 -3.6153,-4.60829 -5.7473,-5.7473 l -3.7461,-2.00066 V -62.752773 h 56.0097 56.0096 z m 60.0236,236.0199226 v 17.5 h -56.5 -56.5 v -17.5 -17.5 h 56.5 56.5 z m 339.00011,0 v 48.5 h 6.5 6.5 v -23 -23 h 124 124 v 9.8 c 0,6.28889 0.4299,10.22993 1.2,11 1.7336,1.7336 122.8664,1.7336 124.6,0 0.7701,-0.77007 1.2,-4.71111 1.2,-11 v -9.8 h 21.9743 21.9743 l 1.5743,3.04422 c 3.3016,6.3846 11.1554,8.66882 17.1786,4.99626 8.1906,-4.99413 8.1906,-16.08683 0,-21.08096 -6.2293,-3.79821 -14.151,-1.27887 -17.3996,5.53364 l -1.6723,3.50684 h -21.8148 -21.8148 v -10.3 c 0,-6.67778 -0.422,-10.72201 -1.2,-11.5 -1.7336,-1.7336 -122.8664,-1.7336 -124.6,0 -0.778,0.77799 -1.2,4.82222 -1.2,11.5 v 10.3 h -124 -124 v -23.5 -23.5 h -6.5 -6.5 z m 381,0 v 17.5 h -56.5 -56.5 v -17.5 -17.5 h 56.5 56.5 z"
         id="path1739"
         inkscape:connector-curvature="0"
         sodipodi:nodetypes="ccscccccccccsccccccccccccccccccccscscccsccccccccccssccccsccscccsscccccccccccccccccccccccccscsccccccccsccccsscsccscccscscscscscccscssscsscccssscccccccccccscccsccscccccccccccccccccccccccccccsccsccccccccccsccsccccccccccccccccc" /><text
         xml:space="preserve"
         style="font-style:normal;font-weight:normal;font-size:210.61500549px;line-height:1.25;font-family:sans-serif;letter-spacing:0px;word-spacing:0px;fill:#000000;fill-opacity:1;stroke:none;stroke-width:5.26537514"
         x="225.50706"
         y="-223.29355"
         id="text1744"
         transform="scale(1,-1)"><tspan
           sodipodi:role="line"
           id="tspan1742"
           x="225.50706"
           y="-223.29355"
           style="font-size:70.20500183px;stroke-width:5.26537514">U<tspan
   style="font-size:56.16400146px;baseline-shift:sub"
   id="tspan1750">A</tspan></tspan></text>
<text
         xml:space="preserve"
         style="font-style:normal;font-weight:normal;font-size:210.61500549px;line-height:1.25;font-family:sans-serif;letter-spacing:0px;word-spacing:0px;fill:#000000;fill-opacity:1;stroke:none;stroke-width:5.26537514"
         x="1568.9697"
         y="-207.74002"
         id="text1744-3"
         transform="scale(1,-1)"><tspan
           sodipodi:role="line"
           id="tspan1742-6"
           x="1568.9697"
           y="-207.74002"
           style="font-size:70.20500183px;stroke-width:5.26537514">U<tspan
   style="font-size:56.16400146px;baseline-shift:sub;stroke-width:5.26537514"
   id="tspan1750-7">E</tspan></tspan></text>
<text
         xml:space="preserve"
         style="font-style:normal;font-weight:normal;font-size:210.61500549px;line-height:1.25;font-family:sans-serif;letter-spacing:0px;word-spacing:0px;fill:#000000;fill-opacity:1;stroke:none;stroke-width:5.26537514"
         x="1051.0812"
         y="-91.936218"
         id="text1744-5"
         transform="scale(1,-1)"><tspan
           sodipodi:role="line"
           id="tspan1742-3"
           x="1051.0812"
           y="-91.936218"
           style="font-size:70.20500183px;stroke-width:5.26537514">C<tspan
   style="font-size:56.16400146px;baseline-shift:sub;stroke-width:5.26537514"
   id="tspan1750-5">1</tspan></tspan></text>
<text
         xml:space="preserve"
         style="font-style:normal;font-weight:normal;font-size:210.61500549px;line-height:1.25;font-family:sans-serif;letter-spacing:0px;word-spacing:0px;fill:#000000;fill-opacity:1;stroke:none;stroke-width:5.26537514"
         x="656.30292"
         y="-284.095"
         id="text1744-6"
         transform="scale(1,-1)"><tspan
           sodipodi:role="line"
           id="tspan1742-2"
           x="656.30292"
           y="-284.095"
           style="font-size:70.20500183px;stroke-width:5.26537514">R<tspan
   style="font-size:56.16400146px;baseline-shift:sub;stroke-width:5.26537514"
   id="tspan1750-9">1</tspan></tspan></text>
</g></g></svg>