<?xml version="1.0" encoding="UTF-8" standalone="no"?>
<!-- Created with Inkscape (http://www.inkscape.org/) -->

<svg
   xmlns:dc="http://purl.org/dc/elements/1.1/"
   xmlns:cc="http://creativecommons.org/ns#"
   xmlns:rdf="http://www.w3.org/1999/02/22-rdf-syntax-ns#"
   xmlns:svg="http://www.w3.org/2000/svg"
   xmlns="http://www.w3.org/2000/svg"
   xmlns:sodipodi="http://sodipodi.sourceforge.net/DTD/sodipodi-0.dtd"
   xmlns:inkscape="http://www.inkscape.org/namespaces/inkscape"
   version="1.1"
   id="svg2"
   xml:space="preserve"
   width="287.9516"
   height="140.61961"
   viewBox="0 0 287.9516 140.61961"
   sodipodi:docname="schem-inv.svg"
   inkscape:version="0.92.1 r"><metadata
     id="metadata8"><rdf:RDF><cc:Work
         rdf:about=""><dc:format>image/svg+xml</dc:format><dc:type
           rdf:resource="http://purl.org/dc/dcmitype/StillImage" /><dc:title></dc:title></cc:Work></rdf:RDF></metadata><defs
     id="defs6"><clipPath
       clipPathUnits="userSpaceOnUse"
       id="clipPath116"><path
         d="M 15.8736,735.672 H 210.23 v 98.607 H 15.8736 Z"
         id="path114"
         inkscape:connector-curvature="0" /></clipPath></defs><sodipodi:namedview
     pagecolor="#ffffff"
     bordercolor="#666666"
     borderopacity="1"
     objecttolerance="10"
     gridtolerance="10"
     guidetolerance="10"
     inkscape:pageopacity="0"
     inkscape:pageshadow="2"
     inkscape:window-width="1920"
     inkscape:window-height="1033"
     id="namedview4"
     showgrid="false"
     fit-margin-top="0"
     fit-margin-left="0"
     fit-margin-right="0"
     fit-margin-bottom="0"
     inkscape:zoom="2.3786081"
     inkscape:cx="176.90753"
     inkscape:cy="23.888561"
     inkscape:window-x="0"
     inkscape:window-y="0"
     inkscape:window-maximized="1"
     inkscape:current-layer="g106" /><g
     id="g10"
     inkscape:groupmode="layer"
     inkscape:label="Operationsverstaerker-Vorbereitungshilfe"
     transform="matrix(1.3333333,0,0,-1.3333333,-7.5120648e-7,140.61964)"><text
       transform="matrix(1,0,0,-1,241.603,600.707)"
       style="font-variant:normal;font-weight:normal;font-size:11.9552002px;font-family:CMMI12;-inkscape-font-specification:CMMI12;writing-mode:lr-tb;fill:#000000;fill-opacity:1;fill-rule:nonzero;stroke:none"
       id="text94"><tspan
         x="0"
         y="0"
         id="tspan92">푣</tspan></text>
<g
       transform="matrix(1.16682,0,0,1.16682,182.551,477.251)"
       id="g106"><g
         transform="translate(-175.71065,-1148.6444)"
         id="g108"><g
           id="g110"><g
             clip-path="url(#clipPath116)"
             id="g112"><g
               transform="translate(127.08,797.17999)"
               id="g118"><path
                 inkscape:connector-curvature="0"
                 id="path120"
                 style="fill:#000000;fill-opacity:1;fill-rule:evenodd;stroke:#000000;stroke-width:0.06;stroke-linecap:round;stroke-linejoin:round;stroke-miterlimit:10;stroke-dasharray:none;stroke-opacity:1"
                 d="M 0,0 -0.12,-0.12 H -7.5 L -7.62,0 V 0.18 L -7.5,0.3 h 7.38 L 0,0.18 Z" /></g><g
               transform="translate(127.08,797.17999)"
               id="g122"><path
                 inkscape:connector-curvature="0"
                 id="path124"
                 style="fill:#000000;fill-opacity:1;fill-rule:evenodd;stroke:#000000;stroke-width:0.06;stroke-linecap:round;stroke-linejoin:round;stroke-miterlimit:10;stroke-dasharray:none;stroke-opacity:1"
                 d="M 0,0 -0.12,-0.12 H -0.3 L -0.42,0 v 21.78 l 0.12,0.12 h 0.18 L 0,21.78 Z" /></g><g
               transform="translate(127.08,818.78)"
               id="g126"><path
                 inkscape:connector-curvature="0"
                 id="path128"
                 style="fill:#000000;fill-opacity:1;fill-rule:evenodd;stroke:#000000;stroke-width:0.06;stroke-linecap:round;stroke-linejoin:round;stroke-miterlimit:10;stroke-dasharray:none;stroke-opacity:1"
                 d="M 0,0 -0.12,-0.12 H -14.7 L -14.82,0 V 0.18 L -14.7,0.3 H -0.12 L 0,0.18 Z" /></g><g
               transform="translate(112.67999,818.78)"
               id="g130"><path
                 inkscape:connector-curvature="0"
                 id="path132"
                 style="fill:#000000;fill-opacity:1;fill-rule:evenodd;stroke:#000000;stroke-width:0.06;stroke-linecap:round;stroke-linejoin:round;stroke-miterlimit:10;stroke-dasharray:none;stroke-opacity:1"
                 d="M 0,0 -0.12,-0.12 H -7.5 L -7.62,0 V 0.18 L -7.5,0.3 h 7.38 L 0,0.18 Z" /></g><g
               transform="translate(141.48,818.78)"
               id="g134"><path
                 inkscape:connector-curvature="0"
                 id="path136"
                 style="fill:#000000;fill-opacity:1;fill-rule:evenodd;stroke:#000000;stroke-width:0.06;stroke-linecap:round;stroke-linejoin:round;stroke-miterlimit:10;stroke-dasharray:none;stroke-opacity:1"
                 d="M 0,0 -0.12,-0.12 H -14.7 L -14.82,0 V 0.18 L -14.7,0.3 H -0.12 L 0,0.18 Z" /></g><g
               transform="translate(128.28,818.89999)"
               id="g138"><path
                 inkscape:connector-curvature="0"
                 id="path140"
                 style="fill:#000000;fill-opacity:1;fill-rule:evenodd;stroke:#000000;stroke-width:0.06;stroke-linecap:round;stroke-linejoin:round;stroke-miterlimit:10;stroke-dasharray:none;stroke-opacity:1"
                 d="M 0,0 V -0.36 C -0.069,-0.516 -0.241,-0.914 -0.36,-1.02 L -0.54,-1.2 -0.66,-1.26 H -0.72 L -0.78,-1.32 -0.9,-1.38 H -0.96 L -1.02,-1.44 H -1.8 l -0.06,0.06 h -0.06 l -0.12,0.06 -0.06,0.06 h -0.06 l -0.12,0.06 -0.12,0.12 c -0.312,0.284 -0.278,0.382 -0.42,0.72 v 0.12 l -0.06,0.12 v 0.18 l 0.06,0.12 v 0.18 l 0.06,0.06 V 0.48 L -2.7,0.6 v 0.06 l 0.06,0.06 0.06,0.12 0.06,0.06 0.06,0.06 0.06,0.06 0.06,0.06 0.06,0.06 0.06,0.06 0.12,0.06 h 0.06 l 0.06,0.06 h 0.12 l 0.06,0.06 h 0.18 l 0.12,0.06 h 0.18 l 0.06,-0.06 h 0.3 L -0.9,1.32 -0.78,1.26 h 0.06 L -0.66,1.2 -0.6,1.14 -0.48,1.08 -0.42,1.02 -0.36,0.96 -0.3,0.9 -0.18,0.78 V 0.66 L -0.06,0.54 V 0.42 L 0,0.36 v -0.3 z" /></g><g
               transform="translate(127.08,761.17999)"
               id="g142"><path
                 inkscape:connector-curvature="0"
                 id="path144"
                 style="fill:#000000;fill-opacity:1;fill-rule:evenodd;stroke:#000000;stroke-width:0.06;stroke-linecap:round;stroke-linejoin:round;stroke-miterlimit:10;stroke-dasharray:none;stroke-opacity:1"
                 d="M 0,0 -0.12,-0.12 H -86.64 L -86.76,0 v 0.18 l 0.12,0.12 H -0.12 L 0,0.18 Z" /></g><g
               transform="translate(191.88,761.17999)"
               id="g146"><path
                 inkscape:connector-curvature="0"
                 id="path148"
                 style="fill:#000000;fill-opacity:1;fill-rule:evenodd;stroke:#000000;stroke-width:0.06;stroke-linecap:round;stroke-linejoin:round;stroke-miterlimit:10;stroke-dasharray:none;stroke-opacity:1"
                 d="M 0,0 -0.12,-0.12 H -65.1 L -65.22,0 V 0.18 L -65.1,0.3 H -0.12 L 0,0.18 Z" /></g><g
               transform="translate(191.88,753.98)"
               id="g150"><path
                 inkscape:connector-curvature="0"
                 id="path152"
                 style="fill:#000000;fill-opacity:1;fill-rule:evenodd;stroke:#000000;stroke-width:0.06;stroke-linecap:round;stroke-linejoin:round;stroke-miterlimit:10;stroke-dasharray:none;stroke-opacity:1"
                 d="M 0,0 -0.12,-0.12 H -0.3 L -0.42,0 V 7.38 L -0.3,7.5 h 0.18 L 0,7.38 Z" /></g><g
               transform="translate(41.940002,761.3)"
               id="g154"><path
                 inkscape:connector-curvature="0"
                 id="path156"
                 style="fill:#000000;fill-opacity:1;fill-rule:evenodd;stroke:#000000;stroke-width:0.06;stroke-linecap:round;stroke-linejoin:round;stroke-miterlimit:10;stroke-dasharray:none;stroke-opacity:1"
                 d="M 0,0 V -0.12 L -0.06,-0.18 V -0.36 C -0.309,-0.958 -0.066,-0.505 -0.42,-1.02 L -0.48,-1.08 -0.54,-1.14 -0.6,-1.2 H -0.66 L -0.78,-1.26 -0.84,-1.32 H -0.9 L -1.02,-1.38 H -1.08 L -1.2,-1.44 h -0.54 l -0.06,0.06 h -0.18 l -0.12,0.06 -0.06,0.06 h -0.06 l -0.06,0.06 -0.12,0.06 -0.06,0.06 c -0.168,0.136 -0.348,0.518 -0.42,0.72 v 0.72 l 0.06,0.06 v 0.12 l 0.06,0.06 0.06,0.06 v 0.12 l 0.18,0.18 0.06,0.06 0.12,0.12 0.12,0.06 0.06,0.06 h 0.06 l 0.12,0.06 0.06,0.06 h 0.18 l 0.06,0.06 h 0.42 L -1.2,1.38 h 0.18 l 0.06,-0.06 h 0.12 L -0.72,1.2 -0.6,1.14 -0.54,1.08 C -0.319,0.855 -0.155,0.757 -0.12,0.42 L -0.06,0.36 V 0.18 L 0,0.06 Z" /></g><g
               transform="translate(127.08,782.78)"
               id="g158"><path
                 inkscape:connector-curvature="0"
                 id="path160"
                 style="fill:#000000;fill-opacity:1;fill-rule:evenodd;stroke:#000000;stroke-width:0.06;stroke-linecap:round;stroke-linejoin:round;stroke-miterlimit:10;stroke-dasharray:none;stroke-opacity:1"
                 d="M 0,0 -0.12,-0.12 H -7.5 L -7.62,0 V 0.18 L -7.5,0.3 h 7.38 L 0,0.18 Z" /></g><g
               transform="translate(127.08,761.17999)"
               id="g162"><path
                 inkscape:connector-curvature="0"
                 id="path164"
                 style="fill:#000000;fill-opacity:1;fill-rule:evenodd;stroke:#000000;stroke-width:0.06;stroke-linecap:round;stroke-linejoin:round;stroke-miterlimit:10;stroke-dasharray:none;stroke-opacity:1"
                 d="M 0,0 -0.12,-0.12 H -0.3 L -0.42,0 v 21.78 l 0.12,0.12 h 0.18 L 0,21.78 Z" /></g><g
               transform="translate(128.28,761.3)"
               id="g166"><path
                 inkscape:connector-curvature="0"
                 id="path168"
                 style="fill:#000000;fill-opacity:1;fill-rule:evenodd;stroke:#000000;stroke-width:0.06;stroke-linecap:round;stroke-linejoin:round;stroke-miterlimit:10;stroke-dasharray:none;stroke-opacity:1"
                 d="M 0,0 V -0.36 L -0.06,-0.48 V -0.54 L -0.12,-0.6 -0.18,-0.72 V -0.78 L -0.24,-0.84 -0.3,-0.9 -0.36,-1.02 -0.42,-1.08 -0.48,-1.14 -0.54,-1.2 H -0.66 L -0.72,-1.26 -0.78,-1.32 H -0.9 l -0.06,-0.06 h -0.06 l -0.12,-0.06 h -0.54 l -0.12,0.06 h -0.12 l -0.12,0.06 -0.06,0.06 h -0.06 l -0.12,0.06 -0.06,0.06 -0.06,0.06 -0.06,0.06 -0.06,0.06 -0.06,0.12 -0.06,0.06 -0.06,0.06 v 0.06 l -0.06,0.12 v 0.06 l -0.06,0.12 v 0.18 l -0.06,0.06 v 0.18 l 0.06,0.12 v 0.18 l 0.06,0.06 V 0.54 L -2.7,0.6 v 0.06 l 0.06,0.12 0.42,0.42 0.12,0.06 h 0.06 l 0.06,0.06 0.12,0.06 h 0.18 l 0.06,0.06 h 0.36 l 0.12,-0.06 h 0.18 L -0.9,1.32 h 0.12 l 0.18,-0.18 0.12,-0.06 0.3,-0.3 V 0.66 L -0.12,0.6 -0.06,0.54 V 0.42 L 0,0.36 v -0.3 z" /></g><g
               transform="translate(76.740006,789.98)"
               id="g170"><path
                 inkscape:connector-curvature="0"
                 id="path172"
                 style="fill:#000000;fill-opacity:1;fill-rule:evenodd;stroke:#000000;stroke-width:0.06;stroke-linecap:round;stroke-linejoin:round;stroke-miterlimit:10;stroke-dasharray:none;stroke-opacity:1"
                 d="M 0,0 -0.12,-0.12 H -7.5 L -7.62,0 V 0.18 L -7.5,0.3 h 7.38 L 0,0.18 Z" /></g><g
               transform="translate(69.539993,789.98)"
               id="g174"><path
                 inkscape:connector-curvature="0"
                 id="path176"
                 style="fill:#000000;fill-opacity:1;fill-rule:evenodd;stroke:#000000;stroke-width:0.06;stroke-linecap:round;stroke-linejoin:round;stroke-miterlimit:10;stroke-dasharray:none;stroke-opacity:1"
                 d="M 0,0 -0.12,-0.12 H -29.1 L -29.22,0 V 0.18 L -29.1,0.3 H -0.12 L 0,0.18 Z" /></g><g
               transform="translate(41.940002,790.10001)"
               id="g178"><path
                 inkscape:connector-curvature="0"
                 id="path180"
                 style="fill:#000000;fill-opacity:1;fill-rule:evenodd;stroke:#000000;stroke-width:0.06;stroke-linecap:round;stroke-linejoin:round;stroke-miterlimit:10;stroke-dasharray:none;stroke-opacity:1"
                 d="M 0,0 V -0.12 L -0.06,-0.18 V -0.36 L -0.12,-0.48 V -0.54 L -0.18,-0.6 V -0.72 L -0.3,-0.84 -0.36,-0.96 -0.42,-1.02 -0.48,-1.08 -0.54,-1.14 -0.6,-1.2 H -0.66 L -0.78,-1.26 -0.84,-1.32 -0.9,-1.38 H -1.08 L -1.2,-1.44 h -0.42 c -0.228,-0.03 -0.493,0.122 -0.66,0.24 l -0.12,0.06 -0.06,0.06 c -0.169,0.137 -0.348,0.518 -0.42,0.72 v 0.72 l 0.06,0.06 v 0.12 l 0.12,0.12 v 0.12 l 0.18,0.18 0.06,0.06 0.12,0.12 0.12,0.06 0.06,0.06 h 0.06 l 0.12,0.06 0.06,0.06 h 0.18 l 0.06,0.06 h 0.42 L -1.2,1.38 h 0.18 l 0.06,-0.06 0.12,-0.06 h 0.06 L -0.72,1.2 -0.6,1.14 -0.54,1.08 C -0.319,0.855 -0.155,0.756 -0.12,0.42 L -0.06,0.36 V 0.18 L 0,0.06 Z" /></g><g
               transform="translate(83.940002,818.78)"
               id="g182"><path
                 inkscape:connector-curvature="0"
                 id="path184"
                 style="fill:#000000;fill-opacity:1;fill-rule:evenodd;stroke:#000000;stroke-width:0.06;stroke-linecap:round;stroke-linejoin:round;stroke-miterlimit:10;stroke-dasharray:none;stroke-opacity:1"
                 d="M 0,0 -0.12,-0.12 H -14.7 L -14.82,0 V 0.18 L -14.7,0.3 H -0.12 L 0,0.18 Z" /></g><g
               transform="translate(69.539993,789.98)"
               id="g186"><path
                 inkscape:connector-curvature="0"
                 id="path188"
                 style="fill:#000000;fill-opacity:1;fill-rule:evenodd;stroke:#000000;stroke-width:0.06;stroke-linecap:round;stroke-linejoin:round;stroke-miterlimit:10;stroke-dasharray:none;stroke-opacity:1"
                 d="M 0,0 -0.12,-0.12 H -0.3 L -0.42,0 v 28.98 l 0.12,0.12 h 0.18 L 0,28.98 Z" /></g><g
               transform="translate(70.740006,790.10001)"
               id="g190"><path
                 inkscape:connector-curvature="0"
                 id="path192"
                 style="fill:#000000;fill-opacity:1;fill-rule:evenodd;stroke:#000000;stroke-width:0.06;stroke-linecap:round;stroke-linejoin:round;stroke-miterlimit:10;stroke-dasharray:none;stroke-opacity:1"
                 d="M 0,0 V -0.12 L -0.06,-0.18 V -0.36 L -0.12,-0.48 V -0.54 L -0.18,-0.6 V -0.72 L -0.3,-0.84 -0.36,-0.96 -0.42,-1.02 -0.48,-1.08 -0.54,-1.14 -0.6,-1.2 H -0.66 L -0.78,-1.26 -0.84,-1.32 -0.9,-1.38 H -1.08 L -1.2,-1.44 h -0.42 c -0.228,-0.03 -0.493,0.122 -0.66,0.24 l -0.12,0.06 -0.06,0.06 c -0.169,0.137 -0.348,0.518 -0.42,0.72 v 0.72 l 0.06,0.06 v 0.12 l 0.12,0.12 v 0.12 l 0.36,0.36 0.12,0.06 0.06,0.06 h 0.06 l 0.12,0.06 0.06,0.06 h 0.18 l 0.06,0.06 h 0.42 L -1.2,1.38 h 0.18 l 0.06,-0.06 0.12,-0.06 h 0.06 L -0.72,1.2 -0.6,1.14 -0.54,1.08 C -0.319,0.855 -0.155,0.756 -0.12,0.42 L -0.06,0.36 V 0.18 L 0,0.06 Z" /></g><g
               transform="translate(191.88,818.78)"
               id="g194"><path
                 inkscape:connector-curvature="0"
                 id="path196"
                 style="fill:#000000;fill-opacity:1;fill-rule:evenodd;stroke:#000000;stroke-width:0.06;stroke-linecap:round;stroke-linejoin:round;stroke-miterlimit:10;stroke-dasharray:none;stroke-opacity:1"
                 d="M 0,0 -0.12,-0.12 H -21.9 L -22.02,0 V 0.18 L -21.9,0.3 H -0.12 L 0,0.18 Z" /></g><g
               transform="translate(193.08,818.89999)"
               id="g198"><path
                 inkscape:connector-curvature="0"
                 id="path200"
                 style="fill:#000000;fill-opacity:1;fill-rule:evenodd;stroke:#000000;stroke-width:0.06;stroke-linecap:round;stroke-linejoin:round;stroke-miterlimit:10;stroke-dasharray:none;stroke-opacity:1"
                 d="M 0,0 V -0.3 L -0.06,-0.36 V -0.54 L -0.12,-0.6 -0.18,-0.72 V -0.78 L -0.24,-0.84 -0.3,-0.96 -0.48,-1.14 c -0.248,-0.126 -0.475,-0.33 -0.78,-0.3 H -1.8 l -0.06,0.06 h -0.12 l -0.06,0.06 -0.06,0.06 h -0.12 l -0.36,0.36 -0.06,0.12 -0.06,0.06 v 0.06 l -0.06,0.12 -0.06,0.06 v 0.18 l -0.06,0.06 v 0.42 l 0.06,0.06 v 0.18 l 0.06,0.06 V 0.6 l 0.12,0.12 0.06,0.12 0.06,0.06 0.06,0.06 0.06,0.06 0.06,0.06 0.06,0.06 0.06,0.06 0.12,0.06 h 0.06 l 0.06,0.06 h 0.12 l 0.06,0.06 h 0.18 l 0.12,0.06 h 0.18 l 0.06,-0.06 h 0.3 L -0.9,1.32 -0.84,1.26 h 0.12 L -0.66,1.2 -0.6,1.14 -0.54,1.08 -0.42,1.02 -0.36,0.96 -0.3,0.9 -0.24,0.84 V 0.78 L -0.18,0.66 -0.12,0.6 V 0.54 L -0.06,0.42 V 0.36 L 0,0.24 V 0.06 Z" /></g><g
               transform="translate(119.88,797.17999)"
               id="g202"><path
                 inkscape:connector-curvature="0"
                 id="path204"
                 style="fill:#000000;fill-opacity:1;fill-rule:evenodd;stroke:#000000;stroke-width:0.06;stroke-linecap:round;stroke-linejoin:round;stroke-miterlimit:10;stroke-dasharray:none;stroke-opacity:1"
                 d="M 0,0 -0.12,-0.12 H -7.5 L -7.62,0 V 0.18 L -7.5,0.3 h 7.38 L 0,0.18 Z" /></g><g
               transform="translate(119.88,782.78)"
               id="g206"><path
                 inkscape:connector-curvature="0"
                 id="path208"
                 style="fill:#000000;fill-opacity:1;fill-rule:evenodd;stroke:#000000;stroke-width:0.06;stroke-linecap:round;stroke-linejoin:round;stroke-miterlimit:10;stroke-dasharray:none;stroke-opacity:1"
                 d="M 0,0 -0.12,-0.12 H -7.5 L -7.62,0 V 0.18 L -7.5,0.3 h 7.38 L 0,0.18 Z" /></g><g
               transform="translate(83.940002,789.98)"
               id="g210"><path
                 inkscape:connector-curvature="0"
                 id="path212"
                 style="fill:#000000;fill-opacity:1;fill-rule:evenodd;stroke:#000000;stroke-width:0.06;stroke-linecap:round;stroke-linejoin:round;stroke-miterlimit:10;stroke-dasharray:none;stroke-opacity:1"
                 d="M 0,0 -0.12,-0.12 H -7.5 L -7.62,0 V 0.18 L -7.5,0.3 h 7.38 L 0,0.18 Z" /></g><g
               transform="translate(113.03999,775.46001)"
               id="g214"><path
                 inkscape:connector-curvature="0"
                 id="path216"
                 style="fill:#000000;fill-opacity:1;fill-rule:evenodd;stroke:#000000;stroke-width:0.06;stroke-linecap:round;stroke-linejoin:round;stroke-miterlimit:10;stroke-dasharray:none;stroke-opacity:1"
                 d="M 0,0 -0.36,-0.36 H -0.78 L -1.14,0 v 29.22 l 0.36,0.36 h 0.42 L 0,29.22 Z" /></g><g
               transform="translate(113.03999,804.25999)"
               id="g218"><path
                 inkscape:connector-curvature="0"
                 id="path220"
                 style="fill:#000000;fill-opacity:1;fill-rule:evenodd;stroke:#000000;stroke-width:0.06;stroke-linecap:round;stroke-linejoin:round;stroke-miterlimit:10;stroke-dasharray:none;stroke-opacity:1"
                 d="m 0,0 -0.24,-0.24 -28.92,-14.52 h -0.36 l -0.36,0.36 v 0.42 l 0.24,0.24 28.92,14.52 h 0.36 L 0,0.42 Z" /></g><g
               transform="translate(113.03999,775.46001)"
               id="g222"><path
                 inkscape:connector-curvature="0"
                 id="path224"
                 style="fill:#000000;fill-opacity:1;fill-rule:evenodd;stroke:#000000;stroke-width:0.06;stroke-linecap:round;stroke-linejoin:round;stroke-miterlimit:10;stroke-dasharray:none;stroke-opacity:1"
                 d="m 0,0 -0.36,-0.36 h -0.36 l -28.92,14.52 -0.24,0.24 v 0.42 l 0.36,0.36 h 0.36 L -0.24,0.66 0,0.42 Z" /></g><g
               transform="translate(109.08,780.98)"
               id="g226"><path
                 inkscape:connector-curvature="0"
                 id="path228"
                 style="fill:#000000;fill-opacity:1;fill-rule:evenodd;stroke:#000000;stroke-width:0.06;stroke-linecap:round;stroke-linejoin:round;stroke-miterlimit:10;stroke-dasharray:none;stroke-opacity:1"
                 d="M 0,0 -0.12,-0.12 H -0.3 L -0.42,0 V 3.78 L -0.3,3.9 h 0.18 L 0,3.78 Z" /></g><g
               transform="translate(110.88,782.78)"
               id="g230"><path
                 inkscape:connector-curvature="0"
                 id="path232"
                 style="fill:#000000;fill-opacity:1;fill-rule:evenodd;stroke:#000000;stroke-width:0.06;stroke-linecap:round;stroke-linejoin:round;stroke-miterlimit:10;stroke-dasharray:none;stroke-opacity:1"
                 d="M 0,0 -0.12,-0.12 H -3.9 L -4.02,0 V 0.18 L -3.9,0.3 h 3.78 L 0,0.18 Z" /></g><g
               transform="translate(110.88,797.17999)"
               id="g234"><path
                 inkscape:connector-curvature="0"
                 id="path236"
                 style="fill:#000000;fill-opacity:1;fill-rule:evenodd;stroke:#000000;stroke-width:0.06;stroke-linecap:round;stroke-linejoin:round;stroke-miterlimit:10;stroke-dasharray:none;stroke-opacity:1"
                 d="M 0,0 -0.12,-0.12 H -3.9 L -4.02,0 V 0.18 L -3.9,0.3 h 3.78 L 0,0.18 Z" /></g><g
               transform="translate(163.2,816.25999)"
               id="g238"><path
                 inkscape:connector-curvature="0"
                 id="path240"
                 style="fill:#000000;fill-opacity:1;fill-rule:evenodd;stroke:#000000;stroke-width:0.06;stroke-linecap:round;stroke-linejoin:round;stroke-miterlimit:10;stroke-dasharray:none;stroke-opacity:1"
                 d="M 0,0 -0.24,-0.24 H -14.88 L -15.12,0 v 0.24 l 0.24,0.24 H -0.24 L 0,0.24 Z" /></g><g
               transform="translate(163.2,821.3)"
               id="g242"><path
                 inkscape:connector-curvature="0"
                 id="path244"
                 style="fill:#000000;fill-opacity:1;fill-rule:evenodd;stroke:#000000;stroke-width:0.06;stroke-linecap:round;stroke-linejoin:round;stroke-miterlimit:10;stroke-dasharray:none;stroke-opacity:1"
                 d="M 0,0 -0.24,-0.24 H -14.88 L -15.12,0 v 0.24 l 0.24,0.24 H -0.24 L 0,0.24 Z" /></g><g
               transform="translate(170.28,818.78)"
               id="g246"><path
                 inkscape:connector-curvature="0"
                 id="path248"
                 style="fill:#000000;fill-opacity:1;fill-rule:evenodd;stroke:#000000;stroke-width:0.06;stroke-linecap:round;stroke-linejoin:round;stroke-miterlimit:10;stroke-dasharray:none;stroke-opacity:1"
                 d="M 0,0 -0.12,-0.12 H -7.5 L -7.62,0 V 0.18 L -7.5,0.3 h 7.38 L 0,0.18 Z" /></g><g
               transform="translate(163.2,816.25999)"
               id="g250"><path
                 inkscape:connector-curvature="0"
                 id="path252"
                 style="fill:#000000;fill-opacity:1;fill-rule:evenodd;stroke:#000000;stroke-width:0.06;stroke-linecap:round;stroke-linejoin:round;stroke-miterlimit:10;stroke-dasharray:none;stroke-opacity:1"
                 d="M 0,0 -0.24,-0.24 H -0.48 L -0.72,0 v 5.28 l 0.24,0.24 h 0.24 L 0,5.28 Z" /></g><g
               transform="translate(148.8,816.25999)"
               id="g254"><path
                 inkscape:connector-curvature="0"
                 id="path256"
                 style="fill:#000000;fill-opacity:1;fill-rule:evenodd;stroke:#000000;stroke-width:0.06;stroke-linecap:round;stroke-linejoin:round;stroke-miterlimit:10;stroke-dasharray:none;stroke-opacity:1"
                 d="M 0,0 -0.24,-0.24 H -0.48 L -0.72,0 v 5.28 l 0.24,0.24 h 0.24 L 0,5.28 Z" /></g><g
               transform="translate(148.67999,818.78)"
               id="g258"><path
                 inkscape:connector-curvature="0"
                 id="path260"
                 style="fill:#000000;fill-opacity:1;fill-rule:evenodd;stroke:#000000;stroke-width:0.06;stroke-linecap:round;stroke-linejoin:round;stroke-miterlimit:10;stroke-dasharray:none;stroke-opacity:1"
                 d="M 0,0 -0.12,-0.12 H -7.5 L -7.62,0 V 0.18 L -7.5,0.3 h 7.38 L 0,0.18 Z" /></g><g
               transform="translate(105.60001,816.25999)"
               id="g262"><path
                 inkscape:connector-curvature="0"
                 id="path264"
                 style="fill:#000000;fill-opacity:1;fill-rule:evenodd;stroke:#000000;stroke-width:0.06;stroke-linecap:round;stroke-linejoin:round;stroke-miterlimit:10;stroke-dasharray:none;stroke-opacity:1"
                 d="M 0,0 -0.24,-0.24 H -14.82 L -15.06,0 v 0.24 l 0.24,0.24 H -0.24 L 0,0.24 Z" /></g><g
               transform="translate(105.60001,821.3)"
               id="g266"><path
                 inkscape:connector-curvature="0"
                 id="path268"
                 style="fill:#000000;fill-opacity:1;fill-rule:evenodd;stroke:#000000;stroke-width:0.06;stroke-linecap:round;stroke-linejoin:round;stroke-miterlimit:10;stroke-dasharray:none;stroke-opacity:1"
                 d="M 0,0 -0.24,-0.24 H -14.82 L -15.06,0 v 0.24 l 0.24,0.24 H -0.24 L 0,0.24 Z" /></g><g
               transform="translate(112.67999,818.78)"
               id="g270"><path
                 inkscape:connector-curvature="0"
                 id="path272"
                 style="fill:#000000;fill-opacity:1;fill-rule:evenodd;stroke:#000000;stroke-width:0.06;stroke-linecap:round;stroke-linejoin:round;stroke-miterlimit:10;stroke-dasharray:none;stroke-opacity:1"
                 d="M 0,0 -0.12,-0.12 H -7.5 L -7.62,0 V 0.18 L -7.5,0.3 h 7.38 L 0,0.18 Z" /></g><g
               transform="translate(105.60001,816.25999)"
               id="g274"><path
                 inkscape:connector-curvature="0"
                 id="path276"
                 style="fill:#000000;fill-opacity:1;fill-rule:evenodd;stroke:#000000;stroke-width:0.06;stroke-linecap:round;stroke-linejoin:round;stroke-miterlimit:10;stroke-dasharray:none;stroke-opacity:1"
                 d="M 0,0 -0.24,-0.24 H -0.48 L -0.72,0 v 5.28 l 0.24,0.24 h 0.24 L 0,5.28 Z" /></g><g
               transform="translate(91.259995,816.25999)"
               id="g278"><path
                 inkscape:connector-curvature="0"
                 id="path280"
                 style="fill:#000000;fill-opacity:1;fill-rule:evenodd;stroke:#000000;stroke-width:0.06;stroke-linecap:round;stroke-linejoin:round;stroke-miterlimit:10;stroke-dasharray:none;stroke-opacity:1"
                 d="M 0,0 -0.24,-0.24 H -0.48 L -0.72,0 v 5.28 l 0.24,0.24 h 0.24 L 0,5.28 Z" /></g><g
               transform="translate(91.139999,818.78)"
               id="g282"><path
                 inkscape:connector-curvature="0"
                 id="path284"
                 style="fill:#000000;fill-opacity:1;fill-rule:evenodd;stroke:#000000;stroke-width:0.06;stroke-linecap:round;stroke-linejoin:round;stroke-miterlimit:10;stroke-dasharray:none;stroke-opacity:1"
                 d="M 0,0 -0.12,-0.12 H -7.5 L -7.62,0 V 0.18 L -7.5,0.3 h 7.38 L 0,0.18 Z" /></g><g
               transform="translate(191.88,746.78)"
               id="g286"><path
                 inkscape:connector-curvature="0"
                 id="path288"
                 style="fill:#000000;fill-opacity:1;fill-rule:evenodd;stroke:#000000;stroke-width:0.06;stroke-linecap:round;stroke-linejoin:round;stroke-miterlimit:10;stroke-dasharray:none;stroke-opacity:1"
                 d="M 0,0 -0.12,-0.12 H -0.3 L -0.42,0 V 7.38 L -0.3,7.5 h 0.18 L 0,7.38 Z" /></g><g
               transform="translate(197.39999,746.78)"
               id="g290"><path
                 inkscape:connector-curvature="0"
                 id="path292"
                 style="fill:#000000;fill-opacity:1;fill-rule:evenodd;stroke:#000000;stroke-width:0.06;stroke-linecap:round;stroke-linejoin:round;stroke-miterlimit:10;stroke-dasharray:none;stroke-opacity:1"
                 d="M 0,0 -0.24,-0.24 H -11.28 L -11.52,0 v 0.24 l 0.24,0.24 H -0.24 L 0,0.24 Z" /></g><text
               id="text296"
               style="font-variant:normal;font-weight:normal;font-stretch:normal;font-size:7.14069986px;font-family:Arial;-inkscape-font-specification:ArialMT;writing-mode:lr-tb;fill:#000000;fill-opacity:1;fill-rule:nonzero;stroke:none"
               transform="matrix(1,0,0,-0.99990197,144.8396,825.1001)"><tspan
                 id="tspan294"
                 y="0"
                 x="0">R</tspan></text>
<text
               id="text300"
               style="font-variant:normal;font-weight:normal;font-stretch:normal;font-size:6.0618px;font-family:Arial;-inkscape-font-specification:Arial;writing-mode:lr-tb;fill:#000000;fill-opacity:1;fill-rule:nonzero;stroke:none"
               transform="matrix(1,0,0,-0.99990102,149.8513,822.7503)"><tspan
                 id="tspan298"
                 y="0"
                 x="0">1</tspan></text>
<text
               id="text304"
               style="font-variant:normal;font-weight:normal;font-stretch:normal;font-size:7.14069986px;font-family:Arial;-inkscape-font-specification:ArialMT;writing-mode:lr-tb;fill:#000000;fill-opacity:1;fill-rule:nonzero;stroke:none"
               transform="matrix(1,0,0,-0.99990197,87.305542,825.1001)"><tspan
                 id="tspan302"
                 y="0"
                 x="0">R</tspan></text>
<text
               id="text308"
               style="font-variant:normal;font-weight:normal;font-stretch:normal;font-size:6.0625px;font-family:Arial;-inkscape-font-specification:Arial;writing-mode:lr-tb;fill:#000000;fill-opacity:1;fill-rule:nonzero;stroke:none"
               transform="matrix(1,0,0,-0.99990103,92.332,822.7497)"><tspan
                 id="tspan306"
                 y="0"
                 x="0">2</tspan></text>
<text
               id="text312"
               style="font-variant:normal;font-weight:normal;font-stretch:normal;font-size:7.14069986px;font-family:Arial;-inkscape-font-specification:ArialMT;writing-mode:lr-tb;fill:#000000;fill-opacity:1;fill-rule:nonzero;stroke:none"
               transform="matrix(1,0,0,-0.99990197,18.8998,758.0998)"><tspan
                 id="tspan310"
                 sodipodi:role="line"
                 y="0"
                 x="0 5.569746 10.739613">GND</tspan></text>
<text
               id="text316"
               style="font-variant:normal;font-weight:normal;font-stretch:normal;font-size:7.14069986px;font-family:Arial;-inkscape-font-specification:ArialMT;writing-mode:lr-tb;fill:#000000;fill-opacity:1;fill-rule:nonzero;stroke:none"
               transform="matrix(1,0,0,-0.99990197,27.8971,789.1017)"><tspan
                 id="tspan314"
                 y="0"
                 x="0">U</tspan></text>
<text
               id="text320"
               style="font-variant:normal;font-weight:normal;font-stretch:normal;font-size:6.16109991px;font-family:Arial;-inkscape-font-specification:ArialMT;writing-mode:lr-tb;fill:#000000;fill-opacity:1;fill-rule:nonzero;stroke:none"
               transform="matrix(1,0,0,-0.99988638,32.3997,786.7813)"><tspan
                 id="tspan318"
                 y="0"
                 x="0">A</tspan></text>
<text
               id="text324"
               style="font-variant:normal;font-weight:normal;font-stretch:normal;font-size:7.14069986px;font-family:Arial;-inkscape-font-specification:ArialMT;writing-mode:lr-tb;fill:#000000;fill-opacity:1;fill-rule:nonzero;stroke:none"
               transform="matrix(1,0,0,-0.99990197,195.839,817.8996)"><tspan
                 id="tspan322"
                 y="0"
                 x="0">U</tspan></text>
<text
               id="text328"
               style="font-variant:normal;font-weight:normal;font-stretch:normal;font-size:5.78189993px;font-family:Arial;-inkscape-font-specification:ArialMT;writing-mode:lr-tb;fill:#000000;fill-opacity:1;fill-rule:nonzero;stroke:none"
               transform="matrix(1,0,0,-0.99989623,200.7383,815.4588)"><tspan
                 id="tspan326"
                 y="0"
                 x="0">E</tspan></text>
<text
               id="text332"
               style="font-variant:normal;font-weight:normal;font-stretch:normal;font-size:7.14069986px;font-family:Arial;-inkscape-font-specification:ArialMT;writing-mode:lr-tb;fill:#000000;fill-opacity:1;fill-rule:nonzero;stroke:none"
               transform="matrix(1,0,0,-0.99990197,144.8339,809.5391)"><tspan
                 id="tspan330"
                 sodipodi:role="line"
                 y="0"
                 x="0 3.9595182">1k</tspan></text>
<text
               id="text338"
               style="font-variant:normal;font-weight:normal;font-stretch:normal;font-size:7.14069986px;font-family:Arial;-inkscape-font-specification:ArialMT;writing-mode:lr-tb;fill:#000000;fill-opacity:1;fill-rule:nonzero;stroke:none"
               transform="matrix(1,0,0,-0.99990197,87.279858,809.5391)"><tspan
                 id="tspan334"
                 sodipodi:role="line"
                 y="0"
                 x="0 3.9595182 7.9190364">10k</tspan><tspan
                 id="tspan336"
                 sodipodi:role="line"
                 y="69.850327"
                 x="97.156364 102.72611 107.89597">GND</tspan></text>
<g
               transform="translate(193.11354,761.02448)"
               id="g340"><path
                 inkscape:connector-curvature="0"
                 id="path342"
                 style="fill:#000000;fill-opacity:1;fill-rule:evenodd;stroke:#000000;stroke-width:0.06;stroke-linecap:round;stroke-linejoin:round;stroke-miterlimit:10;stroke-dasharray:none;stroke-opacity:1"
                 d="M 0,0 V -0.36 C -0.069,-0.516 -0.241,-0.914 -0.36,-1.02 L -0.54,-1.2 -0.66,-1.26 H -0.72 L -0.78,-1.32 -0.9,-1.38 H -0.96 L -1.02,-1.44 H -1.8 l -0.06,0.06 h -0.06 l -0.12,0.06 -0.06,0.06 h -0.06 l -0.12,0.06 -0.12,0.12 c -0.312,0.284 -0.278,0.382 -0.42,0.72 v 0.12 l -0.06,0.12 v 0.18 l 0.06,0.12 v 0.18 l 0.06,0.06 V 0.48 L -2.7,0.6 v 0.06 l 0.06,0.06 0.06,0.12 0.06,0.06 0.06,0.06 0.06,0.06 0.06,0.06 0.06,0.06 0.06,0.06 0.12,0.06 h 0.06 l 0.06,0.06 h 0.12 l 0.06,0.06 h 0.18 l 0.12,0.06 h 0.18 l 0.06,-0.06 h 0.3 L -0.9,1.32 -0.78,1.26 h 0.06 L -0.66,1.2 -0.6,1.14 -0.48,1.08 -0.42,1.02 -0.36,0.96 -0.3,0.9 -0.18,0.78 V 0.66 L -0.06,0.54 V 0.42 L 0,0.36 v -0.3 z" /></g></g></g></g></g></g></svg>