<?xml version="1.0" encoding="UTF-8" standalone="no"?>
<svg
   xmlns:dc="http://purl.org/dc/elements/1.1/"
   xmlns:cc="http://creativecommons.org/ns#"
   xmlns:rdf="http://www.w3.org/1999/02/22-rdf-syntax-ns#"
   xmlns:svg="http://www.w3.org/2000/svg"
   xmlns="http://www.w3.org/2000/svg"
   xmlns:sodipodi="http://sodipodi.sourceforge.net/DTD/sodipodi-0.dtd"
   xmlns:inkscape="http://www.inkscape.org/namespaces/inkscape"
   width="1249"
   height="908"
   viewBox="-50 -51 1249 908"
   version="1.1"
   id="svg5079"
   sodipodi:docname="2-1-sch.svg"
   inkscape:version="0.92.1 r">
  <sodipodi:namedview
     pagecolor="#ffffff"
     bordercolor="#666666"
     borderopacity="1"
     objecttolerance="10"
     gridtolerance="10"
     guidetolerance="10"
     inkscape:pageopacity="0"
     inkscape:pageshadow="2"
     inkscape:window-width="3840"
     inkscape:window-height="2047"
     id="namedview5081"
     showgrid="false"
     inkscape:zoom="5.5852091"
     inkscape:cx="647.01926"
     inkscape:cy="638.53101"
     inkscape:window-x="0"
     inkscape:window-y="0"
     inkscape:window-maximized="1"
     inkscape:current-layer="svg5079" />
  <metadata
     id="metadata5085">
    <rdf:RDF>
      <cc:Work
         rdf:about="">
        <dc:format>image/svg+xml</dc:format>
        <dc:type
           rdf:resource="http://purl.org/dc/dcmitype/StillImage" />
      </cc:Work>
    </rdf:RDF>
  </metadata>
  <defs
     id="defs5083">
    <marker
       inkscape:stockid="Arrow1Lend"
       orient="auto"
       refY="0.0"
       refX="0.0"
       id="Arrow1Lend"
       style="overflow:visible;"
       inkscape:isstock="true">
      <path
         id="path6704"
         d="M 0.0,0.0 L 5.0,-5.0 L -12.5,0.0 L 5.0,5.0 L 0.0,0.0 z "
         style="fill-rule:evenodd;stroke:#000000;stroke-width:1pt;stroke-opacity:1;fill:#000000;fill-opacity:1"
         transform="scale(0.8) rotate(180) translate(12.5,0)" />
    </marker>
    <clipPath
       id="clipPath5089"
       clipPathUnits="userSpaceOnUse">
      <rect
         y="149.53987"
         x="428.56107"
         height="152.43056"
         width="223.83492"
         id="rect5091"
         style="fill:#ffffff;fill-opacity:1;stroke:#000000;stroke-width:1.00157475;stroke-miterlimit:4;stroke-dasharray:none;stroke-dashoffset:0;stroke-opacity:1;shape-rendering:crispEdges" />
    </clipPath>
  </defs>
  <title
     id="title4805">New Schematic</title>
  <style
     id="style4807"
     type="text/css">
path, polyline, polygon {stroke-linejoin:round;}
path, polyline, polygon, line {stroke-linecap:round;}
rect, circle, ellipse, polyline, line, polygon, path {shape-rendering:crispEdges;}
</style>
  <g
     id="g4953">
    <g
       display="none"
       id="g4813"
       style="display:none">
      <text
         x="572.64062"
         y="-3"
         font-size="7pt"
         id="text4811"
         style="font-size:9.33333302px;font-family:Arial;text-anchor:start;fill:#000080">NO</text>
    </g>
    <g
       display="none"
       id="g4817"
       style="display:none">
      <text
         x="572.64844"
         y="-13.703125"
         font-size="7pt"
         id="text4815"
         style="font-size:9.33333302px;font-family:Arial;text-anchor:start;fill:#000080">.</text>
    </g>
    <path
       d="M 206,10 V 0 m 0,796 v 10 M 402,10 V 0 m 0,796 v 10 M 598,10 V 0 m 0,796 v 10 M 794,10 V 0 m 0,796 v 10 M 990,10 V 0 m 0,796 v 10 M 10,206 H 0 m 1139,0 h 10 M 10,402 H 0 m 1139,0 h 10 M 10,598 H 0 m 1139,0 h 10 M 10,794 H 0 m 1139,0 h 10"
       id="path4819"
       inkscape:connector-curvature="0"
       style="fill:none;stroke:#880000;stroke-width:1;stroke-linecap:round;stroke-linejoin:round;shape-rendering:crispEdges" />
    <g
       id="g4823">
      <text
         x="1.5"
         y="108"
         font-size="7pt"
         font-style=""
         type="comment"
         font-weight=""
         id="text4821"
         style="font-size:9.33333302px;font-family:Verdana;text-anchor:start;fill:#880000">A</text>
    </g>
    <g
       id="g4827">
      <text
         x="1140.5"
         y="108"
         font-size="7pt"
         font-style=""
         type="comment"
         font-weight=""
         id="text4825"
         style="font-size:9.33333302px;font-family:Verdana;text-anchor:start;fill:#880000">A</text>
    </g>
    <g
       id="g4831">
      <text
         x="1.5"
         y="304"
         font-size="7pt"
         font-style=""
         type="comment"
         font-weight=""
         id="text4829"
         style="font-size:9.33333302px;font-family:Verdana;text-anchor:start;fill:#880000">B</text>
    </g>
    <g
       id="g4835">
      <text
         x="1140.5"
         y="304"
         font-size="7pt"
         font-style=""
         type="comment"
         font-weight=""
         id="text4833"
         style="font-size:9.33333302px;font-family:Verdana;text-anchor:start;fill:#880000">B</text>
    </g>
    <g
       id="g4839">
      <text
         x="1.5"
         y="500"
         font-size="7pt"
         font-style=""
         type="comment"
         font-weight=""
         id="text4837"
         style="font-size:9.33333302px;font-family:Verdana;text-anchor:start;fill:#880000">C</text>
    </g>
    <g
       id="g4843">
      <text
         x="1140.5"
         y="500"
         font-size="7pt"
         font-style=""
         type="comment"
         font-weight=""
         id="text4841"
         style="font-size:9.33333302px;font-family:Verdana;text-anchor:start;fill:#880000">C</text>
    </g>
    <g
       id="g4847">
      <text
         x="1.5"
         y="696"
         font-size="7pt"
         font-style=""
         type="comment"
         font-weight=""
         id="text4845"
         style="font-size:9.33333302px;font-family:Verdana;text-anchor:start;fill:#880000">D</text>
    </g>
    <g
       id="g4851">
      <text
         x="1140.5"
         y="696"
         font-size="7pt"
         font-style=""
         type="comment"
         font-weight=""
         id="text4849"
         style="font-size:9.33333302px;font-family:Verdana;text-anchor:start;fill:#880000">D</text>
    </g>
    <g
       id="g4855">
      <text
         x="108"
         y="8.5"
         font-size="7pt"
         font-style=""
         type="comment"
         font-weight=""
         id="text4853"
         style="font-size:9.33333302px;font-family:Verdana;text-anchor:start;fill:#880000">1</text>
    </g>
    <g
       id="g4859">
      <text
         x="108"
         y="804.5"
         font-size="7pt"
         font-style=""
         type="comment"
         font-weight=""
         id="text4857"
         style="font-size:9.33333302px;font-family:Verdana;text-anchor:start;fill:#880000">1</text>
    </g>
    <g
       id="g4863">
      <text
         x="304"
         y="8.5"
         font-size="7pt"
         font-style=""
         type="comment"
         font-weight=""
         id="text4861"
         style="font-size:9.33333302px;font-family:Verdana;text-anchor:start;fill:#880000">2</text>
    </g>
    <g
       id="g4867">
      <text
         x="304"
         y="804.5"
         font-size="7pt"
         font-style=""
         type="comment"
         font-weight=""
         id="text4865"
         style="font-size:9.33333302px;font-family:Verdana;text-anchor:start;fill:#880000">2</text>
    </g>
    <g
       id="g4871">
      <text
         x="500"
         y="8.5"
         font-size="7pt"
         font-style=""
         type="comment"
         font-weight=""
         id="text4869"
         style="font-size:9.33333302px;font-family:Verdana;text-anchor:start;fill:#880000">3</text>
    </g>
    <g
       id="g4875">
      <text
         x="500"
         y="804.5"
         font-size="7pt"
         font-style=""
         type="comment"
         font-weight=""
         id="text4873"
         style="font-size:9.33333302px;font-family:Verdana;text-anchor:start;fill:#880000">3</text>
    </g>
    <g
       id="g4879">
      <text
         x="696"
         y="8.5"
         font-size="7pt"
         font-style=""
         type="comment"
         font-weight=""
         id="text4877"
         style="font-size:9.33333302px;font-family:Verdana;text-anchor:start;fill:#880000">4</text>
    </g>
    <g
       id="g4883">
      <text
         x="696"
         y="804.5"
         font-size="7pt"
         font-style=""
         type="comment"
         font-weight=""
         id="text4881"
         style="font-size:9.33333302px;font-family:Verdana;text-anchor:start;fill:#880000">4</text>
    </g>
    <g
       id="g4887">
      <text
         x="892"
         y="8.5"
         font-size="7pt"
         font-style=""
         type="comment"
         font-weight=""
         id="text4885"
         style="font-size:9.33333302px;font-family:Verdana;text-anchor:start;fill:#880000">5</text>
    </g>
    <g
       id="g4891">
      <text
         x="892"
         y="804.5"
         font-size="7pt"
         font-style=""
         type="comment"
         font-weight=""
         id="text4889"
         style="font-size:9.33333302px;font-family:Verdana;text-anchor:start;fill:#880000">5</text>
    </g>
    <rect
       x="10"
       y="10"
       width="1129"
       height="786"
       id="rect4893"
       style="fill:none;stroke:#880000;stroke-width:1;shape-rendering:crispEdges" />
    <rect
       x="0"
       y="0"
       width="1149"
       height="806"
       id="rect4895"
       style="fill:none;stroke:#880000;stroke-width:1;shape-rendering:crispEdges" />
    <rect
       x="739"
       y="716"
       width="400"
       height="80"
       id="rect4897"
       style="fill:none;stroke:#880000;stroke-width:1;shape-rendering:crispEdges" />
    <polyline
       points="739 756 1139 756"
       id="polyline4899"
       style="fill:none;stroke:#880000;stroke-width:1;stroke-linecap:round;stroke-linejoin:round;shape-rendering:crispEdges" />
    <polyline
       points="739 776 1139 776"
       id="polyline4901"
       style="fill:none;stroke:#880000;stroke-width:1;stroke-linecap:round;stroke-linejoin:round;shape-rendering:crispEdges" />
    <polyline
       points="1059 716 1059 756"
       id="polyline4903"
       style="fill:none;stroke:#880000;stroke-width:1;stroke-linecap:round;stroke-linejoin:round;shape-rendering:crispEdges" />
    <polyline
       points="1019 756 1019 776"
       id="polyline4905"
       style="fill:none;stroke:#880000;stroke-width:1;stroke-linecap:round;stroke-linejoin:round;shape-rendering:crispEdges" />
    <polyline
       points="934 776 934 796"
       id="polyline4907"
       style="fill:none;stroke:#880000;stroke-width:1;stroke-linecap:round;stroke-linejoin:round;shape-rendering:crispEdges" />
    <g
       id="g4911">
      <text
         x="744"
         y="728"
         font-size="8pt"
         font-style=""
         type="comment"
         font-weight=""
         id="text4909"
         style="font-size:10.66666698px;font-family:Verdana;text-anchor:start;fill:#880000">TITLE:</text>
    </g>
    <g
       id="g4915">
      <text
         x="749"
         y="746"
         font-size="10pt"
         font-style=""
         type="comment"
         font-weight=""
         id="text4913"
         style="font-size:13.33333302px;font-family:Verdana;text-anchor:start;fill:#0000ff">New Schematic</text>
    </g>
    <g
       id="g4919">
      <text
         x="1065"
         y="742"
         font-size="8pt"
         font-style=""
         type="comment"
         font-weight=""
         id="text4917"
         style="font-size:10.66666698px;font-family:Verdana;text-anchor:start;fill:#880000">REV:</text>
    </g>
    <g
       id="g4923">
      <text
         x="1096"
         y="743"
         font-size="9pt"
         font-style=""
         type="comment"
         font-weight=""
         id="text4921"
         style="font-size:12px;font-family:Verdana;text-anchor:start;fill:#0000ff">1.0</text>
    </g>
    <g
       id="g4927">
      <text
         x="744"
         y="771"
         font-size="8pt"
         font-style=""
         type="comment"
         font-weight=""
         id="text4925"
         style="font-size:10.66666698px;font-family:Verdana;text-anchor:start;fill:#880000">Date:</text>
    </g>
    <g
       id="g4931">
      <text
         x="794"
         y="771"
         font-size="9pt"
         font-style=""
         type="comment"
         font-weight=""
         id="text4929"
         style="font-size:12px;font-family:Verdana;text-anchor:start;fill:#0000ff">2017-07-21</text>
    </g>
    <g
       id="g4935">
      <text
         x="1024"
         y="771"
         font-size="8pt"
         font-style=""
         type="comment"
         font-weight=""
         id="text4933"
         style="font-size:10.66666698px;font-family:Verdana;text-anchor:start;fill:#880000">Sheet:</text>
    </g>
    <g
       id="g4939">
      <text
         x="1069"
         y="771"
         font-size="9pt"
         font-style=""
         type="comment"
         font-weight=""
         id="text4937"
         style="font-size:12px;font-family:Verdana;text-anchor:start;fill:#0000ff">1/1</text>
    </g>
    <g
       id="g4943">
      <text
         x="744"
         y="791"
         font-size="8pt"
         font-style=""
         type="comment"
         font-weight=""
         id="text4941"
         style="font-size:10.66666698px;font-family:Verdana;text-anchor:start;fill:#880000">EasyEDA V4.5.6</text>
    </g>
    <g
       id="g4947">
      <text
         x="944"
         y="791"
         font-size="8pt"
         font-style=""
         type="comment"
         font-weight=""
         id="text4945"
         style="font-size:10.66666698px;font-family:Verdana;text-anchor:start;fill:#880000">Drawn By:</text>
    </g>
    <g
       id="g4951">
      <text
         x="1009"
         y="791"
         font-size="9pt"
         font-style=""
         type="comment"
         font-weight=""
         id="text4949"
         style="font-size:12px;font-family:Verdana;text-anchor:start;fill:#0000ff">hodenkobold69</text>
    </g>
  </g>
  <rect
     style="fill:none;stroke:#000000;stroke-width:1;stroke-opacity:1;shape-rendering:crispEdges"
     id="rect4963"
     height="8"
     width="20"
     y="196"
     x="570" />
  <g
     id="g4975"
     style="stroke:#000000;stroke-opacity:1">
    <path
       style="fill:none;stroke:#000000;stroke-width:1;stroke-linecap:round;stroke-linejoin:round;stroke-opacity:1;shape-rendering:crispEdges"
       inkscape:connector-curvature="0"
       id="path4965"
       d="m 590,200 h 10" />
    <text
       style="font-size:9.33333302px;font-family:Verdana;text-anchor:end;display:none;fill:#880000;stroke:#000000;stroke-opacity:1"
       id="text4967"
       display="none"
       font-size="7pt"
       y="200"
       x="586">2</text>
    <text
       style="font-size:9.33333302px;font-family:Verdana;text-anchor:start;display:none;fill:#880000;stroke:#000000;stroke-opacity:1"
       id="text4969"
       display="none"
       font-size="7pt"
       y="196"
       x="594">2</text>
    <circle
       style="display:none;fill:none;stroke:#000000;stroke-width:1;stroke-opacity:1;shape-rendering:crispEdges"
       id="circle4971"
       display="none"
       r="3"
       cy="180"
       cx="573" />
    <path
       style="display:none;fill:none;stroke:#000000;stroke-width:1;stroke-linecap:round;stroke-linejoin:round;stroke-opacity:1;shape-rendering:crispEdges"
       inkscape:connector-curvature="0"
       id="path4973"
       display="none"
       d="m 570,177 -3,3 3,3" />
  </g>
  <g
     id="g4987"
     style="stroke:#000000;stroke-opacity:1">
    <path
       style="fill:none;stroke:#000000;stroke-width:1;stroke-linecap:round;stroke-linejoin:round;stroke-opacity:1;shape-rendering:crispEdges"
       inkscape:connector-curvature="0"
       id="path4977"
       d="M 570,200 H 560" />
    <text
       style="font-size:9.33333302px;font-family:Verdana;text-anchor:start;display:none;fill:#880000;stroke:#000000;stroke-opacity:1"
       id="text4979"
       display="none"
       font-size="7pt"
       y="200"
       x="574">1</text>
    <text
       style="font-size:9.33333302px;font-family:Verdana;text-anchor:end;display:none;fill:#880000;stroke:#000000;stroke-opacity:1"
       id="text4981"
       display="none"
       font-size="7pt"
       y="196"
       x="566">1</text>
    <circle
       style="display:none;fill:none;stroke:#000000;stroke-width:1;stroke-opacity:1;shape-rendering:crispEdges"
       id="circle4983"
       display="none"
       r="3"
       cy="180"
       cx="547" />
    <path
       style="display:none;fill:none;stroke:#000000;stroke-width:1;stroke-linecap:round;stroke-linejoin:round;stroke-opacity:1;shape-rendering:crispEdges"
       inkscape:connector-curvature="0"
       id="path4985"
       display="none"
       d="m 550,183 3,-3 -3,-3" />
  </g>
  <polyline
     points="470 250 510 250 510 260 600 260 600 220 600 200"
     id="polyline4991"
     style="fill:none;stroke:#000000;stroke-width:1;stroke-linecap:round;stroke-linejoin:round;shape-rendering:crispEdges;stroke-opacity:1" />
  <polyline
     points="470 210 510 210 510 200 560 200"
     id="polyline4993"
     style="fill:none;stroke:#000000;stroke-width:1.0015748;stroke-linecap:round;stroke-linejoin:round;shape-rendering:crispEdges;stroke-opacity:1;stroke-miterlimit:4;stroke-dasharray:none;marker-end:" />
  <rect
     style="fill:none;stroke:#000000;stroke-width:1;stroke-opacity:1;shape-rendering:crispEdges"
     id="rect5003"
     height="20"
     width="8"
     y="220"
     x="506" />
  <g
     id="g5015"
     style="stroke:#000000;stroke-opacity:1">
    <path
       style="fill:none;stroke:#000000;stroke-width:1;stroke-linecap:round;stroke-linejoin:round;stroke-opacity:1;shape-rendering:crispEdges"
       inkscape:connector-curvature="0"
       id="path5005"
       d="M 510,220 V 210" />
    <text
       style="font-size:9.33333302px;font-family:Verdana;text-anchor:end;display:none;fill:#880000;stroke:#000000;stroke-opacity:1"
       id="text5007"
       transform="rotate(-90,510,224)"
       display="none"
       font-size="7pt"
       y="224"
       x="510">2</text>
    <text
       style="font-size:9.33333302px;font-family:Verdana;text-anchor:start;display:none;fill:#880000;stroke:#000000;stroke-opacity:1"
       id="text5009"
       transform="rotate(-90,506,216)"
       display="none"
       font-size="7pt"
       y="216"
       x="506">2</text>
    <circle
       style="display:none;fill:none;stroke:#000000;stroke-width:1;stroke-opacity:1;shape-rendering:crispEdges"
       id="circle5011"
       display="none"
       r="3"
       cy="237"
       cx="490" />
    <path
       style="display:none;fill:none;stroke:#000000;stroke-width:1;stroke-linecap:round;stroke-linejoin:round;stroke-opacity:1;shape-rendering:crispEdges"
       inkscape:connector-curvature="0"
       id="path5013"
       display="none"
       d="m 487,240 3,3 3,-3" />
  </g>
  <g
     id="g5027"
     style="stroke:#000000;stroke-opacity:1">
    <path
       style="fill:none;stroke:#000000;stroke-width:1;stroke-linecap:round;stroke-linejoin:round;stroke-opacity:1;shape-rendering:crispEdges"
       inkscape:connector-curvature="0"
       id="path5017"
       d="m 510,240 v 10" />
    <text
       style="font-size:9.33333302px;font-family:Verdana;text-anchor:start;display:none;fill:#880000;stroke:#000000;stroke-opacity:1"
       id="text5019"
       transform="rotate(-90,510,236)"
       display="none"
       font-size="7pt"
       y="236"
       x="510">1</text>
    <text
       style="font-size:9.33333302px;font-family:Verdana;text-anchor:end;display:none;fill:#880000;stroke:#000000;stroke-opacity:1"
       id="text5021"
       transform="rotate(-90,506,244)"
       display="none"
       font-size="7pt"
       y="244"
       x="506">1</text>
    <circle
       style="display:none;fill:none;stroke:#000000;stroke-width:1;stroke-opacity:1;shape-rendering:crispEdges"
       id="circle5023"
       display="none"
       r="3"
       cy="263"
       cx="490" />
    <path
       style="display:none;fill:none;stroke:#000000;stroke-width:1;stroke-linecap:round;stroke-linejoin:round;stroke-opacity:1;shape-rendering:crispEdges"
       inkscape:connector-curvature="0"
       id="path5025"
       display="none"
       d="m 493,260 -3,-3 -3,3" />
  </g>
  <g
     style="display:none"
     id="g5033"
     display="none">
    <text
       style="font-size:9.33333302px;font-family:Arial;text-anchor:start;fill:#000080"
       id="text5031"
       font-size="7pt"
       y="243.26562"
       x="482">Voltmeter</text>
  </g>
  <g
     style="stroke:#000003;stroke-opacity:1"
     id="g5049">
    <path
       style="fill:none;stroke:#000003;stroke-width:1;stroke-linecap:round;stroke-linejoin:round;shape-rendering:crispEdges;stroke-opacity:1"
       inkscape:connector-curvature="0"
       id="path5039"
       d="M 470,250 V 240" />
    <text
       style="font-size:9.33333302px;font-family:Verdana;text-anchor:start;display:none;fill:#ff0000;stroke:#000003;stroke-opacity:1"
       id="text5041"
       transform="rotate(-90,473,238)"
       display="none"
       font-size="7pt"
       y="238"
       x="473">1</text>
    <text
       style="font-size:9.33333302px;font-family:Verdana;text-anchor:end;display:none;fill:#ff0000;stroke:#000003;stroke-opacity:1"
       id="text5043"
       transform="rotate(-90,469,245)"
       display="none"
       font-size="7pt"
       y="245"
       x="469">1</text>
    <circle
       style="display:none;fill:none;stroke:#000003;stroke-width:1;shape-rendering:crispEdges;stroke-opacity:1"
       id="circle5045"
       display="none"
       r="3"
       cy="243"
       cx="470" />
    <path
       style="display:none;fill:none;stroke:#000003;stroke-width:1;stroke-linecap:round;stroke-linejoin:round;shape-rendering:crispEdges;stroke-opacity:1"
       inkscape:connector-curvature="0"
       id="path5047"
       display="none"
       d="m 473,240 -3,-3 -3,3" />
  </g>
  <g
     style="stroke:#000003;stroke-opacity:1"
     id="g5061">
    <path
       style="fill:none;stroke:#000003;stroke-width:1;stroke-linecap:round;stroke-linejoin:round;shape-rendering:crispEdges;stroke-opacity:1"
       inkscape:connector-curvature="0"
       id="path5051"
       d="m 470,210 v 10" />
    <text
       style="font-size:9.33333302px;font-family:Verdana;text-anchor:end;display:none;fill:#000000;stroke:#000003;stroke-opacity:1"
       id="text5053"
       transform="rotate(-90,473,222)"
       display="none"
       font-size="7pt"
       y="222"
       x="473">2</text>
    <text
       style="font-size:9.33333302px;font-family:Verdana;text-anchor:start;display:none;fill:#000000;stroke:#000003;stroke-opacity:1"
       id="text5055"
       transform="rotate(-90,469,215)"
       display="none"
       font-size="7pt"
       y="215"
       x="469">2</text>
    <circle
       style="display:none;fill:none;stroke:#000003;stroke-width:1;shape-rendering:crispEdges;stroke-opacity:1"
       id="circle5057"
       display="none"
       r="3"
       cy="217"
       cx="470" />
    <path
       style="display:none;fill:none;stroke:#000003;stroke-width:1;stroke-linecap:round;stroke-linejoin:round;shape-rendering:crispEdges;stroke-opacity:1"
       inkscape:connector-curvature="0"
       id="path5059"
       display="none"
       d="m 467,220 3,3 3,-3" />
  </g>
  <circle
     style="fill:none;stroke:#000003;stroke-width:1;shape-rendering:crispEdges;stroke-opacity:1"
     r="10"
     id="ellipse5063"
     cy="230"
     cx="470" />
  <polyline
     style="fill:none;stroke:#000003;stroke-width:1;stroke-linecap:round;stroke-linejoin:round;shape-rendering:crispEdges;stroke-opacity:1"
     id="polyline5065"
     points="465 234 474 230 465 226" />
  <g
     style="stroke:none;stroke-opacity:1;fill:#000001;fill-opacity:1"
     id="g5071">
    <circle
       cx="510"
       cy="210"
       r="2.5"
       id="circle5069"
       style="fill:#000001;stroke-width:1;shape-rendering:crispEdges;stroke:none;stroke-opacity:1;fill-opacity:1" />
  </g>
  <g
     style="fill:#000000;fill-opacity:1"
     id="g5075">
    <circle
       cx="510"
       cy="250"
       r="2.5"
       id="circle5073"
       style="fill:#000000;stroke-width:1;shape-rendering:crispEdges;fill-opacity:1" />
  </g>
  <circle
     r="10.25488"
     cy="228.28723"
     cx="599.98218"
     id="path5278"
     style="fill:none;fill-opacity:1;stroke:#000003;stroke-width:1.00157475;stroke-linecap:round;stroke-linejoin:round;stroke-miterlimit:4;stroke-dasharray:none;stroke-dashoffset:0;stroke-opacity:1;shape-rendering:crispEdges" />
  <g
     id="g5413"
     transform="matrix(0.16910034,0,0,0.16910034,553.19962,162.32464)">
    <g
       word-spacing="normal"
       letter-spacing="normal"
       font-size-adjust="none"
       font-stretch="normal"
       font-weight="normal"
       font-variant="normal"
       font-style="normal"
       stroke-miterlimit="10.433"
       xml:space="preserve"
       transform="matrix(1.2971429,0,0,-1.2971429,-227,936.75)"
       id="content"
       style="font-style:normal;font-variant:normal;font-weight:normal;font-stretch:normal;letter-spacing:normal;word-spacing:normal;text-anchor:start;fill:none;fill-opacity:1;fill-rule:evenodd;stroke:#000000;stroke-linecap:butt;stroke-linejoin:miter;stroke-miterlimit:10.43299961;stroke-dasharray:none;stroke-dashoffset:0;stroke-opacity:1"><path
         id="path5408"
         d="m 487.16,435 0.1,0.37 0.05,0.19 0.06,0.18 0.06,0.17 0.07,0.17 0.07,0.17 0.08,0.16 0.08,0.16 0.1,0.16 0.09,0.15 0.11,0.14 0.11,0.14 0.13,0.14 0.13,0.12 0.14,0.13 0.15,0.12 0.17,0.11 0.17,0.11 0.19,0.1 0.19,0.09 0.21,0.09 0.23,0.08 0.23,0.08 0.26,0.07 0.26,0.06 0.28,0.06 0.3,0.04 0.31,0.05 0.33,0.03 0.35,0.03 0.18,0.01 h 0.19 c 0.25,0 0.84,0.05 0.84,1 0,0.05 0,0.55 -0.64,0.55 -1.64,0 -3.39,-0.16 -5.08,-0.16 -1.7,0 -3.55,0.16 -5.19,0.16 -0.29,0 -0.89,0 -0.89,-1 0,-0.55 0.5,-0.55 0.89,-0.55 2.85,-0.04 3.39,-1.09 3.39,-2.18 0,-0.16 -0.11,-0.91 -0.15,-1.05 l -4.49,-17.8 c -1.68,-6.67 -7.42,-11 -12.4,-11 -3.38,0 -6.08,2.19 -6.08,6.47 0,0.11 0,1.7 0.55,3.89 l 4.84,19.38 c 0.44,1.79 0.55,2.29 4.19,2.29 1.28,0 1.68,0 1.68,1 0,0.55 -0.54,0.55 -0.7,0.55 -1.39,0 -4.98,-0.16 -6.37,-0.16 -1.44,0 -4.99,0.16 -6.43,0.16 -0.4,0 -0.95,0 -0.95,-1 0,-0.55 0.45,-0.55 1.41,-0.55 0.09,0 1.04,0 1.89,-0.09 0.89,-0.11 1.34,-0.16 1.34,-0.8 0,-0.31 -0.55,-2.39 -0.84,-3.54 l -1.11,-4.38 c -0.44,-1.95 -2.83,-11.36 -3.03,-12.31 -0.35,-1.39 -0.35,-2.14 -0.35,-2.89 0,-6.08 4.53,-9.56 9.77,-9.56 6.26,0 12.45,5.62 14.09,12.2 z"
         inkscape:connector-curvature="0"
         style="fill:#000000;stroke-width:0;stroke-linecap:round;stroke-linejoin:round;shape-rendering:crispEdges" /><path
         id="path5410"
         d="m 507.46,409.87 v 0.71 l -0.02,0.68 -0.03,0.66 -0.04,0.64 -0.06,0.62 -0.07,0.6 -0.09,0.57 -0.11,0.56 -0.13,0.55 -0.15,0.53 -0.17,0.51 -0.19,0.5 -0.21,0.49 -0.24,0.48 -0.26,0.47 -0.14,0.23 -0.15,0.23 c -1.08,1.61 -3.23,3 -6.03,3 v -0.98 c 1.89,0 3.7,-1.14 4.33,-3.17 0.56,-1.88 0.59,-4.39 0.59,-7.43 0,-2.57 0,-5.15 -0.45,-7.34 -0.7,-3.17 -3.06,-3.94 -4.47,-3.94 v 0 c -1.59,0 -3.72,0.94 -4.42,3.8 -0.49,2.05 -0.49,4.91 -0.49,7.48 0,2.55 0,5.21 0.52,7.11 0.73,2.75 2.97,3.49 4.39,3.49 v 0.98 c -8.08,0 -8.08,-9.51 -8.08,-12.03 0,-2.5 0,-11.81 8.08,-11.81 8.09,0 8.09,9.31 8.09,11.81 z"
         inkscape:connector-curvature="0"
         style="fill:#000000;stroke-width:0;stroke-linecap:round;stroke-linejoin:round;shape-rendering:crispEdges" /></g>  </g>
  <g
     transform="matrix(0.16903793,0,0,0.16903793,420.28896,163.8667)"
     id="g5685">
    <g
       style="font-style:normal;font-variant:normal;font-weight:normal;font-stretch:normal;letter-spacing:normal;word-spacing:normal;text-anchor:start;fill:none;fill-opacity:1;fill-rule:evenodd;stroke:#000000;stroke-linecap:butt;stroke-linejoin:miter;stroke-miterlimit:10.43299961;stroke-dasharray:none;stroke-dashoffset:0;stroke-opacity:1"
       id="g5683"
       transform="matrix(1.2971429,0,0,-1.2971429,-227,936.75)"
       xml:space="preserve"
       stroke-miterlimit="10.433"
       font-style="normal"
       font-variant="normal"
       font-weight="normal"
       font-stretch="normal"
       font-size-adjust="none"
       letter-spacing="normal"
       word-spacing="normal"><path
         style="fill:#000000;stroke-width:0;stroke-linecap:round;stroke-linejoin:round;shape-rendering:crispEdges"
         inkscape:connector-curvature="0"
         d="m 487.16,435 0.1,0.37 0.05,0.19 0.06,0.18 0.06,0.17 0.07,0.17 0.07,0.17 0.08,0.16 0.08,0.16 0.1,0.16 0.09,0.15 0.11,0.14 0.11,0.14 0.13,0.14 0.13,0.12 0.14,0.13 0.15,0.12 0.17,0.11 0.17,0.11 0.19,0.1 0.19,0.09 0.21,0.09 0.23,0.08 0.23,0.08 0.26,0.07 0.26,0.06 0.28,0.06 0.3,0.04 0.31,0.05 0.33,0.03 0.35,0.03 0.18,0.01 h 0.19 c 0.25,0 0.84,0.05 0.84,1 0,0.05 0,0.55 -0.64,0.55 -1.64,0 -3.39,-0.16 -5.08,-0.16 -1.7,0 -3.55,0.16 -5.19,0.16 -0.29,0 -0.89,0 -0.89,-1 0,-0.55 0.5,-0.55 0.89,-0.55 2.85,-0.04 3.39,-1.09 3.39,-2.18 0,-0.16 -0.11,-0.91 -0.15,-1.05 l -4.49,-17.8 c -1.68,-6.67 -7.42,-11 -12.4,-11 -3.38,0 -6.08,2.19 -6.08,6.47 0,0.11 0,1.7 0.55,3.89 l 4.84,19.38 c 0.44,1.79 0.55,2.29 4.19,2.29 1.28,0 1.68,0 1.68,1 0,0.55 -0.54,0.55 -0.7,0.55 -1.39,0 -4.98,-0.16 -6.37,-0.16 -1.44,0 -4.99,0.16 -6.43,0.16 -0.4,0 -0.95,0 -0.95,-1 0,-0.55 0.45,-0.55 1.41,-0.55 0.09,0 1.04,0 1.89,-0.09 0.89,-0.11 1.34,-0.16 1.34,-0.8 0,-0.31 -0.55,-2.39 -0.84,-3.54 l -1.11,-4.38 c -0.44,-1.95 -2.83,-11.36 -3.03,-12.31 -0.35,-1.39 -0.35,-2.14 -0.35,-2.89 0,-6.08 4.53,-9.56 9.77,-9.56 6.26,0 12.45,5.62 14.09,12.2 z"
         id="path5679" /><path
         style="fill:#000000;stroke-width:0;stroke-linecap:round;stroke-linejoin:round;shape-rendering:crispEdges"
         inkscape:connector-curvature="0"
         d="m 501.15,420.92 v 0.04 0.04 0.05 0.04 0.03 0.04 0.04 0.03 0.04 l -0.01,0.03 v 0.03 0.03 0.03 l -0.01,0.03 v 0.03 0.02 l -0.01,0.03 v 0.02 l -0.01,0.03 v 0.02 l -0.01,0.04 -0.02,0.04 -0.02,0.03 -0.02,0.03 -0.02,0.03 -0.02,0.03 -0.03,0.02 -0.03,0.02 -0.03,0.02 -0.04,0.01 -0.04,0.01 -0.05,0.02 h -0.02 -0.02 l -0.03,0.01 h -0.03 l -0.02,0.01 h -0.03 -0.03 -0.03 -0.03 l -0.04,0.01 h -0.03 -0.04 -0.03 -0.04 -0.04 -0.04 -0.04 -0.05 -0.04 -0.04 c -2.24,-2.2 -5.4,-2.23 -6.83,-2.23 v -1.25 c 0.84,0 3.14,0 5.04,0.97 v -17.77 c 0,-1.16 0,-1.61 -3.48,-1.61 h -1.31 v -1.25 c 0.62,0.03 4.9,0.14 6.2,0.14 1.08,0 5.47,-0.11 6.23,-0.14 v 1.25 h -1.32 c -3.49,0 -3.49,0.45 -3.49,1.61 z"
         id="path5681" /></g>  </g>
  <g
     transform="matrix(0.16386421,0,0,0.16386421,457.13003,166.012)"
     id="g6259">
    <g
       style="font-style:normal;font-variant:normal;font-weight:normal;font-stretch:normal;letter-spacing:normal;word-spacing:normal;text-anchor:start;fill:none;fill-opacity:1;fill-rule:evenodd;stroke:#000000;stroke-linecap:butt;stroke-linejoin:miter;stroke-miterlimit:10.43299961;stroke-dasharray:none;stroke-dashoffset:0;stroke-opacity:1"
       id="g6257"
       transform="matrix(1.2971429,0,0,-1.2971429,-227,936.75)"
       xml:space="preserve"
       stroke-miterlimit="10.433"
       font-style="normal"
       font-variant="normal"
       font-weight="normal"
       font-stretch="normal"
       font-size-adjust="none"
       letter-spacing="normal"
       word-spacing="normal"><path
         style="fill:#000000;stroke-width:0;stroke-linecap:round;stroke-linejoin:round;shape-rendering:crispEdges"
         inkscape:connector-curvature="0"
         d="m 481.38,423.14 0.47,0.11 0.48,0.12 0.48,0.14 0.48,0.15 0.49,0.16 0.48,0.18 0.48,0.19 0.47,0.2 0.47,0.22 0.47,0.23 0.46,0.24 0.45,0.25 0.43,0.27 0.43,0.28 0.42,0.29 0.4,0.3 0.39,0.31 0.37,0.32 0.36,0.34 0.33,0.35 0.32,0.35 0.29,0.37 0.28,0.38 0.25,0.39 0.22,0.4 0.2,0.41 0.17,0.42 0.15,0.43 0.11,0.44 0.08,0.45 0.05,0.46 0.02,0.47 c 0,4.28 -4.48,7.47 -11,7.47 h -14.2 c -1,0 -1.45,0 -1.45,-1 0,-0.55 0.45,-0.55 1.4,-0.55 0.1,0 1.05,0 1.89,-0.09 0.89,-0.11 1.35,-0.16 1.35,-0.8 0,-0.2 -0.05,-0.36 -0.21,-0.95 l -6.67,-26.75 c -0.5,-1.95 -0.59,-2.34 -4.53,-2.34 -0.91,0 -1.34,0 -1.34,-1 0,-0.55 0.59,-0.55 0.68,-0.55 1.41,0 4.89,0.16 6.29,0.16 1.39,0 4.93,-0.16 6.32,-0.16 0.41,0 1,0 1,1 0,0.55 -0.45,0.55 -1.39,0.55 -1.84,0 -3.25,0 -3.25,0.89 0,0.29 0.11,0.54 0.16,0.84 l 3.28,13.2 h 5.94 l -0.05,1.11 h -5.59 l 3.25,13 c 0.29,1.19 0.43,1.69 1.39,1.85 0.45,0.04 2.04,0.04 3.03,0.04 3.55,0 9.08,0 9.08,-4.93 0,-1.69 -0.8,-5.13 -2.75,-7.07 -1.28,-1.29 -3.92,-2.89 -8.41,-2.89 l 0.05,-1.11 c 4.53,0 5.42,-2.78 5.42,-4.53 0,-0.75 -0.39,-2.28 -0.69,-3.44 -0.36,-1.39 -0.79,-3.23 -0.79,-4.23 0,-5.37 5.96,-5.37 6.62,-5.37 4.23,0 5.97,5.03 5.97,5.73 0,0.59 -0.55,0.59 -0.59,0.59 -0.46,0 -0.55,-0.36 -0.65,-0.7 -1.25,-3.69 -3.39,-4.53 -4.54,-4.53 -1.64,0 -1.99,1.09 -1.99,3.05 0,1.53 0.3,4.07 0.5,5.67 0.1,0.7 0.21,1.64 0.21,2.34 0,3.83 -3.35,5.38 -4.69,5.88 z"
         id="path6251" /><path
         style="fill:#000000;stroke-width:0;stroke-linecap:round;stroke-linejoin:round;shape-rendering:crispEdges"
         inkscape:connector-curvature="0"
         d="m 500.68,420.26 v 0.1 l -0.01,0.09 -0.01,0.1 -0.02,0.09 -0.02,0.09 -0.03,0.09 -0.03,0.09 -0.03,0.09 -0.04,0.09 -0.04,0.08 -0.05,0.08 -0.05,0.09 -0.05,0.07 -0.06,0.08 -0.06,0.07 -0.07,0.07 -0.07,0.07 -0.07,0.07 -0.08,0.06 -0.08,0.06 -0.08,0.05 -0.08,0.05 -0.09,0.05 -0.09,0.04 -0.1,0.04 -0.09,0.03 -0.1,0.03 -0.1,0.02 -0.11,0.02 -0.1,0.01 -0.11,0.01 -0.11,0.01 c -1.05,0 -1.99,-0.83 -1.99,-1.99 0,-1.25 1.02,-2.01 1.99,-2.01 1.12,0 2.03,0.86 2.03,2.01 z"
         id="path6253" /><path
         style="fill:#000000;stroke-width:0;stroke-linecap:round;stroke-linejoin:round;shape-rendering:crispEdges"
         inkscape:connector-curvature="0"
         d="m 495.38,413.75 v -1.25 c 2.19,0 2.5,-0.22 2.5,-1.93 v -9.06 c 0,-1.5 -0.34,-1.5 -2.61,-1.5 v -1.25 c 0.07,0 2.5,0.14 3.91,0.14 1.22,0 2.47,-0.03 3.69,-0.14 v 1.25 c -2.02,0 -2.38,0 -2.38,1.47 v 12.64 z"
         id="path6255" /></g>  </g>
  <g
     id="g6554"
     transform="matrix(0.15499697,0,0,0.15499697,518.74438,127.72888)">
    <g
       word-spacing="normal"
       letter-spacing="normal"
       font-size-adjust="none"
       font-stretch="normal"
       font-weight="normal"
       font-variant="normal"
       font-style="normal"
       stroke-miterlimit="10.433"
       xml:space="preserve"
       transform="matrix(1.2971429,0,0,-1.2971429,-227,936.75)"
       id="g6552"
       style="font-style:normal;font-variant:normal;font-weight:normal;font-stretch:normal;letter-spacing:normal;word-spacing:normal;text-anchor:start;fill:none;fill-opacity:1;fill-rule:evenodd;stroke:#000000;stroke-linecap:butt;stroke-linejoin:miter;stroke-miterlimit:10.43299961;stroke-dasharray:none;stroke-dashoffset:0;stroke-opacity:1"><path
         id="path6548"
         d="m 481.38,423.14 0.47,0.11 0.48,0.12 0.48,0.14 0.48,0.15 0.49,0.16 0.48,0.18 0.48,0.19 0.47,0.2 0.47,0.22 0.47,0.23 0.46,0.24 0.45,0.25 0.43,0.27 0.43,0.28 0.42,0.29 0.4,0.3 0.39,0.31 0.37,0.32 0.36,0.34 0.33,0.35 0.32,0.35 0.29,0.37 0.28,0.38 0.25,0.39 0.22,0.4 0.2,0.41 0.17,0.42 0.15,0.43 0.11,0.44 0.08,0.45 0.05,0.46 0.02,0.47 c 0,4.28 -4.48,7.47 -11,7.47 h -14.2 c -1,0 -1.45,0 -1.45,-1 0,-0.55 0.45,-0.55 1.4,-0.55 0.1,0 1.05,0 1.89,-0.09 0.89,-0.11 1.35,-0.16 1.35,-0.8 0,-0.2 -0.05,-0.36 -0.21,-0.95 l -6.67,-26.75 c -0.5,-1.95 -0.59,-2.34 -4.53,-2.34 -0.91,0 -1.34,0 -1.34,-1 0,-0.55 0.59,-0.55 0.68,-0.55 1.41,0 4.89,0.16 6.29,0.16 1.39,0 4.93,-0.16 6.32,-0.16 0.41,0 1,0 1,1 0,0.55 -0.45,0.55 -1.39,0.55 -1.84,0 -3.25,0 -3.25,0.89 0,0.29 0.11,0.54 0.16,0.84 l 3.28,13.2 h 5.94 l -0.05,1.11 h -5.59 l 3.25,13 c 0.29,1.19 0.43,1.69 1.39,1.85 0.45,0.04 2.04,0.04 3.03,0.04 3.55,0 9.08,0 9.08,-4.93 0,-1.69 -0.8,-5.13 -2.75,-7.07 -1.28,-1.29 -3.92,-2.89 -8.41,-2.89 l 0.05,-1.11 c 4.53,0 5.42,-2.78 5.42,-4.53 0,-0.75 -0.39,-2.28 -0.69,-3.44 -0.36,-1.39 -0.79,-3.23 -0.79,-4.23 0,-5.37 5.96,-5.37 6.62,-5.37 4.23,0 5.97,5.03 5.97,5.73 0,0.59 -0.55,0.59 -0.59,0.59 -0.46,0 -0.55,-0.36 -0.65,-0.7 -1.25,-3.69 -3.39,-4.53 -4.54,-4.53 -1.64,0 -1.99,1.09 -1.99,3.05 0,1.53 0.3,4.07 0.5,5.67 0.1,0.7 0.21,1.64 0.21,2.34 0,3.83 -3.35,5.38 -4.69,5.88 z"
         inkscape:connector-curvature="0"
         style="fill:#000000;stroke-width:0;stroke-linecap:round;stroke-linejoin:round;shape-rendering:crispEdges" /><path
         id="path6550"
         d="m 506.52,413.4 v 0.06 0.05 0.05 0.05 0.05 0.05 0.04 0.04 l -0.01,0.05 v 0.04 l -0.01,0.03 v 0.04 l -0.01,0.03 -0.01,0.04 -0.01,0.03 -0.01,0.03 -0.01,0.03 -0.01,0.02 -0.02,0.03 -0.02,0.02 -0.01,0.02 -0.02,0.02 -0.03,0.02 -0.02,0.01 -0.03,0.01 -0.03,0.02 -0.03,0.01 h -0.03 l -0.02,0.01 h -0.02 -0.02 l -0.02,0.01 h -0.02 -0.02 -0.02 -0.02 c -0.17,0 -0.25,0 -0.7,-0.42 -0.07,-0.03 -0.41,-0.35 -0.63,-0.53 -1.05,0.73 -2.36,0.95 -3.66,0.95 -4.98,0 -6.17,-2.63 -6.17,-4.36 0,-1.13 0.5,-2.02 1.33,-2.72 1.33,-1.16 2.66,-1.39 4.81,-1.75 1.74,-0.31 4.57,-0.8 4.57,-3.12 0,-1.36 -0.94,-2.97 -4.29,-2.97 -3.34,0 -4.56,2.2 -5.2,4.56 -0.09,0.45 -0.14,0.59 -0.62,0.59 -0.6,0 -0.6,-0.23 -0.6,-0.93 v -4.29 c 0,-0.59 0,-0.9 0.5,-0.9 0.32,0 0.97,0.73 1.67,1.5 1.54,-1.44 3.41,-1.5 4.25,-1.5 4.54,0 6.21,2.44 6.21,4.9 0,1.33 -0.6,2.38 -1.5,3.21 -1.33,1.22 -2.94,1.5 -4.16,1.72 -2.78,0.48 -5.05,0.9 -5.05,2.75 0,1.11 0.94,2.46 4.25,2.46 4.05,0 4.22,-2.82 4.29,-3.82 0.04,-0.39 0.45,-0.39 0.59,-0.39 0.59,0 0.59,0.25 0.59,0.9 z"
         inkscape:connector-curvature="0"
         style="fill:#000000;stroke-width:0;stroke-linecap:round;stroke-linejoin:round;shape-rendering:crispEdges" /></g>  </g>
</svg>
