<?xml version="1.0" encoding="UTF-8" standalone="no"?>
<!-- Created with Inkscape (http://www.inkscape.org/) -->

<svg
   xmlns:dc="http://purl.org/dc/elements/1.1/"
   xmlns:cc="http://creativecommons.org/ns#"
   xmlns:rdf="http://www.w3.org/1999/02/22-rdf-syntax-ns#"
   xmlns:svg="http://www.w3.org/2000/svg"
   xmlns="http://www.w3.org/2000/svg"
   xmlns:sodipodi="http://sodipodi.sourceforge.net/DTD/sodipodi-0.dtd"
   xmlns:inkscape="http://www.inkscape.org/namespaces/inkscape"
   width="82.827995mm"
   height="45.516579mm"
   viewBox="0 0 82.827995 45.516579"
   version="1.1"
   id="svg8"
   inkscape:version="0.92.1 r"
   sodipodi:docname="photocurrent.svg">
  <sodipodi:namedview
     id="base"
     pagecolor="#ffffff"
     bordercolor="#666666"
     borderopacity="1.0"
     inkscape:pageopacity="0.0"
     inkscape:pageshadow="2"
     inkscape:zoom="1.979899"
     inkscape:cx="243.31642"
     inkscape:cy="39.679733"
     inkscape:document-units="mm"
     inkscape:current-layer="layer1"
     showgrid="false"
     inkscape:snap-smooth-nodes="true"
     inkscape:snap-intersection-paths="true"
     inkscape:object-paths="true"
     inkscape:snap-midpoints="true"
     inkscape:window-width="1920"
     inkscape:window-height="1028"
     inkscape:window-x="0"
     inkscape:window-y="0"
     inkscape:window-maximized="1"
     fit-margin-top="0"
     fit-margin-left="0"
     fit-margin-right="0"
     fit-margin-bottom="0" />
  <defs
     id="defs2">
    <marker
       inkscape:isstock="true"
       style="overflow:visible"
       id="Arrow1Mend"
       refX="0"
       refY="0"
       orient="auto"
       inkscape:stockid="Arrow1Mend">
      <path
         inkscape:connector-curvature="0"
         transform="matrix(-0.4,0,0,-0.4,-4,0)"
         style="fill:#c3cf21;fill-opacity:1;fill-rule:evenodd;stroke:#c3cf21;stroke-width:1.00000003pt;stroke-opacity:1"
         d="M 0,0 5,-5 -12.5,0 5,5 Z"
         id="path4910" />
    </marker>
    <marker
       inkscape:isstock="true"
       style="overflow:visible"
       id="Arrow1Mend-5"
       refX="0"
       refY="0"
       orient="auto"
       inkscape:stockid="Arrow1Mend">
      <path
         inkscape:connector-curvature="0"
         transform="matrix(-0.4,0,0,-0.4,-4,0)"
         style="fill:#c3cf21;fill-opacity:1;fill-rule:evenodd;stroke:#c3cf21;stroke-width:1.00000003pt;stroke-opacity:1"
         d="M 0,0 5,-5 -12.5,0 5,5 Z"
         id="path4910-3" />
    </marker>
    <marker
       inkscape:isstock="true"
       style="overflow:visible"
       id="Arrow1Mend-6"
       refX="0"
       refY="0"
       orient="auto"
       inkscape:stockid="Arrow1Mend">
      <path
         inkscape:connector-curvature="0"
         transform="matrix(-0.4,0,0,-0.4,-4,0)"
         style="fill:#c3cf21;fill-opacity:1;fill-rule:evenodd;stroke:#c3cf21;stroke-width:1.00000003pt;stroke-opacity:1"
         d="M 0,0 5,-5 -12.5,0 5,5 Z"
         id="path4910-2" />
    </marker>
  </defs>
  <metadata
     id="metadata5">
    <rdf:RDF>
      <cc:Work
         rdf:about="">
        <dc:format>image/svg+xml</dc:format>
        <dc:type
           rdf:resource="http://purl.org/dc/dcmitype/StillImage" />
        <dc:title />
      </cc:Work>
    </rdf:RDF>
  </metadata>
  <g
     transform="translate(-23.288897,-176.3634)"
     inkscape:label="Layer 1"
     inkscape:groupmode="layer"
     id="layer1">
    <g
       id="g4506"
       transform="translate(-13.630746,-22.74198)">
      <circle
         r="5.953125"
         cy="227.73586"
         cx="43.372768"
         id="path4490"
         style="fill:none;stroke:#000000;stroke-width:1;stroke-linecap:round;stroke-miterlimit:4;stroke-dasharray:none;stroke-opacity:1" />
      <path
         inkscape:connector-curvature="0"
         id="path4492"
         d="m 37.419642,227.73585 h 11.90625"
         style="fill:none;stroke:#000000;stroke-width:0.75;stroke-linecap:butt;stroke-linejoin:miter;stroke-miterlimit:4;stroke-dasharray:none;stroke-opacity:1" />
    </g>
    <g
       id="g4700"
       transform="matrix(0.41332751,0,0,0.41332735,27.875773,166.10926)">
      <g
         id="content"
         transform="matrix(0.3,0,0,-0.3,-52.5,222.75)"
         xml:space="preserve"
         stroke-miterlimit="10.433"
         font-style="normal"
         font-variant="normal"
         font-weight="normal"
         font-stretch="normal"
         font-size-adjust="none"
         letter-spacing="normal"
         word-spacing="normal"
         style="font-style:normal;font-variant:normal;font-weight:normal;font-stretch:normal;letter-spacing:normal;word-spacing:normal;text-anchor:start;fill:none;fill-opacity:1;fill-rule:evenodd;stroke:#000000;stroke-linecap:butt;stroke-linejoin:miter;stroke-miterlimit:10.43299961;stroke-dasharray:none;stroke-dashoffset:0;stroke-opacity:1"><path
           d="m 477.19,423.14 0.45,0.12 0.44,0.12 0.44,0.14 0.43,0.15 0.42,0.16 0.42,0.17 0.4,0.18 0.4,0.19 0.39,0.19 0.37,0.21 0.37,0.22 0.35,0.22 0.34,0.23 0.33,0.24 0.32,0.25 0.3,0.26 0.29,0.27 0.27,0.27 0.26,0.28 0.24,0.29 0.23,0.29 0.21,0.31 0.19,0.3 0.18,0.32 0.15,0.32 0.14,0.33 0.12,0.33 0.09,0.35 0.08,0.34 0.06,0.35 0.03,0.36 0.01,0.36 c 0,4.78 -5.67,8.97 -13,8.97 h -15.64 v -1.55 h 1.19 c 3.84,0 3.93,-0.54 3.93,-2.34 v -26.25 c 0,-1.8 -0.09,-2.34 -3.93,-2.34 h -1.19 v -1.55 c 1.78,0.16 5.33,0.16 7.27,0.16 1.93,0 5.48,0 7.28,-0.16 v 1.55 h -1.21 c -3.82,0 -3.93,0.54 -3.93,2.34 v 12.59 1.11 12.89 c 0,1.16 0,1.75 1.09,1.91 0.5,0.09 1.95,0.09 2.95,0.09 4.47,0 10.07,-0.2 10.07,-7.42 0,-3.44 -1.21,-7.47 -8.58,-7.47 h -5.53 v -1.11 h 5.73 c 0.8,0 2.89,0 4.63,-1.68 1.9,-1.8 1.9,-3.35 1.9,-6.68 0,-3.25 0,-5.23 2.03,-7.12 2.05,-1.8 4.78,-2.09 6.28,-2.09 3.89,0 4.74,4.07 4.74,5.48 0,0.3 0,0.84 -0.64,0.84 -0.55,0 -0.55,-0.45 -0.61,-0.79 -0.3,-3.55 -2.03,-4.44 -3.28,-4.44 -2.44,0 -2.85,2.55 -3.55,7.17 l -0.64,3.99 c -0.89,3.18 -3.34,4.84 -6.08,5.78 z"
           id="path4687"
           inkscape:connector-curvature="0"
           style="fill:#000000;stroke-width:0" /><path
           d="m 505.44,413.4 v 0.06 0.05 0.05 0.05 0.05 0.05 0.04 l -0.01,0.04 v 0.05 0.04 l -0.01,0.03 v 0.04 l -0.01,0.03 -0.01,0.04 -0.01,0.03 -0.01,0.03 -0.01,0.03 -0.02,0.02 -0.01,0.03 -0.02,0.02 -0.02,0.02 -0.02,0.02 -0.02,0.02 -0.02,0.01 -0.03,0.01 -0.03,0.02 -0.03,0.01 h -0.03 l -0.02,0.01 h -0.02 -0.02 l -0.02,0.01 h -0.02 -0.02 -0.02 -0.02 c -0.17,0 -0.25,0 -0.71,-0.42 -0.06,-0.03 -0.4,-0.35 -0.62,-0.53 -1.05,0.73 -2.36,0.95 -3.66,0.95 -4.98,0 -6.17,-2.63 -6.17,-4.36 0,-1.13 0.5,-2.02 1.33,-2.72 1.33,-1.16 2.66,-1.39 4.81,-1.75 1.74,-0.31 4.56,-0.8 4.56,-3.12 0,-1.36 -0.93,-2.97 -4.28,-2.97 -3.34,0 -4.56,2.2 -5.2,4.56 -0.09,0.45 -0.14,0.59 -0.63,0.59 -0.59,0 -0.59,-0.23 -0.59,-0.93 v -4.29 c 0,-0.59 0,-0.9 0.5,-0.9 0.31,0 0.97,0.73 1.67,1.5 1.53,-1.44 3.41,-1.5 4.25,-1.5 4.53,0 6.21,2.44 6.21,4.9 0,1.33 -0.6,2.38 -1.5,3.21 -1.33,1.22 -2.94,1.5 -4.16,1.72 -2.78,0.48 -5.05,0.9 -5.05,2.75 0,1.11 0.94,2.46 4.25,2.46 4.05,0 4.22,-2.82 4.28,-3.82 0.05,-0.39 0.46,-0.39 0.6,-0.39 0.59,0 0.59,0.25 0.59,0.9 z"
           id="path4689"
           inkscape:connector-curvature="0"
           style="fill:#000000;stroke-width:0" /><path
           d="m 526.02,409.32 -0.01,0.28 -0.01,0.28 -0.02,0.26 -0.04,0.26 -0.04,0.25 -0.05,0.24 -0.06,0.24 -0.06,0.22 -0.08,0.22 -0.09,0.21 -0.1,0.2 -0.11,0.19 -0.12,0.19 -0.13,0.17 -0.14,0.17 -0.15,0.16 -0.17,0.15 -0.17,0.14 -0.18,0.13 -0.2,0.12 -0.21,0.12 -0.22,0.1 -0.23,0.09 -0.24,0.09 -0.26,0.07 -0.26,0.07 -0.28,0.05 -0.3,0.05 -0.3,0.03 -0.32,0.03 -0.33,0.02 h -0.34 c -3.11,0 -4.82,-1.84 -5.58,-3.16 h -0.03 v 11.99 l -5.24,-0.39 v -1.25 c 2.35,0 2.63,-0.25 2.63,-1.95 v -17.85 c 0,-1.5 -0.36,-1.5 -2.63,-1.5 v -1.25 c 0.08,0 2.52,0.14 3.99,0.14 1.28,0 3.68,-0.11 4,-0.14 v 1.25 c -2.27,0 -2.61,0 -2.61,1.5 v 6.28 c 0,3.66 2.89,5.36 5.19,5.36 2.43,0 2.75,-1.92 2.75,-3.69 v -7.95 c 0,-1.5 -0.35,-1.5 -2.61,-1.5 v -1.25 c 0.07,0 2.51,0.14 3.96,0.14 1.3,0 3.71,-0.11 4.02,-0.14 v 1.25 c -2.26,0 -2.62,0 -2.62,1.5 z"
           id="path4691"
           inkscape:connector-curvature="0"
           style="fill:#000000;stroke-width:0" /><path
           d="m 541.53,413.75 v -1.25 c 2.33,0 2.62,-0.25 2.62,-1.96 v -5.97 c 0,-3.06 -1.99,-5.18 -4.63,-5.18 -3.17,0 -3.31,1.5 -3.31,3.28 v 11.45 l -5.38,-0.37 v -1.25 c 2.63,0 2.63,-0.11 2.63,-3.22 v -5.22 c 0,-2.41 0,-5.64 5.81,-5.64 0.76,0 3.31,0 4.98,2.92 h 0.03 v -2.92 l 5.24,0.34 v 1.25 c -2.34,0 -2.62,0.25 -2.62,1.95 v 12.16 z"
           id="path4693"
           inkscape:connector-curvature="0"
           style="fill:#000000;stroke-width:0" /><path
           d="m 568.85,409.32 v 0.28 l -0.02,0.28 -0.02,0.26 -0.03,0.26 -0.04,0.25 -0.05,0.24 -0.06,0.24 -0.07,0.22 -0.08,0.22 -0.09,0.21 -0.1,0.2 -0.1,0.19 -0.12,0.19 -0.13,0.17 -0.15,0.17 -0.15,0.16 -0.16,0.15 -0.17,0.14 -0.19,0.13 -0.19,0.12 -0.21,0.12 -0.22,0.1 -0.23,0.09 -0.25,0.09 -0.25,0.07 -0.27,0.07 -0.28,0.05 -0.29,0.05 -0.31,0.03 -0.31,0.03 -0.33,0.02 h -0.35 c -2.86,0 -4.7,-1.56 -5.68,-3.37 h -0.04 v 3.37 l -5.12,-0.37 v -1.25 c 2.34,0 2.62,-0.25 2.62,-1.96 v -9.03 c 0,-1.5 -0.36,-1.5 -2.62,-1.5 v -1.25 c 0.08,0 2.51,0.14 3.98,0.14 1.28,0 3.69,-0.11 4,-0.14 v 1.25 c -2.26,0 -2.61,0 -2.61,1.5 v 6.28 c 0,3.66 2.89,5.36 5.19,5.36 2.44,0 2.75,-1.92 2.75,-3.69 v -7.95 c 0,-1.5 -0.34,-1.5 -2.61,-1.5 v -1.25 c 0.08,0 2.52,0.14 3.97,0.14 1.3,0 3.7,-0.11 4.02,-0.14 v 1.25 c -2.27,0 -2.63,0 -2.63,1.5 z"
           id="path4695"
           inkscape:connector-curvature="0"
           style="fill:#000000;stroke-width:0" /><path
           d="m 578.79,412.53 h 5.44 v 1.25 h -5.44 v 6.4 h -1.19 c -0.03,-3.12 -1.45,-6.57 -4.8,-6.68 v -0.97 h 3.24 v -9.41 c 0,-3.91 2.92,-4.7 4.87,-4.7 2.35,0 3.94,1.98 3.94,4.73 v 1.92 h -1.19 v -1.89 c 0,-2.36 -1.11,-3.65 -2.46,-3.65 -2.41,0 -2.41,2.92 -2.41,3.56 z"
           id="path4697"
           inkscape:connector-curvature="0"
           style="fill:#000000;stroke-width:0" /></g>    </g>
    <g
       id="g4752"
       transform="matrix(0.41333225,0,0,0.41332726,60.323814,170.4929)">
      <g
         word-spacing="normal"
         letter-spacing="normal"
         font-size-adjust="none"
         font-stretch="normal"
         font-weight="normal"
         font-variant="normal"
         font-style="normal"
         stroke-miterlimit="10.433"
         xml:space="preserve"
         transform="matrix(0.3,0,0,-0.3,-52.5,222.75)"
         id="g4750"
         style="font-style:normal;font-variant:normal;font-weight:normal;font-stretch:normal;letter-spacing:normal;word-spacing:normal;text-anchor:start;fill:none;fill-opacity:1;fill-rule:evenodd;stroke:#000000;stroke-linecap:butt;stroke-linejoin:miter;stroke-miterlimit:10.43299961;stroke-dasharray:none;stroke-dashoffset:0;stroke-opacity:1"><path
           id="path4742"
           d="m 487.16,435 0.1,0.37 0.05,0.19 0.06,0.18 0.06,0.17 0.07,0.17 0.07,0.17 0.08,0.16 0.08,0.16 0.1,0.16 0.09,0.15 0.11,0.14 0.11,0.14 0.13,0.14 0.13,0.12 0.14,0.13 0.15,0.12 0.17,0.11 0.17,0.11 0.19,0.1 0.19,0.09 0.21,0.09 0.23,0.08 0.23,0.08 0.26,0.07 0.26,0.06 0.28,0.06 0.3,0.04 0.31,0.05 0.33,0.03 0.35,0.03 0.18,0.01 h 0.19 c 0.25,0 0.84,0.05 0.84,1 0,0.05 0,0.55 -0.64,0.55 -1.64,0 -3.39,-0.16 -5.08,-0.16 -1.7,0 -3.55,0.16 -5.19,0.16 -0.29,0 -0.89,0 -0.89,-1 0,-0.55 0.5,-0.55 0.89,-0.55 2.85,-0.04 3.39,-1.09 3.39,-2.18 0,-0.16 -0.11,-0.91 -0.15,-1.05 l -4.49,-17.8 c -1.68,-6.67 -7.42,-11 -12.4,-11 -3.38,0 -6.08,2.19 -6.08,6.47 0,0.11 0,1.7 0.55,3.89 l 4.84,19.38 c 0.44,1.79 0.55,2.29 4.19,2.29 1.28,0 1.68,0 1.68,1 0,0.55 -0.54,0.55 -0.7,0.55 -1.39,0 -4.98,-0.16 -6.37,-0.16 -1.44,0 -4.99,0.16 -6.43,0.16 -0.4,0 -0.95,0 -0.95,-1 0,-0.55 0.45,-0.55 1.41,-0.55 0.09,0 1.04,0 1.89,-0.09 0.89,-0.11 1.34,-0.16 1.34,-0.8 0,-0.31 -0.55,-2.39 -0.84,-3.54 l -1.11,-4.38 c -0.44,-1.95 -2.83,-11.36 -3.03,-12.31 -0.35,-1.39 -0.35,-2.14 -0.35,-2.89 0,-6.08 4.53,-9.56 9.77,-9.56 6.26,0 12.45,5.62 14.09,12.2 z"
           inkscape:connector-curvature="0"
           style="fill:#000000;stroke-width:0" /><path
           id="path4744"
           d="m 507.92,406.18 -0.01,0.41 -0.04,0.4 -0.05,0.4 -0.07,0.39 -0.1,0.39 -0.11,0.38 -0.13,0.38 -0.15,0.36 -0.17,0.36 -0.18,0.35 -0.21,0.34 -0.22,0.33 -0.23,0.32 -0.25,0.31 -0.27,0.3 -0.28,0.28 -0.3,0.27 -0.3,0.26 -0.33,0.25 -0.33,0.23 -0.35,0.21 -0.35,0.2 -0.37,0.19 -0.38,0.16 -0.39,0.15 -0.4,0.13 -0.41,0.12 -0.42,0.09 -0.43,0.07 -0.43,0.06 -0.44,0.03 -0.45,0.01 v -0.99 c 2.06,0 3.53,-0.96 4.3,-2.04 0.97,-1.36 1.08,-3.11 1.08,-4.78 0,-1.68 -0.11,-3.52 -1.13,-4.96 -0.94,-1.31 -2.53,-2.01 -4.25,-2.01 v 0 c -1.28,0 -3.17,0.42 -4.31,2.12 -0.94,1.44 -1.05,3.24 -1.05,4.85 0,1.5 0.03,3.56 1.25,5.04 0.88,1.02 2.35,1.78 4.11,1.78 v 0.99 c -4.8,0 -8.53,-3.77 -8.53,-8.13 0,-4.32 3.83,-7.76 8.53,-7.76 4.7,0 8.55,3.44 8.55,7.76 z"
           inkscape:connector-curvature="0"
           style="fill:#000000;stroke-width:0" /><path
           id="path4746"
           d="m 521.85,413.75 v -1.25 c 2.33,0 2.62,-0.25 2.62,-1.96 v -5.97 c 0,-3.06 -1.99,-5.18 -4.63,-5.18 -3.17,0 -3.31,1.5 -3.31,3.28 v 11.45 l -5.38,-0.37 v -1.25 c 2.63,0 2.63,-0.11 2.63,-3.22 v -5.22 c 0,-2.41 0,-5.64 5.81,-5.64 0.76,0 3.31,0 4.98,2.92 h 0.03 v -2.92 l 5.24,0.34 v 1.25 c -2.34,0 -2.62,0.25 -2.62,1.95 v 12.16 z"
           inkscape:connector-curvature="0"
           style="fill:#000000;stroke-width:0" /><path
           id="path4748"
           d="m 538.23,412.53 h 5.44 v 1.25 h -5.44 v 6.4 h -1.18 c -0.03,-3.12 -1.46,-6.57 -4.8,-6.68 v -0.97 h 3.23 v -9.41 c 0,-3.91 2.93,-4.7 4.88,-4.7 2.34,0 3.94,1.98 3.94,4.73 v 1.92 h -1.19 v -1.89 c 0,-2.36 -1.11,-3.65 -2.47,-3.65 -2.41,0 -2.41,2.92 -2.41,3.56 z"
           inkscape:connector-curvature="0"
           style="fill:#000000;stroke-width:0" /></g>    </g>
    <g
       id="g4787">
      <path
         sodipodi:open="true"
         d="m 39.39305,176.86887 a 12.567708,12.567708 0 0 1 0,16.15673"
         sodipodi:end="0.6981317"
         sodipodi:start="5.5850536"
         sodipodi:ry="12.567708"
         sodipodi:rx="12.567708"
         sodipodi:cy="184.94724"
         sodipodi:cx="29.765627"
         sodipodi:type="arc"
         style="fill:none;stroke:#000000;stroke-width:1;stroke-linecap:round;stroke-miterlimit:4;stroke-dasharray:none;stroke-opacity:1"
         id="path3680" />
      <circle
         r="0.30750653"
         cy="184.94724"
         cx="34.277317"
         id="path4783"
         style="fill:none;stroke:#000000;stroke-width:0.5;stroke-linecap:round;stroke-linejoin:round;stroke-miterlimit:4;stroke-dasharray:none;stroke-opacity:1" />
    </g>
    <rect
       style="fill:none;stroke:#000000;stroke-width:0.75;stroke-linecap:round;stroke-linejoin:round;stroke-miterlimit:4;stroke-dasharray:none;stroke-opacity:1"
       id="rect4789"
       width="6.0000029"
       height="14"
       x="54.946003"
       y="197.99388" />
    <ellipse
       ry="5.9531236"
       rx="5.9531956"
       style="fill:none;stroke:#000000;stroke-width:1.00000584;stroke-linecap:round;stroke-miterlimit:4;stroke-dasharray:none;stroke-opacity:1"
       id="path4490-6"
       cx="89.210098"
       cy="204.99388" />
    <g
       transform="matrix(0.48422797,0,0,0.48422213,46.525212,116.38421)"
       id="g4854">
      <g
         style="font-style:normal;font-variant:normal;font-weight:normal;font-stretch:normal;letter-spacing:normal;word-spacing:normal;text-anchor:start;fill:none;fill-opacity:1;fill-rule:evenodd;stroke:#000000;stroke-linecap:butt;stroke-linejoin:miter;stroke-miterlimit:10.43299961;stroke-dasharray:none;stroke-dashoffset:0;stroke-opacity:1"
         id="g4852"
         transform="matrix(0.3,0,0,-0.3,-54.103617,310.41441)"
         xml:space="preserve"
         stroke-miterlimit="10.433"
         font-style="normal"
         font-variant="normal"
         font-weight="normal"
         font-stretch="normal"
         font-size-adjust="none"
         letter-spacing="normal"
         word-spacing="normal"><path
           style="fill:#000000;stroke-width:0"
           inkscape:connector-curvature="0"
           d="m 486.46,435.34 0.06,0.17 0.08,0.17 0.07,0.17 0.08,0.16 0.09,0.16 0.09,0.16 0.1,0.15 0.1,0.15 0.1,0.15 0.12,0.14 0.12,0.14 0.12,0.14 0.14,0.13 0.14,0.12 0.14,0.12 0.16,0.12 0.16,0.11 0.17,0.1 0.18,0.1 0.19,0.09 0.2,0.09 0.2,0.08 0.22,0.07 0.22,0.07 0.24,0.06 0.24,0.06 0.26,0.04 0.27,0.04 0.27,0.03 0.29,0.03 0.3,0.02 h 0.31 v 1.55 c -1.54,-0.11 -3.54,-0.16 -4.84,-0.16 -1.48,0 -4.37,0.11 -5.67,0.16 v -1.55 c 2.59,-0.04 3.64,-1.34 3.64,-2.48 0,-0.41 -0.16,-0.7 -0.25,-1 l -9.13,-24.02 -9.51,25.16 c -0.3,0.7 -0.3,0.8 -0.3,0.89 0,1.45 2.85,1.45 4.08,1.45 v 1.55 c -1.78,-0.16 -5.22,-0.16 -7.11,-0.16 -2.41,0 -4.55,0.11 -6.33,0.16 v -1.55 c 3.24,0 4.17,0 4.88,-1.89 l 11.56,-30.59 c 0.34,-0.95 0.59,-1.09 1.25,-1.09 0.84,0 0.94,0.25 1.19,0.93 z"
           id="path4850" /></g>    </g>
    <path
       sodipodi:nodetypes="cccccccccccccc"
       inkscape:connector-curvature="0"
       d="m 57.946004,197.99388 v -13.04665 m -15.612669,0 h 46.876562 v 14.09353 m -31.263926,12.95312 v 9.6361 M 29.742021,210.947 v 10.68298 H 89.209897 V 210.947 M 29.742021,199.04075 v -14.09351 h 4.535294"
       style="fill:none;stroke:#000000;stroke-width:0.5;stroke-linecap:butt;stroke-linejoin:miter;stroke-miterlimit:4;stroke-dasharray:none;stroke-opacity:1"
       id="path4896" />
    <path
       inkscape:connector-curvature="0"
       id="path4899"
       d="m 30.804364,179.74635 8.409971,1.88989"
       style="fill:none;stroke:#c3cf21;stroke-width:0.26458332px;stroke-linecap:butt;stroke-linejoin:miter;stroke-opacity:1;marker-end:url(#Arrow1Mend)" />
    <path
       inkscape:connector-curvature="0"
       id="path4899-5"
       d="m 30.804364,182.18518 8.409971,1.88989"
       style="fill:none;stroke:#c3cf21;stroke-width:0.26458332px;stroke-linecap:butt;stroke-linejoin:miter;stroke-opacity:1;marker-end:url(#Arrow1Mend-5)" />
    <path
       inkscape:connector-curvature="0"
       id="path4899-9"
       d="m 30.804364,177.30751 8.409971,1.88989"
       style="fill:none;stroke:#c3cf21;stroke-width:0.26458332px;stroke-linecap:butt;stroke-linejoin:miter;stroke-opacity:1;marker-end:url(#Arrow1Mend-6)" />
    <g
       id="g4587"
       transform="matrix(1.837858,0,0,1.837858,3.5688347,141.03513)">
      <g
         word-spacing="normal"
         letter-spacing="normal"
         font-size-adjust="none"
         font-stretch="normal"
         font-weight="normal"
         font-variant="normal"
         font-style="normal"
         stroke-miterlimit="10.433"
         xml:space="preserve"
         transform="matrix(0.06502368,0,0,-0.06502368,-11.379145,62.120996)"
         id="g4585"
         style="font-style:normal;font-variant:normal;font-weight:normal;font-stretch:normal;letter-spacing:normal;word-spacing:normal;text-anchor:start;fill:none;fill-opacity:1;fill-rule:evenodd;stroke:#000000;stroke-linecap:butt;stroke-linejoin:miter;stroke-miterlimit:10.43299961;stroke-dasharray:none;stroke-dashoffset:0;stroke-opacity:1"><path
           id="path4581"
           d="m 487.16,435 0.1,0.37 0.05,0.19 0.06,0.18 0.06,0.17 0.07,0.17 0.07,0.17 0.08,0.16 0.08,0.16 0.1,0.16 0.09,0.15 0.11,0.14 0.11,0.14 0.13,0.14 0.13,0.12 0.14,0.13 0.15,0.12 0.17,0.11 0.17,0.11 0.19,0.1 0.19,0.09 0.21,0.09 0.23,0.08 0.23,0.08 0.26,0.07 0.26,0.06 0.28,0.06 0.3,0.04 0.31,0.05 0.33,0.03 0.35,0.03 0.18,0.01 h 0.19 c 0.25,0 0.84,0.05 0.84,1 0,0.05 0,0.55 -0.64,0.55 -1.64,0 -3.39,-0.16 -5.08,-0.16 -1.7,0 -3.55,0.16 -5.19,0.16 -0.29,0 -0.89,0 -0.89,-1 0,-0.55 0.5,-0.55 0.89,-0.55 2.85,-0.04 3.39,-1.09 3.39,-2.18 0,-0.16 -0.11,-0.91 -0.15,-1.05 l -4.49,-17.8 c -1.68,-6.67 -7.42,-11 -12.4,-11 -3.38,0 -6.08,2.19 -6.08,6.47 0,0.11 0,1.7 0.55,3.89 l 4.84,19.38 c 0.44,1.79 0.55,2.29 4.19,2.29 1.28,0 1.68,0 1.68,1 0,0.55 -0.54,0.55 -0.7,0.55 -1.39,0 -4.98,-0.16 -6.37,-0.16 -1.44,0 -4.99,0.16 -6.43,0.16 -0.4,0 -0.95,0 -0.95,-1 0,-0.55 0.45,-0.55 1.41,-0.55 0.09,0 1.04,0 1.89,-0.09 0.89,-0.11 1.34,-0.16 1.34,-0.8 0,-0.31 -0.55,-2.39 -0.84,-3.54 l -1.11,-4.38 c -0.44,-1.95 -2.83,-11.36 -3.03,-12.31 -0.35,-1.39 -0.35,-2.14 -0.35,-2.89 0,-6.08 4.53,-9.56 9.77,-9.56 6.26,0 12.45,5.62 14.09,12.2 z"
           inkscape:connector-curvature="0"
           style="fill:#000000;stroke-width:0" /><path
           id="path4583"
           d="m 494.5,404.96 0.05,-0.03 0.05,-0.03 0.06,-0.03 0.07,-0.04 0.07,-0.04 0.07,-0.04 0.08,-0.04 0.08,-0.05 0.09,-0.04 0.09,-0.04 0.09,-0.05 0.1,-0.04 0.1,-0.05 0.11,-0.04 0.11,-0.05 0.12,-0.04 0.12,-0.04 0.12,-0.05 0.13,-0.04 0.14,-0.03 0.13,-0.04 0.15,-0.04 0.14,-0.03 0.15,-0.03 0.16,-0.03 0.16,-0.02 0.16,-0.02 0.17,-0.02 0.18,-0.01 0.17,-0.01 0.19,-0.01 h 0.18 c 3.6,0 6.21,2.4 6.21,5.12 0,1.36 -0.63,2.44 -1.47,3.35 1.58,1.1 2.93,1.14 3.53,1.14 -0.14,-0.14 -0.31,-0.29 -0.31,-0.83 0,-0.71 0.51,-1.13 1.11,-1.13 0.48,0 1.1,0.36 1.1,1.16 0,0.8 -0.65,1.78 -2.04,1.78 -0.53,0 -2.41,-0.11 -4.05,-1.61 -1.05,0.77 -2.5,1.25 -4.05,1.25 l -0.03,-1.03 c 3.42,0 3.42,-3.36 3.42,-4.08 0,-0.56 0,-1.95 -0.7,-2.86 -0.48,-0.59 -1.42,-1.22 -2.69,-1.22 v 0 c -3.4,0 -3.4,3.35 -3.4,4.08 0,0.55 0,1.95 0.69,2.85 0.5,0.59 1.43,1.23 2.68,1.23 l 0.03,1.03 c -3.57,0 -6.2,-2.39 -6.2,-5.11 0,-1.36 0.7,-2.62 1.69,-3.53 -0.28,-0.31 -1.05,-1.45 -1.05,-2.81 0,-0.46 0.1,-2.1 1.45,-3.11 -1.56,-0.52 -3.37,-1.67 -3.37,-3.49 0,-2.54 3.83,-4.45 8.53,-4.45 v 1.05 c -3.66,0 -6.41,1.64 -6.41,3.45 0,1.22 1.11,2.7 3.35,2.75 h 2.01 c 3.11,0 7.47,0 7.47,-2.75 0,-1.86 -2.76,-3.45 -6.42,-3.45 v -1.05 c 4.44,0 8.55,1.74 8.55,4.53 0,1.05 -0.42,2.92 -2.35,3.97 -2.04,1.08 -4.11,1.08 -7.48,1.08 -0.77,0 -2.03,0 -2.3,0.03 -1.12,0.25 -1.75,1.3 -1.75,2.31 0,0.86 0.25,1.14 0.46,1.42 z"
           inkscape:connector-curvature="0"
           style="fill:#000000;stroke-width:0" /></g>    </g>
  </g>
</svg>
